<?xml version="1.0" encoding="UTF-8" standalone="no"?>
<svg
   xmlns:dc="http://purl.org/dc/elements/1.1/"
   xmlns:cc="http://creativecommons.org/ns#"
   xmlns:rdf="http://www.w3.org/1999/02/22-rdf-syntax-ns#"
   xmlns:svg="http://www.w3.org/2000/svg"
   xmlns="http://www.w3.org/2000/svg"
   viewBox="0 0 250.50002 136.04488"
   height="136.04488"
   width="250.50002"
   id="svg4485"
   version="1.1">
  <metadata
     id="metadata4491">
    <rdf:RDF>
      <cc:Work
         rdf:about="">
        <dc:format>image/svg+xml</dc:format>
        <dc:type
           rdf:resource="http://purl.org/dc/dcmitype/StillImage" />
        <dc:title></dc:title>
      </cc:Work>
    </rdf:RDF>
  </metadata>
  <defs
     id="defs4489" />
  <g
     transform="translate(0.5)"
     id="g6646">
    <path
       id="path6662"
       d="M 0,120.51972 V 118 l 70.25,0.0153 c 42.25522,0.009 70.84442,0.39112 71.74164,0.95836 1.21877,0.77053 1.25542,1.17934 0.20036,2.23469 -1.02558,1.02586 -15.78777,1.34714 -71.741643,1.56136 L 0,123.03944 Z M 0,99.368011 c 0,-1.031724 0.55019455,-1.370859 1.5817875,-0.975 C 2.4517706,98.726855 4.1017706,99 5.2484541,99 8.0676799,99 7.196995,99.580046 3.25,100.33136 0.69221588,100.81824 0,100.61305 0,99.368011 Z m 134.24377,0.986129 C 132.1296,99.470657 133.94037,98 137.14235,98 c 1.97234,0 2.88112,0.4348 2.61266,1.25 -0.44396,1.34807 -3.47459,1.95523 -5.51124,1.10414 z m 19.0529,-39.67477 c -2.31183,-1.198654 -4.22433,-2.51687 -4.25,-2.92937 -0.0569,-0.913947 -1.99271,-0.875663 54.70304,-1.081824 L 249.99941,56.5 l 3e-4,3.212147 2.9e-4,3.212146 -46.25,-0.03278 c -45.53431,-0.03227 -46.31504,-0.0665 -50.45333,-2.212146 z M 0,36.412063 C 0,35.340169 0.53906559,34.992881 1.5817875,35.393011 2.4517706,35.726855 3.8767706,36 4.7484541,36 6.9090016,36 6.0628271,36.583624 2.75,37.378376 0.60699839,37.892484 0,37.679193 0,36.412063 Z M 245.5,37 c -2.29513,-0.584012 -2.49057,-0.791169 -0.83179,-0.881685 1.19252,-0.06507 2.88002,-0.39146 3.75,-0.725304 1.03799,-0.398311 1.58179,-0.05452 1.58179,1 0,1.736541 -0.0398,1.741912 -4.5,0.606989 z M 0,16 V 13.5 H 125 250 V 16 18.5 H 125 0 Z"
       style="fill:#f9c8d2" />
    <path
       id="path6660"
       d="m 70.200457,123.01647 c 55.896113,-0.40832 70.970823,-0.78693 71.991643,-1.80811 1.05493,-1.05531 1.01825,-1.46419 -0.20046,-2.23469 C 141.09442,118.40643 112.50522,118.02452 70.25,118.01531 23.199166,118.00506 0,117.66333 0,116.98054 c 0,-0.68563 23.402356,-0.93123 71.464634,-0.75 67.504796,0.25453 71.563556,0.37 73.249996,2.08397 1.71527,1.74327 1.69268,1.89051 -0.57541,3.75 -2.29155,1.87872 -4.44727,1.92864 -73.500004,1.70196 L -0.5,123.53295 Z M -1.8223461e-4,101.76905 C -8.2005575e-5,101.36703 1.2375,100.76517 2.75,100.43158 7.0657971,99.479715 7.6683591,99.164025 5.3317875,99.078947 2.3944566,98.971995 0,97.981513 0,96.87342 0,96.329317 28.683954,96.069676 71.036718,96.230409 132.90488,96.465204 142.1931,96.693602 143.00055,98 c 2.45271,3.96828 1.31018,4.03579 -72.30905,4.2726 -38.880525,0.12507 -70.69178246365,-0.10153 -70.69168223461,-0.50355 z M 139.75501,99.25 c 0.26846,-0.8152 -0.64032,-1.25 -2.61266,-1.25 -3.20198,0 -5.01275,1.470657 -2.89858,2.35414 2.03665,0.85109 5.06728,0.24393 5.51124,-1.10414 z M 0,80.083333 c 0,-0.504166 0.5625,-1.14364 1.25,-1.421052 1,-0.403509 1,-0.520176 0,-0.583334 C 0.5625,78.035526 -1.4462339e-4,77.4375 -3.2138531e-4,76.75 -7.5184088e-4,75.075781 139.69614,75.502927 141.72091,77.183336 c 0.9824,0.815318 1.02405,1.419047 0.16898,2.449343 C 140.94981,80.765405 128.68027,81 70.377555,81 28.391158,81 0,80.630206 0,80.083333 Z M 150,61.390153 C 145.51082,60.256684 131.22145,60.047275 72.249692,60.250732 14.983039,60.448305 -5.5137013e-4,60.240768 -3.0757872e-4,59.25 -1.3841043e-4,58.5625 0.5625,57.993109 1.25,57.984687 2.0965156,57.974317 2.0251668,57.669081 1.0289603,57.03906 0.21988854,56.527387 -0.23011146,55.920344 0.02896035,55.690074 1.0501123,54.782449 250,53.927334 250,54.831451 c 0,1.72531 -17.28135,2.397567 -55,2.139537 C 150.64143,56.667535 149,56.704253 149,58 c 0,0.55 0.5625,1.002965 1.25,1.006589 0.6875,0.0036 2.6,0.900659 4.25,1.993411 3.42659,2.269341 3.06635,2.300574 -4.5,0.390153 z M 0,39.141972 C 0,38.545338 1.4625,37.675607 3.25,37.209234 L 6.5,36.361285 3.25,35.705643 C 1.4625,35.345039 7.582279e-6,34.70125 1.6849509e-5,34.275 2.6116739e-5,33.84875 56.250033,33.5 125.00003,33.5 c 68.75,0 124.99999,0.328927 124.99999,0.730948 -1e-5,0.402021 -1.23752,1.003883 -2.75002,1.337471 -4.3158,0.951866 -4.91836,1.267556 -2.58179,1.352634 2.65619,0.09671 5.33219,1.068566 5.33063,1.935936 -6.4e-4,0.353656 -56.25064,0.806532 -125,1.006391 C 35.596281,40.123279 0,39.917842 0,39.141972 Z M 1,19 c 2.0467438,-1.322707 245.95326,-1.322707 248,0 0.97277,0.628651 -42.6117,0.969374 -124,0.969374 C 43.611697,19.969374 0.02723143,19.628651 1,19 Z M 5.5,13 C 2.2,12.634918 55.975,12.329186 125,12.320595 c 69.025,-0.0086 122.575,0.313162 119,0.715008 C 235.91442,13.944457 13.737231,13.911291 5.5,13 Z"
       style="fill:#fdb8c5" />
    <path
       id="path6658"
       d="m 0,125 c 0,-0.65726 24.296405,-1 70.889216,-1 68.621784,0 70.964724,-0.0619 73.250004,-1.93549 2.26809,-1.85949 2.29068,-2.00673 0.57541,-3.75 -1.68644,-1.71397 -5.7452,-1.82944 -73.249996,-2.08397 C 25.617177,116.05766 0,115.60959 0,114.98054 c 0,-1.19112 135.09306,-1.25708 142.31572,-0.0695 5.8254,0.95784 8.17695,2.98984 7.33629,6.33933 -0.43375,1.72817 -1.7185,2.75257 -4.49567,3.58463 C 140.0788,126.35628 0,126.5155 0,125 Z m 0,-20.85767 c 0,-1.66998 22.726895,-2.24898 81.606539,-2.07905 49.240541,0.14211 59.824171,-0.0655 60.953961,-1.19566 C 143.47498,99.952844 143.62069,99.003324 143.00055,98 142.1931,96.693602 132.90488,96.465204 71.036718,96.230409 24.5373,96.053939 0,95.615487 0,94.961069 0,94.301505 24.490029,94.05297 71.972566,94.230661 c 71.955614,0.269276 71.973064,0.269841 74.104694,2.401807 3.001,3.001491 1.81052,6.026762 -2.88477,7.330832 C 138.63858,105.2281 0,105.40143 0,104.14233 Z M 0,82.537985 C 0,81.168574 7.7138782,81 70.377555,81 127.55198,81 140.96122,80.751651 141.85376,79.676206 144.78239,76.147428 142.13335,76.000205 75.55,75.991308 11.940487,75.982808 0,75.641081 0,73.829125 c 0,-0.517383 30.146805,-0.773982 71.75,-0.610709 76.67922,0.300929 76.74477,0.305315 76.06068,5.089878 -0.73885,5.167646 -0.75943,5.16911 -77.06068,5.479691 C 7.6263407,84.044927 0,83.910186 0,82.537985 Z M 150,63.819661 C 148.075,63.357616 113.5375,63.002548 73.25,63.030622 30.378768,63.060495 0,62.70777 0,62.180123 0,60.352994 11.938593,60.017197 77.200779,60.008692 140.92952,60.000387 152.59756,60.443307 155.31722,62.974 156.67887,64.241039 153.71768,64.711991 150,63.819661 Z M 0,53.5 C 0,52.174667 14.555556,52 125,52 c 68.75,0 125,0.376021 125,0.835602 0,0.910939 -114.38304,2.162439 -197.75,2.163643 C 6.4718868,54.999907 0,54.814204 0,53.5 Z M 0,41.16181 C 0,40.132587 230.33144,38.647257 241.78692,39.602607 246.30411,39.979327 250,40.672853 250,41.143776 250,41.614699 193.75,42 125,42 56.25,42 0,41.622814 0,41.16181 Z M 6.25,33.259603 C 2.8125,33.064332 0,32.476038 0,31.952283 0,31.354318 46.509038,31 125,31 c 68.75,0 125,0.38213 125,0.849177 0,0.467047 -4.3875,1.139719 -9.75,1.494826 -9.8366,0.651385 -222.397053,0.574717 -234,-0.0844 z M 0,21 c 0,-0.661333 42.333333,-1 125,-1 82.66667,0 125,0.338667 125,1 0,0.661333 -42.33333,1 -125,1 C 42.333333,22 0,21.661333 0,21 Z M 0,11 c 0,-0.661333 42.333333,-1 125,-1 82.66667,0 125,0.338667 125,1 0,0.661333 -42.33333,1 -125,1 C 42.333333,12 0,11.661333 0,11 Z"
       style="fill:#fd9aab" />
    <path
       id="path6656"
       d="M 0,127.04176 C 0,126.32921 22.389985,126 70.850777,126 c 70.236913,0 76.277463,-0.2543 78.289903,-3.29593 0.35237,-0.53258 0.95596,0.025 1.3413,1.23916 0.38535,1.21412 0.3973,2.51108 0.0266,2.88213 C 149.33705,127.99782 0,128.21254 0,127.04176 Z m 147.05814,-10.90318 c -2.19583,-1.47349 -9.72712,-1.6681 -74.749999,-1.93162 C 9.435654,113.95215 -4.475367,113.4921 1.25,111.85699 c 2.5989719,-0.74224 146.33008,0.74636 148,1.53282 1.78046,0.83852 2.3614,3.12727 1,3.93975 -0.4125,0.24618 -1.84884,-0.28976 -3.19186,-1.19098 z M -3.2221235e-4,106.25 C -6.7536696e-5,105.262 14.619814,104.99883 69.75,104.99442 c 44.57382,-0.004 71.0828,-0.37574 73.44249,-1.03112 4.69529,-1.30407 5.88577,-4.329341 2.88477,-7.330832 -2.13163,-2.131966 -2.14908,-2.132531 -74.104694,-2.401807 C 15.810602,94.020489 -1.0390232e-4,93.690976 -4.7298117e-4,92.730661 -8.4186944e-4,91.770842 9.9577018,91.555721 45.249527,91.753189 c 79.598313,0.445375 101.208723,0.79225 103.046653,1.654029 1.47298,0.690657 1.74289,1.852647 1.5,6.457634 l -0.29618,5.615428 -5,0.70369 c -2.75,0.38703 -36.38764,0.84146 -74.750322,1.00986 C 14.452666,107.43656 -5.7765748e-4,107.24098 -3.2221235e-4,106.25 Z M 0,85.037985 c 0,-0.604242 26.311921,-1.069117 70.75,-1.25 76.30125,-0.310581 76.32183,-0.312045 77.06068,-5.479691 C 148.49477,73.523731 148.42922,73.519345 71.75,73.218416 16.162765,73.000263 -2.1213082e-5,72.662365 -9.4169446e-5,71.718416 -1.9008499e-4,70.477408 2.0134914,70.469165 113.78663,71.252654 c 25.34482,0.177658 35.48762,0.57243 36,1.401171 0.39235,0.634604 0.56145,3.387666 0.37576,6.117917 l -0.3376,4.964092 -6.85502,1.132083 C 134.20591,86.315237 0,86.47488 0,85.037985 Z M 148,66.316453 c -2.05405,-1.11555 -15.47731,-1.309468 -75.250311,-1.0871 C 16.307223,65.439331 -5.5245099e-4,65.228477 -3.110931e-4,64.288717 -7.1205056e-5,63.354681 15.964843,63.011351 69.75,62.788717 c 64.37551,-0.26647 83.25,0.234502 83.25,2.209645 0,1.92569 -2.61293,2.614506 -5,1.318091 z M -1.8849268e-5,50.75 C -3.3828154e-5,49.756667 25.666619,49.5 124.99996,49.5 c 99.33332,0 125,0.256667 125.00002,1.25 C 250,51.743333 224.33334,52 125,52 25.666677,52 -3.8703845e-6,51.743333 -1.8849268e-5,50.75 Z m -6.6963044e-5,-7.5 C -1.762016e-5,42.256667 25.666712,42 125,42 c 82.66667,0 125,0.338667 125,1 0,0.55 -0.3375,1.000478 -0.75,1.001062 -0.4125,5.84e-4 -56.66254,0.113084 -125.00009,0.25 C 25.383709,44.449143 -1.5409345e-4,44.244629 -8.5812312e-5,43.25 Z M 0,29.75 c 0,-0.993333 25.666667,-1.25 125,-1.25 99.33333,0 125,0.256667 125,1.25 C 250,30.743333 224.33333,31 125,31 25.666667,31 0,30.743333 0,29.75 Z M 0.9999913,24.166667 C -4.5504777,22.316494 13.562732,22 125,22 c 82.66667,0 125,0.338667 125,1 0,0.55 -0.3375,1.004448 -0.75,1.009884 C 231.04862,24.249742 1.6837803,24.394598 0.9999913,24.166667 Z M 0,9 C 0,8.3386667 42.333333,8 125,8 207.66667,8 250,8.3386667 250,9 250,9.6613333 207.66667,10 125,10 42.333333,10 0,9.6613333 0,9 Z"
       style="fill:#fb7089" />
    <path
       id="path6654"
       d="m 150,133.51905 c 0,-1.76966 -0.6733,-2.64993 -2.34845,-3.07037 -1.29165,-0.32418 -35.04178,-0.44526 -75.000302,-0.26905 -56.292342,0.24823 -72.65178553595,0.0483 -72.65155086732,-0.88787 C -4.5497102e-5,128.26503 64.307214,127.5 150.61241,127.5 c 0.0618,0 0.35651,1.9125 0.65485,4.25 0.29833,2.3375 0.13525,4.25 -0.36242,4.25 C 150.40718,136 150,134.88357 150,133.51905 Z m -7,-20.57628 C 139.425,112.5118 105.7875,112.09406 68.25,112.01446 3.4162077,111.87698 0,111.78023 0,110.0816 c 0,-2.74798 8.1037704,-3.07475 77.900878,-3.14121 34.429512,-0.0328 64.736622,-0.41145 67.349122,-0.84147 3.49198,-0.57478 4.75,-0.45967 4.75,0.43462 0,0.66905 0.28125,2.62271 0.625,4.34146 0.34375,1.71875 0.23125,3.06343 -0.25,2.98818 -0.48125,-0.0753 -3.8,-0.48944 -7.375,-0.92041 z M 145.5,93 C 143.85,92.580146 112.8,92.179476 76.5,92.109623 40.2,92.039769 8.1375,91.698846 5.25,91.352017 0.604168,90.793987 0,90.454065 0,88.39822 v -2.323197 l 71.75,-0.391519 c 39.4625,-0.215336 73.2125,-0.733291 75,-1.151011 L 150,83.773001 v 5.1135 c 0,2.812424 -0.3375,5.060257 -0.75,4.995184 C 148.8375,93.816612 147.15,93.419854 145.5,93 Z m 3,-4 c -0.33992,-0.55 -1.82898,-0.968372 -3.30902,-0.929715 -2.40282,0.06276 -2.47681,0.162316 -0.69098,0.929715 2.77822,1.193844 4.73784,1.193844 4,0 z M 70.5,70.968214 C 32,70.63476 0.3875,70.280499 0.25,70.180967 0.1125,70.081435 0,69.143304 0,68.09623 c 0,-1.705052 1.0699056,-1.972487 10.25,-2.562101 5.6375,-0.362082 38.868574,-0.517885 73.846831,-0.34623 67.218279,0.329873 67.362289,0.340424 66.183299,4.848869 -0.42809,1.637016 -1.28329,1.92788 -5.14676,1.750479 C 142.58502,71.670233 109,71.301668 70.5,70.968214 Z M 3.75,49.271532 C 0.95422449,48.979084 0,48.422251 0,47.083234 0,45.585072 1.1825645,45.177291 7.1302986,44.624508 11.051963,44.260027 67.301963,43.988229 132.1303,44.02051 L 250,44.07921 v 2.324473 c 0,2.007248 -0.63317,2.41126 -4.63957,2.960398 C 240.47032,50.03434 10.199205,49.946139 3.75,49.271532 Z M 5.25,28.262758 C 0.85888347,27.955566 0,27.580044 0,25.967348 c 0,-1.893893 2.2197113,-1.928132 125,-1.928132 120.55346,0 125,0.06523 125,1.833656 0,1.562077 -1.13316,1.929443 -7.65088,2.480392 C 234.53718,29.013615 14.783953,28.92973 5.25,28.262758 Z M 0,7 C 0,6.45 0.45,5.9937251 1,5.9860558 c 0.55,-0.00767 56.35,-0.013944 124,-0.013944 67.65,0 123.45,0.00627 124,0.013944 C 249.55,5.9937251 250,6.45 250,7 250,7.6613333 207.66667,8 125,8 42.333333,8 0,7.6613333 0,7 Z"
       style="fill:#fd516f" />
    <path
       id="path6652"
       d="m 0,133.64822 c 0,-2.22711 0.43737109,-2.38583 8.25,-2.99401 10.492261,-0.81677 138.05081,-0.85975 140.16821,-0.0472 0.86999,0.33384 1.58179,1.68384 1.58179,3 V 136 H 75 0 Z M 144.5,89 c -1.78583,-0.767399 -1.71184,-0.866956 0.69098,-0.929715 C 146.67102,88.031628 148.16008,88.45 148.5,89 c 0.73784,1.193844 -1.22178,1.193844 -4,0 z M 0,2.972549 V 0 H 125 250 V 2.972549 5.945098 H 125 0 Z"
       style="fill:#fd2a51" />
    <path
       id="path6650"
       d="m 158,134.32874 c 0,-0.91919 -0.66425,-2.40525 -1.47611,-3.30234 -0.81186,-0.8971 -1.642,-2.73253 -1.84476,-4.07874 -0.23722,-1.5751 -1.12495,-2.56 -2.49019,-2.7628 -1.82229,-0.27068 -2.07405,-0.87542 -1.7848,-4.28711 0.38518,-4.54311 0.11212,-4.14328 4.27486,-6.25954 1.87039,-0.95087 3.31114,-2.53474 3.5,-3.84769 0.2462,-1.71154 1.42786,-2.54324 5.071,-3.56916 l 4.75,-1.33761 v -4.82055 c 0,-4.524958 -0.19929,-4.894384 -3.25,-6.024465 -5.1016,-1.889798 -6.22718,-2.637194 -6.56644,-4.36019 -0.21228,-1.078056 0.61069,-1.79486 2.5,-2.1775 C 169.21891,85.772388 175,82.413112 175,79.182047 c 0,-0.808129 -1.4625,-2.974896 -3.25,-4.815038 -2.79404,-2.876329 -3.92562,-3.347206 -8.06574,-3.356361 C 157.61708,70.997233 155,72.360743 155,75.535184 155,76.890833 154.50077,78 153.89059,78 c -0.69747,0 -0.93781,-1.392423 -0.64728,-3.75 0.25417,-2.0625 0.0905,-4.760037 -0.36376,-5.994528 -0.65042,-1.767647 -0.34393,-2.560315 1.44251,-3.730841 1.92126,-1.258855 9.37761,-1.495735 48.72317,-1.547879 l 46.45477,-0.06156 0.29569,6.542406 C 250.08394,75.83531 250.02894,76 247.61079,76 c -8.07134,0 -10.689,5.815896 -3.89528,8.654493 2.55054,1.065682 3.83084,1.206455 4.08333,0.448973 C 248.7009,82.397294 250,84.401892 250,88.5 c 0,4.116474 -1.30023,6.099313 -2.20995,3.370154 -0.22683,-0.680503 -1.5028,-0.161144 -3.20833,1.305896 -3.83018,3.294577 -3.81314,7.42969 0.0433,10.50716 1.58125,1.26186 3.025,1.84935 3.20833,1.30554 0.18334,-0.54381 0.74584,-0.98875 1.25,-0.98875 0.51736,0 0.91667,6.9697 0.91667,16 v 16 h -46 c -42.31723,0 -46,-0.1338 -46,-1.67126 z m 8.41821,-7.93573 c 1.93887,-0.74401 2.1641,-7.2665 0.33179,-9.60837 -0.6875,-0.87869 -2.7125,-1.90045 -4.5,-2.27058 L 159,113.84109 v 5.91279 c 0,3.25203 0.3,6.21279 0.66667,6.57945 0.83258,0.83259 4.64947,0.86632 6.75154,0.0597 z m 58.88782,-42.419095 c 3.7201,-2.926233 4.19777,-5.457647 1.69348,-8.974601 C 225.47512,72.858498 224.0415,72 221.99092,72 c -1.58009,0 -3.151,0.45 -3.49092,1 -0.33992,0.55 -1.94758,1 -3.57259,1 -1.625,0 -3.84844,0.558246 -4.94098,1.240547 -1.58107,0.987396 -2.39179,0.987396 -3.97286,0 -1.12289,-0.701258 -5.14404,-1.226084 -9.25,-1.207278 C 188.87273,74.069412 185,75.963899 185,79.787848 c 0,3.635431 2.29362,4.235346 18.0255,4.714721 8.40174,0.256015 15.50807,0.69767 15.79186,0.981456 1.10501,1.105008 4.02929,0.424438 6.48867,-1.51011 z M 152.25,101.57434 c -3.00508,-1.4005 -2.90779,-4.036422 0.15548,-4.212625 1.80056,-0.10357 2.51983,0.467261 2.86519,2.273867 0.55744,2.916048 -0.0656,3.315948 -3.02067,1.938758 z M 150,77.940983 c 0,-1.132459 0.43035,-1.793048 0.95633,-1.467975 0.52598,0.325073 0.70283,1.251631 0.39301,2.059017 C 150.55611,80.599138 150,80.355548 150,77.940983 Z"
       style="fill:#024886" />
    <path
       id="path6648"
       d="M 151.60699,134.41821 C 151.27314,133.54823 151,130.81523 151,128.34489 c 0,-3.63931 0.31333,-4.43019 1.65136,-4.16821 0.90825,0.17782 1.819,1.42477 2.02389,2.77098 0.20489,1.34621 1.03678,3.18164 1.84864,4.07874 0.81186,0.89709 1.47611,2.38315 1.47611,3.30234 0,2.23371 -5.54044,2.31125 -6.39301,0.0895 z m 8.05968,-8.08488 C 159.3,125.96667 159,123.00591 159,119.75388 v -5.91279 l 3.25,0.67297 c 1.7875,0.37013 3.8125,1.39189 4.5,2.27058 1.83231,2.34187 1.60708,8.86436 -0.33179,9.60837 -2.10207,0.80664 -5.91896,0.77291 -6.75154,-0.0597 z M 150.64185,111.25 c -1.06972,-6.47176 -0.77515,-10.25 0.79913,-10.25 0.79254,0 1.72364,0.45734 2.0691,1.01631 1.08938,1.76266 2.24195,0.13735 1.74523,-2.46106 -0.3496,-1.828807 -1.04613,-2.434274 -2.61589,-2.273868 -2.01005,0.205398 -2.15697,-0.279696 -2.42971,-8.021844 -0.15966,-4.532254 0.17906,-9.117445 0.75271,-10.189312 0.57364,-1.071867 0.68587,-2.169558 0.2494,-2.439314 -1.16461,-0.719766 -1.3506,-6.891595 -0.25923,-8.601952 1.53202,-2.400921 2.49281,-0.269419 2.26267,5.019722 C 153.09439,75.826788 153.43878,78 153.99991,78 154.54996,78 155,76.890833 155,75.535184 c 0,-3.174441 2.61708,-4.537951 8.68426,-4.524536 4.14012,0.0092 5.2717,0.480032 8.06574,3.356361 1.7875,1.840142 3.25,4.006909 3.25,4.815038 0,3.231065 -5.78109,6.590341 -14.31644,8.318998 -1.88931,0.38264 -2.71228,1.099444 -2.5,2.1775 0.33926,1.722996 1.46484,2.470392 6.56644,4.36019 3.05071,1.130081 3.25,1.499507 3.25,6.024465 v 4.82055 l -4.75,1.33761 c -3.64314,1.02592 -4.8248,1.85762 -5.071,3.56916 -0.2574,1.78945 -4.52368,5.20948 -6.4985,5.20948 -0.23035,0 -0.69774,-1.6875 -1.03865,-3.75 z m 93.89108,-7.64204 c -3.70301,-2.95268 -3.74137,-7.17175 -0.0937,-10.309308 2.33696,-2.010167 2.87725,-2.125078 4.125,-0.877324 1.8274,1.827396 1.89297,10.264382 0.0937,12.063592 -1.12275,1.12276 -1.79683,0.97945 -4.125,-0.87696 z M 218.81736,85.484025 C 218.53357,85.200239 211.42724,84.758584 203.0255,84.502569 187.29362,84.023194 185,83.423279 185,79.787848 c 0,-3.823949 3.87273,-5.718436 11.76357,-5.754579 4.10596,-0.01881 8.12711,0.50602 9.25,1.207278 1.58107,0.987396 2.39179,0.987396 3.97286,0 C 211.07897,74.558246 213.30241,74 214.92741,74 c 1.62501,0 3.23267,-0.45 3.57259,-1 0.33992,-0.55 1.91083,-1 3.49092,-1 3.50727,0 7.49849,4.882636 6.51758,7.973228 -1.1747,3.70115 -7.75752,7.444421 -9.69114,5.510797 z M 243.25,84.509132 C 236.94399,81.768278 239.86916,76 247.5651,76 249.69045,76 250,76.454034 250,79.571429 c 0,1.964285 -0.64286,4.214285 -1.42857,5 -1.69146,1.691454 -1.27528,1.696326 -5.32143,-0.0623 z"
       style="fill:#09387d" />
  </g>
</svg>
