<?xml version="1.0" encoding="UTF-8" standalone="no"?>
<svg
   xmlns:dc="http://purl.org/dc/elements/1.1/"
   xmlns:cc="http://creativecommons.org/ns#"
   xmlns:rdf="http://www.w3.org/1999/02/22-rdf-syntax-ns#"
   xmlns:svg="http://www.w3.org/2000/svg"
   xmlns="http://www.w3.org/2000/svg"
   viewBox="0 0 200 221"
   height="221"
   width="200"
   id="svg4485"
   version="1.1">
  <metadata
     id="metadata4491">
    <rdf:RDF>
      <cc:Work
         rdf:about="">
        <dc:format>image/svg+xml</dc:format>
        <dc:type
           rdf:resource="http://purl.org/dc/dcmitype/StillImage" />
        <dc:title></dc:title>
      </cc:Work>
    </rdf:RDF>
  </metadata>
  <defs
     id="defs4489" />
  <g
     id="g6552">
    <path
       id="path6568"
       d="M 0,200.5 C 0,189.225 0.29412459,180 0.65361021,180 c 0.35948559,0 2.30395349,1.6875 4.32103979,3.75 6.596582,6.7451 11.915587,9.69322 18.613974,10.317 4.149979,0.38646 7.163238,1.33218 9.463624,2.9702 2.267876,1.61487 5.404265,2.61325 9.561084,3.0435 3.883717,0.40198 7.304371,1.43657 9.190745,2.77979 1.652565,1.17673 3.926971,2.13951 5.054235,2.13951 1.127263,0 6.214556,1.35 11.305095,3 5.090539,1.65 10.173765,3.00231 11.296059,3.00512 1.122294,0.003 3.840534,1.11378 6.040534,2.46879 5.677845,3.49708 16.63306,3.55226 23.90351,0.1204 2.80307,-1.32313 7.34649,-2.73227 10.09649,-3.13141 2.75,-0.39914 6.66957,-1.56658 8.71016,-2.59431 2.04059,-1.02772 5.41559,-1.88263 7.5,-1.8998 2.23237,-0.0184 5.43368,-1.04368 7.78984,-2.49488 2.83124,-1.74381 5.46094,-2.46947 9,-2.48353 4.94671,-0.0196 5.99725,-0.41305 12.49269,-4.67816 2.0695,-1.3589 5.79513,-2.45158 9.83352,-2.88406 5.27294,-0.56468 7.57793,-1.43484 12.19638,-4.60426 3.13208,-2.14939 6.2083,-5.03524 6.83605,-6.413 0.62775,-1.37775 1.14771,-6.19633 1.15548,-10.70795 0.008,-4.51162 0.46265,-15.85295 1.01084,-25.20295 1.26051,-21.499 1.26656,-33.9047 0.019,-39 -1.11955,-4.57264 1.81502,-38.321475 3.14954,-36.221074 0.4267,0.671591 0.78272,34.633574 0.79114,75.471074 L 200,221 H 100 0 Z m 94.384743,-34.25 c -0.988213,-4.15939 -3.164186,-6.10957 -11.494513,-10.30175 -7.241049,-3.644 -7.718872,-4.09837 -9.861438,-9.37731 C 70.351395,139.97426 70.808933,138 75.015126,138 c 2.417498,0 3.443397,0.67072 4.781384,3.12602 C 84.341058,149.46559 89.442192,153 96.933954,153 c 5.515376,0 10.572996,-2.65657 13.511606,-7.0971 3.74378,-5.65723 4.05894,-8.22929 1.62456,-13.25806 -2.49114,-5.14599 -12.06089,-11.95864 -18.983138,-13.51396 -5.417817,-1.2173 -14.781574,-9.17102 -17.836982,-15.151 -5.168968,-10.116605 -0.753115,-20.014254 11.812814,-26.477129 5.691588,-2.927282 6.59256,-4.013777 7.80568,-9.412978 1.079223,-4.803269 2.820531,-7.330719 3.449609,-5.00699 2.668127,9.8557 2.968347,10.276714 11.181897,15.680775 5.86993,3.862088 8.45897,6.258419 9.72378,9 C 122.21422,94.245618 121.27469,97 116.0732,97 c -2.37029,0 -4.70434,-2.811014 -5.51859,-6.646308 -0.36738,-1.730469 -1.42996,-3.813156 -2.36129,-4.628193 -3.25196,-2.845912 -11.417539,-6.576772 -13.049714,-5.962428 -3.008724,1.132473 -9.62696,6.348504 -10.858171,8.55765 -1.5893,2.851663 -1.593362,11.512473 -0.0069,14.647769 1.949873,3.85342 10.373344,9.63585 17.394485,11.94073 7.7795,2.55383 15.67235,8.25342 18.05736,13.03961 2.43617,4.88884 2.29101,15.25548 -0.28726,20.5153 -1.62921,3.32367 -3.20485,4.57692 -9.75253,7.75712 -6.99514,3.39751 -8.0166,4.26144 -9.796795,8.28587 -2.250258,5.08708 -4.542271,5.81219 -5.509082,1.74288 z M 0,132.5 c 0,-4.72674 0.34787208,-6.55071 1.1954797,-6.26817 2.8217326,0.94057 2.8462247,11.5876 0.028816,12.52674 C 0.34018779,139.05327 0,137.31424 0,132.5 Z M 36.865034,48.821347 C 34.424309,46.848802 34.185554,45.017761 35.649598,39.5 37.769667,31.509775 37.412661,26.321752 34.545455,23.454545 31.26229,20.171381 27.26446,20.306696 20.209037,23.939792 16.230133,25.988676 12.302876,27.088514 7.25,27.569003 L 0,28.258421 V 14.12921 0 h 100 100 v 16 c 0,8.8 -0.26803,16 -0.59563,16 -0.3276,0 -1.99873,-0.999094 -3.71362,-2.220208 -2.01007,-1.431293 -5.33239,-2.449406 -9.34985,-2.865229 -4.71939,-0.488473 -7.01466,-1.303707 -9.45726,-3.359023 -2.6936,-2.266509 -3.81252,-2.603863 -6.78612,-2.046013 -1.95838,0.367396 -4.33712,1.083519 -5.28608,1.591386 -2.4514,1.311951 -3.31185,7.413709 -1.96499,13.934542 1.47077,7.120758 1.45838,10.25972 -0.0464,11.764545 -0.79513,0.795134 -5.10611,1.2 -12.77749,1.2 -16.85809,0 -16.27923,0.678618 -15.85813,-18.590964 C 134.49833,16.127759 134.48757,16.039664 132,13.687507 130.625,12.387358 125.9,9.7882895 121.5,7.9117997 L 113.5,4.5 97.949648,4.6278236 C 84.486315,4.7384919 81.868456,5.0264608 78.444024,6.7734756 76.268626,7.8832813 72.58596,9.3036734 70.260322,9.9299025 67.934685,10.556132 64.787215,12.140459 63.265945,13.45063 60.500588,15.832252 60.500096,15.835063 60.951466,26.666379 61.199772,32.624871 61.424772,39.975 61.451466,43 l 0.04853,5.5 -8,0.05241 c -4.4,0.02883 -9.575,0.398432 -11.5,0.821347 -2.410501,0.529578 -4.008941,0.357621 -5.134966,-0.55241 z"
       style="fill:#fdfcf9" />
    <path
       id="path6566"
       d="m 85.5,213.47391 c -2.2,-1.35501 -4.91824,-2.46597 -6.040534,-2.46879 -1.122294,-0.003 -6.20552,-1.35512 -11.296059,-3.00512 -5.090539,-1.65 -10.177832,-3 -11.305095,-3 -1.127264,0 -3.40167,-0.96278 -5.054235,-2.13951 -1.886374,-1.34322 -5.307028,-2.37781 -9.190745,-2.77979 -4.156819,-0.43025 -7.293208,-1.42863 -9.561084,-3.0435 -2.300386,-1.63802 -5.313645,-2.58374 -9.463624,-2.9702 -6.767996,-0.63027 -11.621758,-3.37025 -19.2298143,-10.85538 L 0,178.92323 V 159.32186 C 0,142.57322 0.23101752,139.55156 1.587339,138.55979 3.8440374,136.90966 3.8973426,128.12932 1.660591,126.49377 0.20599403,125.43014 0,122.71918 0,104.63976 0,84.527705 0.67384539,80.38175 2.9637608,86.404684 4.5980656,90.703231 5.8932554,119.83162 5.7915173,150 c -0.054716,16.225 0.1997069,30.43239 0.5653847,31.57198 0.3656778,1.13958 2.5724703,3.11894 4.903983,4.39856 2.331513,1.27963 4.97971,2.96204 5.884881,3.73868 0.905172,0.77665 4.641071,1.83628 8.301998,2.35473 3.660928,0.51845 8.766752,2.06616 11.346277,3.43935 2.579525,1.37318 6.043626,2.50658 7.698002,2.51866 1.654377,0.0121 4.810351,0.84078 7.013277,1.84156 2.202925,1.00078 6.477925,2.41187 9.5,3.13575 3.022074,0.72388 6.950843,1.92357 8.730597,2.66598 1.779754,0.7424 5.558909,1.84801 8.398122,2.45692 2.839212,0.6089 7.458049,2.17611 10.264082,3.48269 6.263582,2.91653 12.396409,3.05077 17.620399,0.38569 2.16636,-1.10519 6.98593,-2.69112 10.71016,-3.52428 3.72423,-0.83316 8.34632,-2.14878 10.27132,-2.92361 1.925,-0.77483 5.27907,-1.70148 7.45349,-2.05921 2.17441,-0.35773 5.54941,-1.45097 7.5,-2.42941 1.95058,-0.97845 6.02151,-2.08797 9.04651,-2.46561 3.025,-0.37763 7.60463,-1.77666 10.17695,-3.10895 2.57233,-1.33228 7.79072,-3.07158 11.59643,-3.86509 7.04417,-1.46875 18.13265,-7.45771 18.32067,-9.89512 0.0517,-0.6706 0.25026,-4.14427 0.44118,-7.71927 0.19091,-3.575 1.02702,-17.77327 1.85802,-31.5517 1.03109,-17.09607 1.21779,-27.09948 0.58792,-31.5 -0.87919,-6.1423 0.24881,-43.999836 1.54923,-51.995222 1.54392,-9.492424 2.8388,-15.063222 3.61246,-15.541367 0.47142,-0.29136 0.85025,6.134313 0.84183,14.279272 -0.008,8.144959 -0.36444,14.259534 -0.79114,13.587943 -1.33452,-2.100401 -4.26909,31.648434 -3.14954,36.221074 1.24751,5.0953 1.24146,17.501 -0.019,39 -0.54819,9.35 -1.00307,20.69133 -1.01084,25.20295 -0.008,4.51162 -0.52773,9.3302 -1.15548,10.70795 -0.62775,1.37776 -3.70397,4.26361 -6.83605,6.413 -4.61845,3.16942 -6.92344,4.03958 -12.19638,4.60426 -4.03839,0.43248 -7.76402,1.52516 -9.83352,2.88406 -6.49544,4.26511 -7.54598,4.65851 -12.49269,4.67816 -3.53906,0.0141 -6.16876,0.73972 -9,2.48353 -2.35616,1.4512 -5.55747,2.4765 -7.78984,2.49488 -2.08441,0.0172 -5.45941,0.87208 -7.5,1.8998 -2.04059,1.02773 -5.96016,2.19517 -8.71016,2.59431 -2.75,0.39914 -7.29342,1.80828 -10.09649,3.13141 -7.27045,3.43186 -18.225665,3.37668 -23.90351,-0.1204 z m 7.514365,-44.70853 C 90.671121,163.46809 89.140816,162.04184 82,158.5 78.975,156.9996 75.663861,155.0358 74.641914,154.136 72.100717,151.89854 68,143.59589 68,140.68823 c 0,-4.64835 6.167588,-7.27446 11.004698,-4.68572 1.030268,0.55139 3.053262,3.17065 4.495542,5.8206 3.213995,5.90517 7.419693,8.56151 13.555161,8.56151 5.613149,0 9.966359,-2.80336 12.436499,-8.00879 4.02706,-8.48641 -2.64998,-15.90832 -19.653406,-21.84587 -2.997877,-1.04685 -6.97899,-3.84087 -11.155127,-7.82887 -5.648097,-5.39366 -6.63481,-6.88469 -7.577939,-11.45109 -1.673751,-8.103901 3.67e-4,-14.171031 5.243922,-19.004371 2.315982,-2.134797 6.507105,-5.131214 9.313608,-6.658705 C 90.707168,72.841521 93,69.810351 93,65.887206 93,62.529536 94.918129,60 97.464225,60 c 2.030014,0 2.627875,0.804988 3.933535,5.296297 1.70501,5.865034 3.44904,7.80341 11.74876,13.05796 5.70209,3.609993 9.25211,8.062083 10.8381,13.592109 1.27122,4.432497 -1.49451,7.508179 -6.75155,7.508179 -5.07268,0 -6.99983,-1.642642 -8.38611,-7.14806 -1.91382,-7.60047 -9.981223,-11.356896 -16.808324,-7.826465 -6.3685,3.29328 -8.828869,10.49674 -5.831852,17.07448 1.509782,3.31361 9.109788,8.16358 18.470336,11.7869 17.50681,6.77661 24.60043,20.89253 17.63552,35.09371 -2.44438,4.984 -3.40809,5.86753 -10.65897,9.77215 -6.93462,3.73432 -8.31106,4.94185 -10.58105,9.28259 -3.451993,6.60101 -5.555273,6.93393 -8.058255,1.27553 z m 6.87946,-4.25826 c 1.780195,-4.02443 2.801655,-4.88836 9.796795,-8.28587 6.54768,-3.1802 8.12332,-4.43345 9.75253,-7.75712 2.57827,-5.25982 2.72343,-15.62646 0.28726,-20.5153 -2.38501,-4.78619 -10.27786,-10.48578 -18.05736,-13.03961 -7.021141,-2.30488 -15.444612,-8.08731 -17.394485,-11.94073 -1.586492,-3.135296 -1.58243,-11.796106 0.0069,-14.647769 1.231211,-2.209146 7.849447,-7.425177 10.858171,-8.55765 1.632175,-0.614344 9.797754,3.116516 13.049714,5.962428 0.93133,0.815037 1.99391,2.897724 2.36129,4.628193 C 111.36886,94.188986 113.70291,97 116.0732,97 c 5.20149,0 6.14102,-2.754382 3.15058,-9.236442 -1.26481,-2.741581 -3.85385,-5.137912 -9.72378,-9 -8.21355,-5.404061 -8.51377,-5.825075 -11.181897,-15.680775 -0.629078,-2.323729 -2.370386,0.203721 -3.449609,5.00699 -1.21312,5.399201 -2.114092,6.485696 -7.80568,9.412978 C 74.496885,83.965626 70.081032,93.863275 75.25,103.97988 c 3.055408,5.97998 12.419165,13.9337 17.836982,15.151 6.922248,1.55532 16.491998,8.36797 18.983138,13.51396 2.43438,5.02877 2.11922,7.60083 -1.62456,13.25806 C 107.50695,150.34343 102.44933,153 96.933954,153 89.442192,153 84.341058,149.46559 79.79651,141.12602 78.458523,138.67072 77.432624,138 75.015126,138 c -4.206193,0 -4.663731,1.97426 -1.986334,8.57094 2.142566,5.27894 2.620389,5.73331 9.861438,9.37731 8.330327,4.19218 10.5063,6.14236 11.494513,10.30175 0.966811,4.06931 3.258824,3.3442 5.509082,-1.74288 z M 33.837047,49.837047 C 31.694194,47.694194 31.5943,45.932407 33.140006,37.543561 35.150256,26.633542 31.228287,22.837883 21.703542,26.475417 19.377936,27.363574 14.555755,28.760554 10.987584,29.579816 7.4194127,30.399079 3.4875,31.331233 2.25,31.65127 0.47623973,32.109991 0,31.812504 0,30.245788 c 0,-1.737015 0.91329574,-2.074214 7.25,-2.676785 5.052876,-0.480489 8.980133,-1.580327 12.959037,-3.629211 7.055423,-3.633096 11.053253,-3.768411 14.336418,-0.485247 2.872436,2.872437 3.224571,8.064934 1.09039,16.078616 -2.256763,8.473963 1.04465,12.047508 8.773546,9.496743 1.933583,-0.63814 6.569982,-1.018426 10.303107,-0.845079 L 61.5,48.5 61.451466,43 c -0.02669,-3.025 -0.251694,-10.375129 -0.5,-16.333621 -0.45137,-10.831316 -0.450878,-10.834127 2.314479,-13.215749 1.52127,-1.310171 4.66874,-2.894498 6.994377,-3.5207275 2.325638,-0.6262291 6.008304,-2.0466212 8.183702,-3.1564269 3.424432,-1.7470148 6.042291,-2.0349837 19.505624,-2.145652 L 113.5,4.5 l 8,3.4117997 c 4.4,1.8764898 9.125,4.4755583 10.5,5.7757073 2.48757,2.352157 2.49833,2.440252 2.16438,17.721529 C 133.74328,50.678618 133.16442,50 150.02251,50 c 7.67138,0 11.98236,-0.404866 12.77749,-1.2 1.50483,-1.504825 1.51722,-4.643787 0.0464,-11.764545 -1.34686,-6.520833 -0.48641,-12.622591 1.96499,-13.934542 0.94896,-0.507867 3.3277,-1.22399 5.28608,-1.591386 2.9736,-0.55785 4.09252,-0.220496 6.78612,2.046013 2.42583,2.041202 4.76126,2.878197 9.42088,3.376339 8.39213,0.897172 13.66588,4.295858 13.6831,8.818121 0.0167,4.394624 -1.31506,4.087885 -4.90484,-1.129679 C 191.72331,29.7375 190.43498,29 185.2647,29 c -1.96444,0 -6.07591,-1.184675 -9.1366,-2.632611 -5.05727,-2.392472 -5.79581,-2.502429 -8.09649,-1.205447 -2.28097,1.285867 -2.52458,2.016778 -2.46058,7.38261 0.0391,3.275497 0.43036,8.039155 0.86954,10.585909 0.69129,4.008722 0.51392,4.915054 -1.32103,6.75 C 163.16879,51.831212 161.92132,52 149.45455,52 136.20346,52 135.85264,51.94355 133.31133,49.402236 l -2.59777,-2.597764 0.53902,-14.39985 c 0.62777,-16.770932 0.0243,-18.328107 -8.05752,-20.789985 -2.58228,-0.786617 -6.44531,-2.1789653 -8.5845,-3.0941077 C 111.73198,7.2890787 107.70354,6.855069 99.110557,6.8506121 88.811133,6.8452701 86.427204,7.1958795 78,9.955386 c -11.324513,3.708237 -13.704995,4.83346 -14.475978,6.842611 -0.32013,0.834243 -0.06771,8.241118 0.560933,16.45972 1.02134,13.352568 0.972424,15.113475 -0.459619,16.545518 -1.292562,1.292562 -4.151329,1.628553 -14.776923,1.736732 -11.561255,0.117705 -13.399247,-0.0908 -15.011366,-1.70292 z"
       style="fill:#fcebd0" />
    <path
       id="path6564"
       d="m 88.398121,211.60486 c -2.806033,-1.30658 -7.42487,-2.87379 -10.264082,-3.48269 -2.839213,-0.60891 -6.618368,-1.71452 -8.398122,-2.45692 -1.779754,-0.74241 -5.708523,-1.9421 -8.730597,-2.66598 -3.022075,-0.72388 -7.297075,-2.13497 -9.5,-3.13575 -2.202926,-1.00078 -5.3589,-1.82948 -7.013277,-1.84156 -1.654376,-0.0121 -5.118477,-1.14548 -7.698002,-2.51866 -2.579525,-1.37319 -7.685349,-2.9209 -11.346277,-3.43935 -3.660927,-0.51845 -7.396826,-1.57808 -8.301998,-2.35473 -0.905171,-0.77664 -3.553368,-2.45905 -5.884881,-3.73868 C 8.9293723,184.69092 6.7565663,182.80837 6.4324276,181.7871 6.1082889,180.76583 5.6794745,161.83344 5.4795068,139.71512 5.1023143,97.994076 4.2834311,86.411636 1.5706869,84.428029 0.2144236,83.436305 0,79.809539 0,57.861391 V 32.443268 L 5.7994794,30.721634 C 8.9891931,29.774735 12.347312,29 13.261967,29 c 0.914654,0 4.1497,-0.930391 7.18899,-2.067535 10.877854,-4.069927 14.791158,-0.797463 12.689049,10.611096 -1.545706,8.388846 -1.445812,10.150633 0.697041,12.293486 1.612119,1.612119 3.450111,1.820625 15.011366,1.70292 10.625594,-0.108179 13.484361,-0.44417 14.776923,-1.736732 1.432043,-1.432043 1.480959,-3.19295 0.459619,-16.545518 C 63.456312,25.039115 63.203892,17.63224 63.524022,16.797997 64.295005,14.788846 66.675487,13.663623 78,9.955386 86.427204,7.1958795 88.811133,6.8452701 99.110557,6.8506121 c 8.592983,0.00446 12.621423,0.4384666 15.500003,1.6699172 2.13919,0.9151424 6.00222,2.3074907 8.5845,3.0941077 8.08178,2.461878 8.68529,4.019053 8.05752,20.789985 l -0.53902,14.39985 2.59777,2.597764 C 135.85264,51.943546 136.20346,52 149.45455,52 c 12.46677,0 13.71424,-0.168788 15.66499,-2.119539 1.83495,-1.834946 2.01232,-2.741278 1.32103,-6.75 -0.43918,-2.546754 -0.83047,-7.310412 -0.86954,-10.585909 -0.064,-5.365832 0.17961,-6.096743 2.46058,-7.38261 2.30068,-1.296982 3.03922,-1.187025 8.09649,1.205447 C 179.38756,27.90936 183.43253,29 185.89195,29 c 4.3484,0 4.73465,0.273093 11.35805,8.03055 2.79753,3.276522 3.43563,5.427674 1.89286,6.381161 -0.77366,0.478145 -2.06854,6.048943 -3.61246,15.541367 -1.30042,7.995386 -2.42842,45.852922 -1.54923,51.995222 0.62987,4.40052 0.44317,14.40393 -0.58792,31.5 -0.831,13.77843 -1.66711,27.9767 -1.85802,31.5517 -0.19092,3.575 -0.38945,7.04867 -0.44118,7.71927 -0.18802,2.43741 -11.2765,8.42637 -18.32067,9.89512 -3.80571,0.79351 -9.0241,2.53281 -11.59643,3.86509 -2.57232,1.33229 -7.15195,2.73132 -10.17695,3.10895 -3.025,0.37764 -7.09593,1.48716 -9.04651,2.46561 -1.95059,0.97844 -5.32559,2.07168 -7.5,2.42941 -2.17442,0.35773 -5.52849,1.28438 -7.45349,2.05921 -1.925,0.77483 -6.54709,2.09045 -10.27132,2.92361 -3.72423,0.83316 -8.5438,2.41909 -10.71016,3.52428 -5.22399,2.66508 -11.356817,2.53084 -17.620399,-0.38569 z m 17.385119,-1.96851 c 2.59422,-1.3 6.51676,-2.68041 8.71676,-3.06757 2.2,-0.38716 7.6,-1.82126 12,-3.18688 4.4,-1.36563 10.7,-3.32075 14,-4.34473 3.3,-1.02398 8.00422,-2.14622 10.45382,-2.49388 2.44961,-0.34766 5.90392,-1.52832 7.67626,-2.62368 1.77234,-1.09537 6.29312,-2.59787 10.04618,-3.33889 8.1037,-1.60004 9.41272,-2.08882 15.42449,-5.75948 l 4.60074,-2.80912 0.67972,-14.25606 c 0.37384,-7.84083 1.09723,-20.33106 1.60754,-27.75606 0.5103,-7.425 1.13452,-33.525 1.38715,-58 0.54047,-52.362742 0.84667,-50.366919 -7.89492,-51.45911 -3.14776,-0.393286 -7.47662,-1.333711 -9.6197,-2.089833 -2.14308,-0.756123 -4.55134,-1.123486 -5.35169,-0.816362 -2.05722,0.789428 -2.87386,6.390386 -1.60045,10.97667 1.77536,6.394084 1.38138,11.815991 -1.01612,13.983647 -1.90889,1.725894 -3.48361,1.874037 -16.75,1.575764 C 141.64504,53.979713 134.45086,53.34458 133,52.657319 129.20489,50.8596 128.31772,46.23698 129.03548,32 c 0.73879,-14.65403 0.15471,-16.333005 -6.28144,-18.056376 -2.33972,-0.626494 -6.43088,-2.090453 -9.09147,-3.253241 -6.38958,-2.7925114 -24.394241,-3.0758206 -29.261512,-0.460439 -1.704418,0.915852 -5.304418,2.177831 -8,2.804397 -11.417111,2.653813 -11.989787,3.368925 -10.502467,13.114645 0.533085,3.493058 1.274687,10.258264 1.648005,15.033791 0.664315,8.498012 0.621596,8.73994 -2.00753,11.369066 -2.498762,2.498762 -3.047646,2.629359 -7.862677,1.870775 -2.847014,-0.448533 -9.246427,-0.69261 -14.220917,-0.542393 -13.653209,0.412292 -15.381038,-1.775718 -13.042741,-16.516483 0.725949,-4.576427 0.573011,-5.378 -1.403155,-7.354166 -1.76488,-1.76488 -2.860476,-2.07468 -5.363743,-1.516696 -1.730208,0.385668 -6.035967,1.276604 -9.568353,1.979859 -3.807379,0.758003 -6.9479154,1.997167 -7.7128388,3.043262 C 4.9207858,35.490591 5.1062779,54.225336 6.9189368,89.5 c 0.5652569,11 0.9994013,36.13716 0.9647652,55.86036 -0.034636,19.7232 0.3148617,36.22763 0.7766617,36.6765 2.4783303,2.40894 14.7169863,7.8913 18.9486483,8.48812 2.690043,0.37939 7.365988,1.71648 10.390988,2.9713 3.025,1.25483 10.9,3.73781 17.5,5.51774 6.6,1.77993 12.71995,3.60961 13.599889,4.06596 0.879939,0.45634 5.053973,1.75534 9.275632,2.88666 4.221658,1.13132 9.345044,2.95164 11.385301,4.04516 4.918013,2.63589 10.263108,2.51064 16.022418,-0.37545 z M 92.625432,174.48257 C 91.731444,173.58859 91,171.85029 91,170.6197 c 0,-3.34685 -1.830021,-5.1227 -9,-8.73358 -8.438928,-4.24994 -10.468012,-6.12536 -14.586942,-13.48222 -5.698096,-10.17743 -3.9973,-15.31544 5.326811,-16.09198 6.39477,-0.53257 9.093302,1.10074 13.151757,7.96023 2.758531,4.66239 4.107508,5.94691 7.226761,6.88147 5.297126,1.58705 9.767253,0.13981 12.613503,-4.08374 4.27968,-6.35061 2.63197,-10.60164 -5.906491,-15.23849 -3.47897,-1.88927 -8.157836,-3.96829 -10.397481,-4.62005 -8.618727,-2.50813 -18.637217,-11.80967 -20.889774,-19.39485 -1.915022,-6.448577 -1.926738,-9.14495 -0.06695,-15.407535 1.566157,-5.273821 6.31197,-9.765538 15.158393,-14.346794 5.654285,-2.928158 7.216775,-4.916434 8.262535,-10.514113 0.49315,-2.639703 1.506665,-5.186001 2.252257,-5.658441 3.742175,-2.371208 8.496521,0.595785 9.436811,5.889135 0.78589,4.424082 4.10515,8.297222 10.91881,12.740785 5.96914,3.89281 8.57618,6.63048 11.39468,11.965664 3.76978,7.13588 2.41064,11.816959 -3.9265,13.523379 -8.42841,2.26953 -14.109,-0.9997 -15.65323,-9.00857 -0.71811,-3.724358 -1.47674,-4.828544 -4.4013,-6.406098 -4.403992,-2.375585 -8.033182,-1.628216 -12.166979,2.505581 -2.612645,2.612645 -2.92774,3.51388 -2.456612,7.026404 0.828889,6.179823 1.224556,6.481993 19.933541,15.223053 14.2937,6.67819 20.7764,15.12562 20.7764,27.07316 0,5.54034 -0.48176,7.3068 -3.29662,12.08754 -2.86193,4.86067 -4.34537,6.16727 -11.25,9.90885 -5.10726,2.76759 -8.40069,5.25312 -9.20338,6.9457 -0.6875,1.4497 -1.82654,3.87331 -2.5312,5.38581 -1.55036,3.32774 -6.546316,4.27963 -9.093368,1.73257 z m 8.447188,-6.99272 c 2.26999,-4.34074 3.64643,-5.54827 10.58105,-9.28259 7.25088,-3.90462 8.21459,-4.78815 10.65897,-9.77215 6.96491,-14.20118 -0.12871,-28.3171 -17.63552,-35.09371 -9.360548,-3.62332 -16.960554,-8.47329 -18.470336,-11.7869 -2.997017,-6.57774 -0.536648,-13.7812 5.831852,-17.07448 6.827101,-3.530431 14.894504,0.225995 16.808324,7.826465 1.38628,5.505418 3.31343,7.14806 8.38611,7.14806 5.25704,0 8.02277,-3.075682 6.75155,-7.508179 -1.58599,-5.530026 -5.13601,-9.982116 -10.8381,-13.592109 -8.29972,-5.25455 -10.04375,-7.192926 -11.74876,-13.05796 C 100.0921,60.804988 99.494239,60 97.464225,60 94.918129,60 93,62.529536 93,65.887206 c 0,3.923145 -2.292832,6.954315 -7.337042,9.699718 -2.806503,1.527491 -6.997626,4.523908 -9.313608,6.658705 -5.243555,4.83334 -6.917673,10.90047 -5.243922,19.004371 0.943129,4.5664 1.929842,6.05743 7.577939,11.45109 4.176137,3.988 8.15725,6.78202 11.155127,7.82887 17.003426,5.93755 23.680466,13.35946 19.653406,21.84587 -2.47014,5.20543 -6.82335,8.00879 -12.436499,8.00879 -6.135468,0 -10.341166,-2.65634 -13.555161,-8.56151 -1.44228,-2.64995 -3.465274,-5.26921 -4.495542,-5.8206 C 74.167588,133.41377 68,136.03988 68,140.68823 c 0,2.90766 4.100717,11.21031 6.641914,13.44777 1.021947,0.8998 4.333086,2.8636 7.358086,4.364 7.140816,3.54184 8.671121,4.96809 11.014365,10.26538 2.502982,5.6584 4.606262,5.32548 8.058255,-1.27553 z"
       style="fill:#fbd89f" />
    <path
       id="path6562"
       d="m 101.98389,208.51189 c 1.85484,-1.36846 4.97977,-2.73957 6.94427,-3.0469 1.96451,-0.30734 5.03321,-0.78286 6.81933,-1.05673 1.78612,-0.27387 5.61112,-1.59867 8.5,-2.944 2.88888,-1.34534 6.82751,-2.72187 8.75251,-3.05897 1.925,-0.3371 5.42823,-1.2412 7.78495,-2.0091 2.35672,-0.7679 5.65159,-1.39619 7.32193,-1.39619 1.67034,0 4.91711,-1.09504 7.21505,-2.43343 2.55881,-1.49033 6.69722,-2.71384 10.67807,-3.15696 4.57649,-0.50943 8.42351,-1.77018 13,-4.26038 7.33158,-3.98932 8.1232,-4.80497 7.41589,-7.64092 -0.49891,-2.00042 0.80351,-25.5359 2.51837,-45.50831 0.49585,-5.775 1.03427,-25.8 1.19649,-44.5 0.3739,-43.103244 -0.14518,-44.670273 -8.06204,-24.338097 -2.28331,5.864047 -4.84458,11.237123 -5.6917,11.940168 -0.84712,0.703045 -2.86969,3.780189 -4.4946,6.838097 C 168.41163,88.471775 166.02708,92.493427 161.17422,100 156.69501,106.9286 143,133.76781 143,135.61748 c 0,1.82322 -3.82575,5.60825 -4.96001,4.90723 -0.48789,-0.30153 -1.67336,-2.90544 -2.63439,-5.78647 l -1.74732,-5.23824 -0.85515,3 c -0.47033,1.65 -0.57718,5.56239 -0.23743,8.6942 0.85829,7.91177 -0.11438,11.65442 -3.23223,12.43695 -2.23543,0.56106 -2.4384,0.99599 -1.8725,4.01248 0.66353,3.53693 1.01129,2.76148 -12.4927,27.85637 -2.36772,4.4 -6.25419,9.83145 -8.63661,12.06989 -2.38241,2.23844 -4.33166,4.85893 -4.33166,5.82332 0,1.06474 -0.61742,1.62645 -1.57195,1.43011 -1.28614,-0.26453 -1.585711,-2.00858 -1.647657,-9.59233 -0.04164,-5.09795 0.215735,-9.56045 0.571948,-9.91666 C 100.41366,184.253 100.0865,181 98.918441,181 c -0.594858,0 -0.186024,-1.4625 0.908519,-3.25 1.09454,-1.7875 2.50031,-5.16889 3.12393,-7.5142 1.1993,-4.51038 3.82972,-6.72602 13.64852,-11.49636 3.55061,-1.72502 5.36579,-3.54977 7.99689,-8.03907 2.92389,-4.98886 3.4037,-6.72094 3.4037,-12.28719 0,-11.88654 -5.89034,-19.61308 -20.90857,-27.42642 -4.48756,-2.33469 -8.609792,-5.08681 -9.160504,-6.11583 C 97.039306,103.20493 97.321851,103 100.51051,103 h 3.58087 l -0.29569,-6.740505 C 103.51604,89.884584 103.33729,89.439397 100.5,88.051518 98.116669,86.885694 97.86983,86.507 99.299169,86.20923 c 3.344571,-0.696765 6.408871,2.358198 7.119641,7.097936 1.12211,7.482744 7.25204,10.935644 15.48051,8.719944 6.40669,-1.72514 7.77963,-6.378613 3.99536,-13.541919 -2.8185,-5.335184 -5.42554,-8.072854 -11.39468,-11.965664 -6.66503,-4.346638 -10.09816,-8.283576 -10.88586,-12.48335 -0.35732,-1.905103 -1.85087,-4.717603 -3.319,-6.25 C 97.658095,55.033691 97.652814,55 99.858363,55 c 1.227897,0 3.370087,1.137545 4.760427,2.527878 1.95263,1.952632 2.38854,3.162257 1.91558,5.315615 -0.84917,3.866269 2.02729,7.212688 10.55398,12.278303 3.82125,2.270165 7.19117,4.521465 7.48871,5.002889 1.17638,1.903419 3.34786,0.693775 5.09058,-2.835753 2.26604,-4.589407 8.70319,-8.498052 19.76777,-12.003029 4.43553,-1.40506 8.41272,-2.864818 8.83822,-3.243907 0.42549,-0.37909 -0.17486,-1.547619 -1.33411,-2.596733 -1.71079,-1.548239 -4.21065,-2.013053 -13.27363,-2.468045 -11.79664,-0.592231 -15.10517,-1.635173 -16.20776,-5.109147 -0.37253,-1.173728 -0.66347,-9.287068 -0.64654,-18.029645 0.0301,-15.52973 -0.0225,-15.930512 -2.28451,-17.412639 -1.34455,-0.880981 -3.3074,-1.268044 -4.6815,-0.923165 -1.55241,0.38963 -4.08228,-0.325265 -7.35589,-2.078638 C 109.74536,11.954099 105.25,10.413527 102.5,10.000489 l -5,-0.7509774 6.22325,-0.1247558 c 4.19818,-0.08416 7.61492,0.4975878 10.5,1.7877732 2.35221,1.051891 6.19107,2.420499 8.53079,3.041353 6.43608,1.707834 7.0205,3.38681 6.28144,18.046118 -0.71776,14.23698 0.16941,18.8596 3.96452,20.657319 1.45086,0.687261 8.64504,1.322394 17.14302,1.513457 13.26639,0.298273 14.84111,0.15013 16.75,-1.575764 2.36937,-2.142223 2.81204,-7.703663 1.08265,-13.601614 -1.24199,-4.235682 -0.35252,-10.634811 1.58138,-11.376916 0.77425,-0.297106 3.16115,0.07845 5.30423,0.834575 2.14308,0.756122 6.47309,1.696691 9.62225,2.090152 8.57447,1.071309 8.7997,1.941736 7.975,30.819499 C 192.09508,74.087319 191.82862,93.95 191.86639,105.5 c 0.0381,11.64765 -0.57125,27.2349 -1.36823,35 -0.7903,7.7 -1.74302,20.1651 -2.11716,27.70022 l -0.68026,13.70022 -5.97903,3.69047 c -3.93665,2.42984 -8.35143,4.14251 -12.92412,5.0138 -3.81979,0.72783 -8.39517,2.21953 -10.16751,3.3149 -1.77234,1.09536 -5.22665,2.27602 -7.67626,2.62368 -2.4496,0.34766 -7.15382,1.4699 -10.45382,2.49388 -3.3,1.02398 -9.6,2.9791 -14,4.34473 -4.4,1.36562 -9.8,2.7992 -12,3.18573 -2.2,0.38653 -5.66957,1.54193 -7.71016,2.56757 -2.04059,1.02564 -4.71552,1.8648 -5.94428,1.8648 -2.007154,0 -1.891511,-0.25277 1.13833,-2.48811 z M 113,169 c 0,-2.32505 -3.13386,-2.74856 -4.86888,-0.65799 C 106.73088,170.0292 107.65695,171 110.66667,171 112.33333,171 113,170.42857 113,169 Z m 4,-60.39301 C 117,107.07797 114.89871,106 111.91821,106 c -2.12652,0 -2.63579,2.54378 -0.66821,3.33772 2.56872,1.0365 5.75,0.63221 5.75,-0.73073 z M 135.53513,95.943165 C 136.40642,94.533385 135.22091,90 133.98095,90 133.44143,90 133,91.575 133,93.5 c 0,3.406579 1.21565,4.578128 2.53513,2.443165 z M 178.84731,45.84492 c 2.14093,-2.290798 3.79366,-3.131056 6.03331,-3.067377 1.69654,0.04824 3.33032,-0.309831 3.63061,-0.795706 1.11179,-1.798922 0.78035,-8.183594 -0.46477,-8.953124 -0.70635,-0.436549 -4.44374,-1.105052 -8.30531,-1.485561 -9.75844,-0.961572 -10.54548,-0.09296 -8.24751,9.102256 2.48321,9.936411 2.75021,10.125198 7.35367,5.199512 z M 98.25,146.35622 C 96.583667,145.65918 96.540958,131.85904 98.2,130.2 c 3.05762,-3.05762 8.55027,0.32721 9.41181,5.8 0.95313,6.05459 -4.69875,12.30681 -9.36181,10.35622 z m 5.47708,-6.91009 c 2.01213,-4.21949 0.89886,-6.94613 -2.83607,-6.94613 -2.534397,0 -2.635785,0.56162 -1.308811,7.25 0.833281,4.20001 2.039291,4.1116 4.144881,-0.30387 z M 97,97.5 c 0,-0.825 0.45,-1.5 1,-1.5 0.55,0 1,0.675 1,1.5 0,0.825 -0.45,1.5 -1,1.5 -0.55,0 -1,-0.675 -1,-1.5 z"
       style="fill:#fbcd59" />
    <path
       id="path6560"
       d="m 89.760822,210.0118 c -2.040257,-1.09352 -7.163643,-2.91384 -11.385301,-4.04516 -4.221659,-1.13132 -8.395693,-2.43032 -9.275632,-2.88666 C 68.21995,202.62363 62.1,200.79395 55.5,199.01402 48.9,197.23409 41.025,194.75111 38,193.49628 34.975,192.24146 30.299055,190.90437 27.609012,190.52498 23.37735,189.92816 11.138694,184.4458 8.6603637,182.03686 8.1985637,181.58799 7.8490659,165.08356 7.883702,145.36036 7.9183381,125.63716 7.4841937,100.5 6.9189368,89.5 5.1062779,54.225336 4.9207858,35.490591 6.3646412,33.516001 7.1295646,32.469906 10.270101,31.230742 14.07748,30.472739 c 3.532386,-0.703255 7.838145,-1.594191 9.568353,-1.979859 2.503267,-0.557984 3.598863,-0.248184 5.363743,1.516696 1.976166,1.976166 2.129104,2.777739 1.403155,7.354166 -2.338297,14.740765 -0.610468,16.928775 13.042741,16.516483 4.97449,-0.150217 11.373903,0.09386 14.220917,0.542393 4.815031,0.758584 5.363915,0.627987 7.862677,-1.870775 2.629126,-2.629126 2.671845,-2.871054 2.00753,-11.369066 -0.373318,-4.775527 -1.11492,-11.540733 -1.648005,-15.033791 -1.48732,-9.74572 -0.914644,-10.460832 10.502467,-13.114645 2.695582,-0.626566 6.188831,-1.805144 7.762776,-2.619063 1.573945,-0.8139185 6.568469,-1.6750529 11.098942,-1.9136318 5.521044,-0.2907433 7.247994,-0.1542383 5.237224,0.4139722 -1.65,0.4662636 -4.8,0.9064141 -7,0.9781122 -2.2,0.071698 -5.875015,1.2025574 -8.166699,2.5130204 -2.291684,1.310463 -6.566684,2.706853 -9.5,3.103089 -7.474866,1.009715 -9.156861,2.065146 -8.492757,5.329101 5.578209,27.415939 5.812208,31.099216 2.204911,34.706514 -2.783196,2.783195 -7.893568,3.216623 -16.404613,1.39133 -5.958581,-1.277887 -12.57917,0.145205 -14.12654,3.036491 -1.262912,2.359773 -0.912194,2.575862 6.361946,3.919816 5.214873,0.963488 9.773889,3.226527 17.433342,8.653696 1.270274,0.900064 2.725582,2.730623 3.234018,4.067909 0.776077,2.041238 1.368308,2.322811 3.69041,1.754589 3.075503,-0.75258 18.347845,-9.249702 19.500669,-10.84965 0.404078,-0.5608 0.741578,-2.906619 0.75,-5.212932 0.01165,-3.188878 0.547669,-4.566173 2.237819,-5.75 2.739485,-1.91881 5.173367,-1.989558 6.663794,-0.193704 0.907559,1.093541 0.684647,1.286556 -1.127555,0.976327 -3.43601,-0.588208 -4.882887,0.94304 -5.866623,6.208721 -1.04576,5.597679 -2.60825,7.585955 -8.262535,10.514113 -8.846423,4.581256 -13.592236,9.072973 -15.158393,14.346794 -1.859788,6.262585 -1.848072,8.958958 0.06695,15.407535 2.308427,7.77332 12.242587,16.85304 21.42125,19.57881 2.529833,0.75128 6.019822,2.22959 7.755531,3.28514 2.992645,1.81994 3.055755,1.98168 1.220455,3.12784 -2.718491,1.69773 -2.86271,14.76729 -0.18538,16.79967 1.578,1.19788 1.45514,1.32714 -1.25,1.31514 -5.134743,-0.0228 -8.327787,-2.17066 -11.739087,-7.89665 -3.940848,-6.61486 -6.687264,-8.24201 -13.021044,-7.71452 -9.324111,0.77654 -11.024907,5.91455 -5.326811,16.09198 4.11893,7.35686 6.148014,9.23228 14.586942,13.48222 7.169979,3.61088 9,5.38673 9,8.73358 0,4.54315 6.544373,7.25391 9.97143,4.1303 0.75429,-0.6875 0.41673,0.325 -0.75012,2.25 -1.374173,2.267 -3.019846,3.61147 -4.671438,3.81642 -3.487831,0.43282 -3.36722,3.6827 0.200128,5.39249 2.659841,1.27483 2.75,1.57943 2.75,9.29087 0,6.58325 -0.284855,8.02769 -1.634376,8.28758 -1.059738,0.20409 -1.999258,-0.73195 -2.672166,-2.66225 -0.570784,-1.63735 -2.259209,-3.77731 -3.752056,-4.75546 -1.492846,-0.97815 -3.372118,-3.37398 -4.176159,-5.32405 -0.804041,-1.95008 -2.475232,-4.8956 -3.713758,-6.5456 -1.238526,-1.65 -3.204582,-5.025 -4.369012,-7.5 -1.164431,-2.475 -3.077752,-5.68131 -4.251826,-7.12512 -1.814,-2.23077 -1.952677,-2.9652 -0.923138,-4.88891 1.08203,-2.02179 0.879138,-2.52393 -1.897984,-4.69736 C 69.399286,158.95015 68,157.28038 68,156.578 c 0,-0.70237 -1.34198,-3.25725 -2.982178,-5.67752 -1.640198,-2.42026 -3.696951,-6.5247 -4.570562,-9.12096 -0.873611,-2.59626 -2.824333,-5.76046 -4.334938,-7.03155 -1.510604,-1.27109 -4.457957,-5.44688 -6.549671,-9.27952 C 47.470936,121.6358 44.537802,116.25 43.044575,113.5 31.584421,92.394415 26.505886,83.290063 25.473436,82 24.81318,81.175 21.691149,75.55 18.535589,69.5 11.5828,56.169762 10.963094,55.314564 9.7835976,57.422206 9.1804908,58.499898 9.3424401,167.5757 9.9673926,181.21146 c 0.017934,0.3913 1.8418494,1.19863 4.0531454,1.79407 2.211296,0.59544 5.558868,2.12656 7.439048,3.40248 2.184019,1.48212 5.697519,2.57334 9.729462,3.02178 3.471024,0.38606 7.415864,1.41821 8.766311,2.29367 1.350448,0.87547 8.194905,3.07748 15.209904,4.89337 7.014999,1.81589 14.460087,4.16788 16.54464,5.22665 2.084554,1.05877 6.490097,2.47273 9.790097,3.14213 3.3,0.66941 7.403115,2.07149 9.118034,3.11575 1.714919,1.04425 4.189919,1.93027 5.5,1.96893 C 97.428115,210.10894 99.4,210.52731 100.5,211 c 1.52441,0.65506 0.92641,0.87614 -2.514809,0.92971 -2.714918,0.0423 -5.993676,-0.72234 -8.224369,-1.91791 z M 87.755005,169.75 C 87.278325,168.30257 83,167.41522 83,168.76378 83,170.19184 84.174543,171 86.25,171 c 1.086219,0 1.738303,-0.5416 1.505005,-1.25 z m 4.40497,-33.99003 C 90.884364,134.48436 89,135.6593 89,137.73028 c 0,0.88673 0.7875,2.48841 1.75,3.55928 1.709831,1.90234 1.757411,1.87254 2.072842,-1.29842 0.177564,-1.785 -0.120727,-3.68902 -0.662867,-4.23117 z M 85.5,127 c -0.339919,-0.55 -1.266476,-1 -2.059017,-1 C 82.648442,126 82,126.45 82,127 c 0,0.55 0.926558,1 2.059017,1 1.132459,0 1.780902,-0.45 1.440983,-1 z M 25.569043,49.888286 c 1.329059,-2.150463 2.276664,-15.308069 1.241748,-17.241826 -0.899752,-1.681203 -1.767313,-1.810628 -8.012169,-1.195275 -3.851738,0.37954 -7.632139,0.931435 -8.400891,1.226433 -2.0884331,0.801407 -1.6860555,5.077824 0.665456,7.072382 1.134752,0.9625 4.270891,3.8875 6.969197,6.5 5.072228,4.910932 6.364552,5.534795 7.536659,3.638286 z M 182,185.57037 c 0,-0.275 0.9,-0.98167 2,-1.57037 1.1,-0.5887 2,-0.84537 2,-0.57037 0,0.275 -0.9,0.98167 -2,1.57037 -1.1,0.5887 -2,0.84537 -2,0.57037 z m 6.19011,-14.86126 c 1.12481,-19.38798 1.62364,-21.55241 1.08528,-4.70911 -0.27249,8.525 -0.78752,15.8191 -1.14452,16.20911 -0.357,0.39001 -0.33034,-4.78499 0.0592,-11.5 z M 190.27236,144 c 0,-2.475 0.19502,-3.4875 0.43337,-2.25 0.23836,1.2375 0.23836,3.2625 0,4.5 -0.23835,1.2375 -0.43337,0.225 -0.43337,-2.25 z m 0.80659,-11.58333 c 0.048,-1.16495 0.28494,-1.4019 0.60416,-0.60417 0.28887,0.72187 0.25335,1.58437 -0.0789,1.91667 -0.3323,0.33229 -0.56864,-0.25834 -0.52522,-1.3125 z M 93.488563,104.73999 C 87.798824,101.02176 85.702616,96.142863 87.808775,91.520349 89.223504,88.415356 94.632041,84.988281 98,85.062763 c 2.10759,0.04661 1.799371,0.399194 -1.963599,2.246262 -5.895397,2.893779 -7.848064,6.24214 -5.933374,10.174331 1.844207,3.787444 3.509085,4.198244 4.296686,1.060198 0.872898,-3.477903 2.979215,-3.306121 2.311178,0.188489 -0.557895,2.918437 1.420889,7.754867 3.518069,8.598667 0.88865,0.35754 0.81632,0.53515 -0.240397,0.59034 -0.831291,0.0434 -3.756291,-1.38805 -6.5,-3.18106 z M 191.27236,102 c 0,-2.475 0.19502,-3.4875 0.43337,-2.25 0.23836,1.2375 0.23836,3.2625 0,4.5 -0.23835,1.2375 -0.43337,0.225 -0.43337,-2.25 z"
       style="fill:#fbb86a" />
    <path
       id="path6558"
       d="m 90.641331,208.10214 c -1.572267,-1.03658 -5.611199,-2.42622 -8.975402,-3.08808 -3.364204,-0.66187 -7.833346,-2.07915 -9.931428,-3.14951 -2.098082,-1.07036 -9.554239,-3.43183 -16.569238,-5.24772 -7.014999,-1.81589 -13.859456,-4.0179 -15.209904,-4.89337 -1.350447,-0.87546 -5.295287,-1.90761 -8.766311,-2.29367 -4.031943,-0.44844 -7.545443,-1.53966 -9.729462,-3.02178 -1.88018,-1.27592 -5.227752,-2.80704 -7.439048,-3.40248 -2.211296,-0.59544 -4.0352113,-1.40277 -4.0531454,-1.79407 C 9.3424401,167.5757 9.1804908,58.499898 9.7835976,57.422206 10.963094,55.314564 11.5828,56.169762 18.535589,69.5 c 3.15556,6.05 6.277591,11.675 6.937847,12.5 1.03245,1.290063 6.110985,10.394415 17.571139,31.5 1.493227,2.75 4.426361,8.1358 6.518076,11.96845 2.091714,3.83264 5.039067,8.00843 6.549671,9.27952 1.510605,1.27109 3.461327,4.43529 4.334938,7.03155 0.873611,2.59626 2.930364,6.7007 4.570562,9.12096 C 66.65802,153.32075 68,155.87563 68,156.578 c 0,0.70238 1.399286,2.37215 3.109525,3.71061 2.777122,2.17343 2.980014,2.67557 1.897984,4.69736 -1.029539,1.92371 -0.890862,2.65814 0.923138,4.88891 1.174074,1.44381 3.087395,4.65012 4.251826,7.12512 1.16443,2.475 3.130486,5.85 4.369012,7.5 1.238526,1.65 2.909717,4.59552 3.713758,6.5456 0.804041,1.95007 2.683313,4.3459 4.176159,5.32405 1.492847,0.97815 3.155483,3.04413 3.694748,4.59106 0.655484,1.88033 1.872685,2.99106 3.672166,3.35095 2.085994,0.4172 2.691684,1.11777 2.691684,3.11334 0,2.27745 -0.40444,2.57424 -3.5,2.56841 -1.925,-0.004 -4.786401,-0.8547 -6.358669,-1.89127 z m -1.85049,-6.23652 c 0.587316,-3.08377 -9.449729,-5.18649 -11.716955,-2.45465 -1.386789,1.67098 -0.400681,2.50371 4.338824,3.66397 4.443794,1.08787 7.021078,0.66544 7.378131,-1.20932 z m -20.32185,-6.81545 C 69.291041,193.72007 65.713371,192 62.124758,192 c -3.615905,0 -4.839613,1.4854 -2.39579,2.90813 2.240324,1.30426 7.96424,1.39729 8.740023,0.14204 z M 30.25,186.33772 c -0.6875,-0.27741 -1.8125,-0.27741 -2.5,0 -0.6875,0.27741 -0.125,0.50439 1.25,0.50439 1.375,0 1.9375,-0.22698 1.25,-0.50439 z m -13.781009,-6.28755 c 0.322864,-0.5224 -0.382807,-1.46886 -1.568157,-2.10324 -1.678584,-0.89835 -2.333608,-0.86472 -2.962025,0.15208 -0.443764,0.71802 -0.584978,1.66448 -0.313809,2.10324 0.685437,1.10906 4.131428,1.00087 4.843991,-0.15208 z m -2.006218,-49.85534 c -0.02048,-4.78216 -0.524118,-9.54622 -1.119208,-10.58681 -0.876793,-1.53318 -1.217959,-0.44089 -1.799012,5.75982 -0.849249,9.06274 0.05943,16.4309 1.809547,14.67289 0.691534,-0.69465 1.131139,-4.5987 1.108673,-9.8459 z M 95.25,185.91706 C 93.934471,185.41856 93,184.22042 93,183.03222 93,181.37635 93.648167,181 96.5,181 c 2.757249,0 3.5,0.39844 3.5,1.87756 0,2.71008 -2.090015,4.04747 -4.75,3.0395 z M 83.666667,170.33333 c -1.364716,-1.36471 -0.597466,-2.46225 1.505005,-2.15288 C 87.919774,168.58482 88.843452,171 86.25,171 c -1.054167,0 -2.216667,-0.3 -2.583333,-0.66667 z M 186.19495,164.5 c 0.0204,-1.65 0.2445,-2.20394 0.49804,-1.23097 0.25354,0.97297 0.23687,2.32297 -0.0371,3 -0.27393,0.67703 -0.48137,-0.11903 -0.46099,-1.76903 z M 90.75,141.28956 c -1.980189,-2.20315 -2.279776,-4.84411 -0.662868,-5.84341 1.775873,-1.09755 3.081269,1.07118 2.73571,4.54499 -0.315431,3.17096 -0.363011,3.20076 -2.072842,1.29842 z M 98,134.55902 c 0,-0.79254 0.408034,-1.69316 0.906741,-2.00138 0.498708,-0.30822 0.671224,0.34022 0.383369,1.44098 C 98.679497,136.33361 98,136.62877 98,134.55902 Z M 82,127 c 0,-0.55 0.648442,-1 1.440983,-1 0.792541,0 1.719098,0.45 2.059017,1 0.339919,0.55 -0.308524,1 -1.440983,1 C 82.926558,128 82,127.55 82,127 Z m 14.5,-25 c -0.700026,-1.13267 0.19778,-3 1.442386,-3 0.453393,0 1.059707,0.9 1.347363,2 0.547705,2.09443 -1.630748,2.8753 -2.789749,1 z M 91.202839,99.744406 C 90.629711,99.053829 89.866722,97.317158 89.507307,95.885138 88.678176,92.581615 92.205333,88.336726 96.5,87.46952 c 2.714672,-0.548163 2.833559,-0.469927 1.25,0.822593 -2.229167,1.819474 -2.202436,2.176919 0.428966,5.736081 1.198431,1.620964 1.873434,3.252743 1.5,3.626174 C 99.305534,98.027799 99,97.808333 99,97.166667 99,94.809768 95.048714,95.957725 94.410644,98.5 c -0.695251,2.7701 -1.638052,3.13584 -3.207805,1.244406 z M 66.043608,76.614697 C 65.535172,75.277411 64.079864,73.446852 62.80959,72.546788 55.150137,67.119619 50.591121,64.85658 45.376248,63.893092 c -7.27414,-1.343954 -7.624858,-1.560043 -6.361946,-3.919816 1.54737,-2.891286 8.167959,-4.314378 14.12654,-3.036491 8.511045,1.825293 13.621417,1.391865 16.404613,-1.39133 3.607297,-3.607298 3.373298,-7.290575 -2.204911,-34.706514 -0.664104,-3.263955 1.017891,-4.319386 8.492757,-5.329101 2.933316,-0.396236 7.208316,-1.792626 9.5,-3.103089 C 88.162053,10.789174 90.944971,10.05715 94,10.127044 l 4.5,0.102954 -3.761043,0.729378 c -2.068574,0.401157 -4.026135,0.994469 -4.350136,1.31847 C 89.367818,13.298849 91.036498,15 93.059017,15 c 1.067541,0 2.821933,0.88095 3.89865,1.957667 1.775142,1.775142 1.938209,3.229213 1.748974,15.595609 -0.207675,13.571381 -0.22211,13.648641 -2.957667,15.829898 -3.515726,2.803342 -3.45685,3.405702 0.501026,5.125958 3.059276,1.329688 3.101676,1.414881 0.722506,1.451726 -4.505891,0.06978 -6.970711,2.660887 -6.987819,7.345846 -0.0084,2.306313 -0.345922,4.652132 -0.75,5.212932 -1.152824,1.599948 -16.425166,10.09707 -19.500669,10.84965 -2.322102,0.568222 -2.914333,0.286649 -3.69041,-1.754589 z m 20.374605,-9.221686 c 1.700921,-0.652704 2.18001,-4.905255 0.658557,-5.845564 C 86.061815,60.92017 79,64.75384 79,65.932109 c 0,1.988538 3.993657,2.775027 7.418213,1.460902 z M 79.868879,20.657991 C 81.473594,18.724427 80.25353,18 75.39235,18 71.129736,18 69.328522,19.104508 70.5,21 c 0.912611,1.476636 8.07658,1.215116 9.368879,-0.342009 z M 18.032384,46.25 c -2.698306,-2.6125 -5.834445,-5.5375 -6.969197,-6.5 -2.3515115,-1.994558 -2.7538891,-6.270975 -0.665456,-7.072382 0.768752,-0.294998 4.549153,-0.846893 8.400891,-1.226433 8.750416,-0.862244 9.3698,-0.09524 8.239338,10.203006 C 25.815037,52.794742 25.145166,53.136597 18.032384,46.25 Z M 23,34.883369 c 0,-1.707019 -0.435423,-1.999943 -2.25,-1.513655 -1.2375,0.331637 -3.3525,0.609121 -4.7,0.616631 -4.418632,0.02463 0.134624,2.561888 5.2,2.897654 1.152013,0.07636 1.75,-0.607267 1.75,-2.00063 z"
       style="fill:#fbab4a" />
    <path
       id="path6556"
       d="m 100,208.18783 c 0,-2.32424 4.4153,-9.435 7.08331,-11.40755 1.68064,-1.24254 5.04942,-5.97642 7.48619,-10.51973 2.43678,-4.5433 6.47702,-12.07951 8.97833,-16.74713 3.76017,-7.01674 4.43791,-9.07253 3.91314,-11.86979 -0.5659,-3.01649 -0.36293,-3.45142 1.8725,-4.01248 3.11785,-0.78253 4.09052,-4.52518 3.23223,-12.43695 -0.33975,-3.13181 -0.2329,-7.0442 0.23743,-8.6942 l 0.85515,-3 1.74732,5.23824 c 0.96103,2.88103 2.1465,5.48494 2.63439,5.78647 C 139.17425,141.22573 143,137.4407 143,135.61748 143,133.76781 156.69501,106.9286 161.17422,100 c 4.85286,-7.506573 7.23741,-11.528225 10.70819,-18.059832 1.62491,-3.057908 3.64748,-6.135052 4.4946,-6.838097 0.84712,-0.703045 3.40839,-6.076121 5.6917,-11.940168 7.90047,-20.290068 8.43347,-18.718798 8.0863,23.838097 -0.1503,18.425 -0.69764,38.675 -1.2163,45 -0.51867,6.325 -1.40856,17.35 -1.97753,24.5 -0.56897,7.15 -1.20792,13.5079 -1.41989,14.12866 -0.21197,0.62077 0.004,2.85537 0.48001,4.96579 1.06296,4.71304 0.59052,5.33622 -7.35641,9.7036 -4.29368,2.35967 -8.13781,3.60763 -12.66489,4.11156 -3.98085,0.44312 -8.11926,1.66663 -10.67807,3.15696 -2.29794,1.33839 -5.54471,2.43343 -7.21505,2.43343 -1.67034,0 -4.96521,0.62829 -7.32193,1.39619 -2.35672,0.7679 -5.85995,1.672 -7.78495,2.0091 -1.925,0.3371 -5.93254,1.74556 -8.90565,3.12992 -2.97311,1.38436 -8.2953,2.92624 -11.82709,3.4264 -3.53179,0.50016 -7.49591,1.61341 -8.80916,2.47389 -2.68981,1.76243 -3.4581,1.92957 -3.4581,0.75233 z m 18.06574,-6.22301 c 2.72693,-1.45941 2.40323,-2.70291 -0.89202,-3.42666 -3.51608,-0.77227 -8.17372,0.90138 -8.17372,2.93709 0,1.80582 6.0008,2.12988 9.06574,0.48957 z M 136,194.98469 c 1.33333,-0.87528 1.33333,-1.0941 0,-1.96938 -3.45428,-2.26758 -12.81049,-0.15913 -10.32466,2.3267 1.01336,1.01336 8.63868,0.74945 10.32466,-0.35732 z m 37.36273,-8.94742 c 2.91173,-2.91173 -6.55065,-3.78605 -9.99929,-0.92393 -1.17721,0.97699 -1.20818,1.37952 -0.16077,2.08943 1.64999,1.11834 8.683,0.31156 10.16006,-1.1655 z m 10.00438,-4.89043 c 1.2091,-1.33604 1.44047,-2.49277 0.82916,-4.14531 -0.47259,-1.27754 -0.44525,-4.77303 0.0618,-7.89684 1.30162,-8.01942 0.45605,-20.36591 -1.61084,-23.52038 -1.99331,-3.04217 -2.44768,-3.10191 -5.32401,-0.70001 -1.7698,1.47788 -2.21375,3.01421 -2.37436,8.21673 -0.10865,3.51943 0.37928,9.46265 1.08428,13.20715 1.13646,6.03612 1.08996,7.21052 -0.41005,10.35608 -1.29998,2.72609 -1.42391,3.87078 -0.53502,4.94182 1.6458,1.98307 6.30258,1.72476 8.27907,-0.45924 z m 5.01304,-71.69511 c 0.94796,-2.47035 0.64864,-45.802725 -0.32724,-47.37353 -1.51311,-2.435563 -3.17026,6.218584 -3.01045,15.721497 0.0805,4.785167 -0.26464,12.525303 -0.76691,17.200303 -0.56305,5.24059 -0.5526,9.93797 0.0272,12.25 0.9647,3.84659 3.02023,4.95655 4.07735,2.20173 z m -80.70481,60.89028 c -1.02715,-1.02715 1.3605,-3.34201 3.4471,-3.34201 1.21089,0 1.87756,0.71014 1.87756,2 0,1.42857 -0.66667,2 -2.33333,2 -1.28334,0 -2.62943,-0.2961 -2.99133,-0.65799 z m -8.0467,-32.03473 c -0.353765,-2.58099 -0.220178,-5.11574 0.296858,-5.63278 1.234082,-1.23408 3.956212,-0.14633 4.739052,1.89371 0.67803,1.76694 -2.09836,8.43179 -3.51245,8.43179 -0.48414,0 -1.169696,-2.11172 -1.52346,-4.69272 z M 111.25,109.33772 C 109.28242,108.54378 109.79169,106 111.91821,106 c 2.9805,0 5.08179,1.07797 5.08179,2.60699 0,1.36294 -3.18128,1.76723 -5.75,0.73073 z M 99.519198,101.75 c -0.845666,-2.528704 0.06457,-7.876375 1.501162,-8.819374 1.249,-0.81986 1.11165,-1.279843 -0.88114,-2.950941 C 98.002402,88.187815 97.95971,88 99.689216,88 102.95005,88 104,90.119012 104,96.7 c 0,5.66578 -0.2045,6.3 -2.03138,6.3 -1.11727,0 -2.219504,-0.5625 -2.449422,-1.25 z M 133,93.5 c 0,-1.925 0.44143,-3.5 0.98095,-3.5 1.23996,0 2.42547,4.533385 1.55418,5.943165 C 134.21565,98.078128 133,96.906579 133,93.5 Z m -8.42294,-13.375315 c -0.29754,-0.481424 -3.66746,-2.732724 -7.48871,-5.002889 -8.17543,-4.856936 -11.45676,-8.517778 -10.62067,-11.849034 0.80343,-3.201127 -1.03711,-6.186328 -4.79642,-7.779397 -2.613879,-1.107675 -2.86368,-1.463696 -1.42126,-2.025609 2.2114,-0.861477 2.27329,-4.075526 0.10189,-5.290707 -1.410126,-0.789144 -1.662831,-3.107505 -1.750004,-16.054821 L 98.5,16.989739 l 3.25,-1.072422 c 3.97266,-1.310883 4.19299,-3.406239 0.5,-4.755036 l -2.75,-1.004386 2.92097,-0.07895 c 1.60654,-0.04342 5.76014,1.304201 9.23023,2.994715 4.08846,1.991762 7.03744,2.842549 8.37799,2.417072 1.21573,-0.385856 3.04689,-0.01568 4.44097,0.897754 2.33396,1.529274 2.37173,1.810727 2.34143,17.449938 -0.0169,8.742577 0.27401,16.855917 0.64654,18.029645 1.10259,3.473974 4.41112,4.516916 16.20776,5.109147 9.06298,0.454992 11.56284,0.919806 13.27363,2.468045 1.15925,1.049114 1.7596,2.217643 1.33411,2.596733 -0.4255,0.379089 -4.40269,1.838847 -8.83822,3.243907 -11.06458,3.504977 -17.50173,7.413622 -19.76777,12.003029 -1.74272,3.529528 -3.9142,4.739172 -5.09058,2.835753 z m -8.78168,-12.768557 c 0.16246,-1.092969 -0.17635,-3.227965 -0.75291,-4.744435 -1.33476,-3.510678 -4.13714,-3.127279 -5.50166,0.752691 -0.86241,2.45227 -0.67184,3.111098 1.38072,4.773157 2.79122,2.260196 4.46155,1.992396 4.87385,-0.781413 z m 28.70899,-5.363191 c 1.14009,-1.844712 -2.63449,-2.295242 -5.8412,-0.697198 l -3.16317,1.576352 4.19098,0.06395 c 2.30504,0.03518 4.47107,-0.389224 4.81339,-0.943109 z M 124.39301,48.418213 c 1.021,-2.660673 0.67482,-15.116001 -0.50314,-18.103113 -1.0315,-2.615682 -1.16819,-2.673423 -1.92972,-0.8151 -0.99005,2.416001 -1.23387,18.892945 -0.29348,19.833333 1.09507,1.095076 2.08209,0.763775 2.72634,-0.91512 z m 0.59066,-25.378797 c 0.68425,-1.651922 0.98197,-3.686577 0.6616,-4.521456 -0.7275,-1.895829 -4.64533,-1.969621 -7.15465,-0.134756 -1.8218,1.332128 -1.7827,1.511245 1.05887,4.850793 1.62278,1.907175 3.22942,3.319388 3.5703,3.138252 0.34089,-0.181135 1.17963,-1.68091 1.86388,-3.332833 z M 173.66235,48.25 c -0.25062,-0.4125 -1.22654,-3.834566 -2.16871,-7.604592 -2.29797,-9.19522 -1.51093,-10.063828 8.24751,-9.102256 3.86157,0.380509 7.59896,1.049012 8.30531,1.485561 1.24512,0.76953 1.57656,7.154202 0.46477,8.953124 -0.30029,0.485875 -1.93407,0.843942 -3.63061,0.795706 -2.23965,-0.06368 -3.89238,0.776579 -6.03331,3.067377 -2.95695,3.163925 -4.33541,3.803337 -5.18496,2.40508 z M 185,34.947893 c 0,-1.117938 -4.9266,-2.105965 -7.08504,-1.420902 -2.57183,0.816268 -2.41925,2.350896 0.33504,3.369835 2.22879,0.824531 6.75,-0.480883 6.75,-1.948933 z"
       style="fill:#fbc32e" />
    <path
       id="path6554"
       d="m 81.41271,203.07494 c -4.739505,-1.16026 -5.725613,-1.99299 -4.338824,-3.66397 2.267226,-2.73184 12.304271,-0.62912 11.716955,2.45465 -0.357053,1.87476 -2.934337,2.29719 -7.378131,1.20932 z M 109,201.47525 c 0,-2.03571 4.65764,-3.70936 8.17372,-2.93709 3.29525,0.72375 3.61895,1.96725 0.89202,3.42666 C 115.0008,203.60513 109,203.28107 109,201.47525 Z M 59.728968,194.90813 C 57.285145,193.4854 58.508853,192 62.124758,192 c 3.588613,0 7.166283,1.72007 6.344233,3.05017 -0.775783,1.25525 -6.499699,1.16222 -8.740023,-0.14204 z m 65.946372,0.43388 c -2.48583,-2.48583 6.87038,-4.59428 10.32466,-2.3267 1.33333,0.87528 1.33333,1.0941 0,1.96938 -1.68598,1.10677 -9.3113,1.37068 -10.32466,0.35732 z m 37.52733,-8.13924 c -1.04741,-0.70991 -1.01644,-1.11244 0.16077,-2.08943 3.44864,-2.86212 12.91102,-1.9878 9.99929,0.92393 -1.47706,1.47706 -8.51007,2.28384 -10.16006,1.1655 z M 27.75,186.33772 c 0.6875,-0.27741 1.8125,-0.27741 2.5,0 0.6875,0.27741 0.125,0.50439 -1.25,0.50439 -1.375,0 -1.9375,-0.22698 -1.25,-0.50439 z m 147.33804,-4.73164 c -0.88889,-1.07104 -0.76496,-2.21573 0.53502,-4.94182 1.50001,-3.14556 1.54651,-4.31996 0.41005,-10.35608 -0.705,-3.7445 -1.19293,-9.68772 -1.08428,-13.20715 0.16061,-5.20252 0.60456,-6.73885 2.37436,-8.21673 2.87633,-2.4019 3.3307,-2.34216 5.32401,0.70001 2.06689,3.15447 2.91246,15.50096 1.61084,23.52038 -0.50702,3.12381 -0.53436,6.6193 -0.0618,7.89684 1.66738,4.50736 -5.98026,8.37353 -9.10823,4.60455 z M 11.625,180.20225 c -0.271169,-0.43876 -0.129955,-1.38522 0.313809,-2.10324 0.628417,-1.0168 1.283441,-1.05043 2.962025,-0.15208 1.18535,0.63438 1.891021,1.58084 1.568157,2.10324 -0.712563,1.15295 -4.158554,1.26114 -4.843991,0.15208 z m -0.10714,-43.09653 c -0.379686,-2.24735 -0.367675,-7.5294 0.02669,-11.73788 0.581053,-6.20071 0.922219,-7.293 1.799012,-5.75982 1.469849,2.57021 1.478298,18.95833 0.01054,20.43271 -0.862355,0.86625 -1.31672,0.14 -1.83624,-2.93501 z M 184.3028,107.25 c -0.57985,-2.31203 -0.5903,-7.00941 -0.0272,-12.25 0.50227,-4.675 0.84738,-12.415136 0.76691,-17.200303 -0.15981,-9.502913 1.49734,-18.15706 3.01045,-15.721497 0.97588,1.570805 1.2752,44.90318 0.32724,47.37353 -1.05712,2.75482 -3.11265,1.64486 -4.07735,-2.20173 z M 97.2,92.8 C 96.54,92.14 96,91.015 96,90.3 c 0,-1.816219 3.484445,-1.626132 5.06325,0.276215 1.08413,1.306295 1.06229,1.731788 -0.12755,2.484688 C 99.048046,94.255359 98.625874,94.225874 97.2,92.8 Z m 13.72153,-24.662459 c -2.05256,-1.662059 -2.24313,-2.320887 -1.38072,-4.773157 1.36452,-3.87997 4.1669,-4.263369 5.50166,-0.752691 1.22596,3.224534 0.9228,6.578682 -0.64109,7.092852 -0.60424,0.198661 -2.17017,-0.506491 -3.47985,-1.567004 z M 79.666667,67.333333 C 79.3,66.966667 79,66.336116 79,65.932109 c 0,-1.178269 7.061815,-5.011939 8.07677,-4.384662 1.521453,0.940309 1.042364,5.19286 -0.658557,5.845564 -2.102077,0.806643 -5.918964,0.772905 -6.751546,-0.05968 z m 58.996503,-6.037594 c 1.73975,-0.866994 3.90577,-1.291393 4.81339,-0.943109 2.85749,1.096523 0.58105,2.65005 -3.78558,2.583416 L 135.5,62.872091 Z M 94.44113,52.535254 c -1.886492,-1.423518 -1.858885,-1.531687 0.980826,-3.842979 2.681217,-2.18229 3.072569,-2.249274 4.750004,-0.813013 4.6586,3.988824 -0.770052,8.399318 -5.73083,4.655992 z m 27.22554,-3.201921 C 120.72628,48.392945 120.9701,31.916001 121.96015,29.5 c 0.76153,-1.858323 0.89822,-1.800582 1.92972,0.8151 1.17796,2.987112 1.52414,15.44244 0.50314,18.103113 -0.64425,1.678895 -1.63127,2.010196 -2.72634,0.91512 z M 178.25,36.896826 c -2.75429,-1.018939 -2.90687,-2.553567 -0.33504,-3.369835 C 180.0734,32.841928 185,33.829955 185,34.947893 c 0,1.46805 -4.52121,2.773464 -6.75,1.948933 z M 17.5,36.286934 c -3.236654,-0.778518 -4.186363,-2.285338 -1.45,-2.300589 1.3475,-0.0075 3.4625,-0.284994 4.7,-0.616631 1.814577,-0.486288 2.25,-0.193364 2.25,1.513655 0,2.136598 -1.189955,2.440267 -5.5,1.403565 z M 119.54949,23.233997 c -2.84157,-3.339548 -2.88067,-3.518665 -1.05887,-4.850793 2.50932,-1.834865 6.42715,-1.761073 7.15465,0.134756 0.5649,1.472113 -1.27329,7.188914 -2.52548,7.854289 -0.34088,0.181136 -1.94752,-1.231077 -3.5703,-3.138252 z M 70.5,21 c -1.171478,-1.895492 0.629736,-3 4.89235,-3 4.86118,0 6.081244,0.724427 4.476529,2.657991 C 78.57658,22.215116 71.412611,22.476636 70.5,21 Z m 23.544365,-5.486215 c -1.900599,-0.686177 -3.620067,-1.74089 -3.821039,-2.343808 -0.32769,-0.983068 0.738404,-1.381928 7.094859,-2.654419 C 99.928752,9.9929518 105,11.963169 105,13.5 c 0,0.717392 -1.41715,1.798371 -3.14922,2.402175 -3.584969,1.249726 -3.218616,1.267953 -7.806415,-0.38839 z"
       style="fill:#fbb229" />
  </g>
</svg>
