<?xml version="1.0" encoding="UTF-8" standalone="no"?>
<svg
   xmlns:dc="http://purl.org/dc/elements/1.1/"
   xmlns:cc="http://creativecommons.org/ns#"
   xmlns:rdf="http://www.w3.org/1999/02/22-rdf-syntax-ns#"
   xmlns:svg="http://www.w3.org/2000/svg"
   xmlns="http://www.w3.org/2000/svg"
   viewBox="0 0 200.03134 233.11371"
   height="233.11371"
   width="200.03134"
   id="svg4485"
   version="1.1">
  <metadata
     id="metadata4491">
    <rdf:RDF>
      <cc:Work
         rdf:about="">
        <dc:format>image/svg+xml</dc:format>
        <dc:type
           rdf:resource="http://purl.org/dc/dcmitype/StillImage" />
        <dc:title></dc:title>
      </cc:Work>
    </rdf:RDF>
  </metadata>
  <defs
     id="defs4489" />
  <g
     transform="translate(0.00369202,0.03278161)"
     id="g6523">
    <path
       id="path6539"
       d="m 0,220 c 0,-12.28885 0.10829647,-13 1.9796761,-13 1.2807077,0 2.6554259,1.32402 3.8935904,3.75 1.0526528,2.0625 2.8763273,4.62039 4.05261,5.68421 1.1762825,1.06381 3.0468505,3.40363 4.1568165,5.19959 1.109966,1.79596 3.570437,4.22477 5.467714,5.39735 C 21.543581,228.263 23,229.97308 23,231.08156 23,232.8616 22.170365,233 11.5,233 H 0 Z m 173.59457,12.15302 c -0.2879,-0.46583 0.85414,-2.15333 2.53788,-3.75 1.68373,-1.59666 5.87374,-6.27802 9.31112,-10.40302 5.06886,-6.08282 6.67501,-8.91718 8.5001,-15 2.25556,-7.51752 3.54118,-10 5.17877,-10 0.48266,0 0.87756,9 0.87756,20 v 20 h -12.94098 c -7.11754,0 -13.17654,-0.38114 -13.46445,-0.84698 z M 85.38005,195.75 c -0.919221,-1.7875 -2.955777,-4.81503 -4.52568,-6.72784 -3.502397,-4.26742 -3.630489,-7.28361 -0.399236,-9.40081 1.350324,-0.88476 3.302191,-2.51787 4.337483,-3.62913 1.872638,-2.01004 1.888193,-2.00095 3.015657,1.76219 0.62332,2.08046 2.913169,5.52064 5.088553,7.64484 l 3.955243,3.8622 8.56446,-4.63073 c 9.12986,-4.93642 11.60846,-5.51046 13.5729,-3.14345 1.59387,1.92049 1.10754,3.04797 -4.48896,10.40689 -4.05778,5.33562 -5.06618,6.10584 -7.99408,6.10584 -2.67159,0 -4.04426,-0.81046 -6.77395,-3.99948 -3.768263,-4.40237 -3.964489,-4.34766 -8.068006,2.24948 -2.258553,3.63103 -4.241121,3.47329 -6.284384,-0.5 z m 40.57611,-18 c -0.0241,-0.1375 -0.13661,-2.745 -0.25,-5.79445 -0.33521,-9.01498 -4.39425,-13.17143 -9.26503,-9.48735 -2.80727,2.12331 -5.22995,1.86155 -7.73888,-0.83614 -3.44418,-3.7033 -8.899573,-6.62423 -12.37967,-6.62832 -3.291112,-0.004 -6.544422,2.96914 -7.890688,7.21085 -0.514187,1.62006 -0.834013,1.75997 -1.525903,0.66754 -0.48145,-0.76017 -0.882254,-2.26026 -0.890676,-3.33353 -0.03077,-3.92154 -6.369547,-12.67736 -11.624923,-16.05763 -3.788021,-2.43647 -5.792542,-4.65698 -7.75,-8.58509 C 65.188175,131.99167 64,128.77332 64,127.754 c 0,-4.17438 7.754402,-15.21423 12.452598,-17.72863 1.48039,-0.79228 4.067223,-4.3673 6.282067,-8.68185 2.070934,-4.03422 4.316279,-7.336872 4.989655,-7.339231 0.673376,-0.0024 1.965141,1.458211 2.870589,3.245711 0.905448,1.7875 2.346676,4.04847 3.20273,5.02438 1.42024,1.61908 1.363068,2.01292 -0.653252,4.5 -1.215343,1.49909 -3.153369,4.75062 -4.306726,7.22562 -2.664897,5.71863 -2.324258,5.47301 -4.9955,3.602 -2.739777,-1.91902 -6.20381,-2.07609 -7.639322,-0.34641 -3.304743,3.98198 -2.500977,12.84773 1.396275,15.40131 2.370284,1.55307 2.666048,1.52317 5.474691,-0.55335 3.586122,-2.65133 4.492154,-2.23072 5.379105,2.49713 1.018483,5.42898 4.511004,8.39932 9.875909,8.39932 2.430851,0 6.303581,-0.66466 8.606081,-1.47703 l 4.18635,-1.47703 1.3816,3.30664 c 1.6063,3.84441 2.72425,4.83303 7.49715,6.62983 8.94654,3.368 9.77054,4.02455 12.02625,9.58227 1.50003,3.69584 2.00361,6.45501 1.58367,8.67714 C 132.7908,172.57618 129.40294,178 127.5147,178 c -0.83309,0 -1.53443,-0.1125 -1.55854,-0.25 z m -58.367266,-3.82673 c -3.86925,-4.59834 -3.099219,-7.85479 1.511344,-6.39146 C 70.973142,168.12625 74,173.33768 74,175.96788 c 0,2.15784 -3.929447,0.90468 -6.411106,-2.04461 z M 197.13839,157.66675 c -0.60857,-0.73328 -1.39593,-6.02078 -1.74969,-11.75 -0.45243,-7.32729 -1.17592,-11.30651 -2.43941,-13.41675 -1.92545,-3.21585 -5.35479,-12.23744 -6.37359,-16.76706 -0.3423,-1.52188 -2.1022,-5.12188 -3.91088,-8 -1.80868,-2.87812 -4.22157,-7.53126 -5.36197,-10.340316 C 174.65842,90.878862 169.26035,82.994589 162.65609,76 c -2.85619,-3.025 -6.18558,-6.90307 -7.39864,-8.617932 -1.21305,-1.714863 -3.50343,-3.65553 -5.08972,-4.312593 -1.58629,-0.657063 -3.82062,-2.461282 -4.96518,-4.009375 -1.29613,-1.753121 -3.40361,-3.062838 -5.58776,-3.472587 -2.45217,-0.46003 -4.72591,-2.042907 -7.56077,-5.263482 -3.79605,-4.312543 -4.06568,-5.026174 -4.23721,-11.214821 -0.28193,-10.171965 -0.11219,-11.043727 2.88391,-14.811143 C 137.84651,15.312662 138,14.954776 138,7.2782195 V 0 h 31 31 v 79.5 c 0,44.93828 -0.38151,79.5 -0.87756,79.5 -0.48265,0 -1.37547,-0.59996 -1.98405,-1.33325 z M 0,65.073324 V 0 h 27.3907 27.3907 l 0.370801,7.3429206 c 0.320174,6.3403724 0.778828,7.8586074 3.3593,11.1199424 8.308817,10.501118 8.404409,10.697858 8.447548,17.386008 0.04933,7.648601 -1.912397,12.279521 -6.76889,15.978836 -1.929515,1.469761 -5.574148,4.864484 -8.099184,7.543829 -2.525036,2.679345 -6.912014,6.359734 -9.748839,8.178641 -3.125433,2.003955 -7.331072,6.19205 -10.672988,10.628463 C 28.63583,82.205388 23.930858,88.425 21.213655,92 c -3.026733,3.982245 -5.43563,8.43673 -6.218967,11.5 C 13.058757,111.07053 3.8151939,129.44177 1.75,129.82332 0.09794942,130.12855 0,126.50442 0,65.073324 Z M 124.60136,125.544 C 122.29688,122.52267 121.3061,122 117.88337,122 c -5.458,0 -7.50237,-1.31095 -8.95491,-5.74232 -1.78147,-5.43488 -3.51257,-7.71877 -7.46309,-9.84626 -2.144152,-1.15471 -3.295433,-2.41189 -2.97453,-3.24815 1.79904,-4.688207 9.29728,-10.565543 12.1049,-9.488158 0.69952,0.268431 1.96842,2.53238 2.81979,5.030999 1.07935,3.167709 3.99211,7.088849 9.62201,12.953079 7.76225,8.08535 8.06226,8.57261 7.76826,12.61685 -0.39907,5.4898 -2.63566,5.94688 -6.20444,1.26796 z M 81.2,3.8 C 78.439309,1.0393086 79.888871,0 86.5,0 c 6.611129,0 8.060691,1.0393086 5.3,3.8 -1.554321,1.5543215 -9.045679,1.5543215 -10.6,0 z"
       style="fill:#fafdfe" />
    <path
       id="path6537"
       d="m 23,231.08156 c 0,-1.10848 -1.456419,-2.81856 -3.449593,-4.05041 -1.897277,-1.17258 -4.357748,-3.60139 -5.467714,-5.39735 -1.109966,-1.79596 -2.980534,-4.13578 -4.1568165,-5.19959 C 8.7495938,215.37039 6.9259193,212.8125 5.8732665,210.75 4.635102,208.32402 3.2603838,207 1.9796761,207 0.84764193,207 0,206.32796 0,205.43045 0,202.06466 4.3432399,204.45186 7.2553808,209.41826 11.026659,215.84986 17.444474,223.10796 22.75,226.9416 27.269869,230.20755 28.306945,233 25,233 c -1.304991,0 -2,-0.66667 -2,-1.91844 z m 146,0.46648 c 0,-0.79858 2.02871,-2.84775 4.50824,-4.55371 4.26157,-2.93204 13.22913,-12.76657 15.48548,-16.98259 0.56934,-1.06383 2.42544,-5.88918 4.12464,-10.72299 C 196.23843,190.41295 197.5218,188 199.12244,188 c 1.64113,0 0.88592,4.51369 -0.9467,5.65818 -1.06514,0.66519 -2.78882,4.40638 -4.14222,8.99054 -1.92669,6.52599 -3.37479,9.11728 -8.57885,15.35128 -3.44349,4.125 -7.63849,8.80636 -9.32222,10.40302 -1.68374,1.59667 -2.82578,3.28417 -2.53788,3.75 C 173.88248,232.61886 172.96648,233 171.55902,233 169.98863,233 169,232.43906 169,231.54804 Z M 85.556704,199.77749 c -0.856187,-1.22237 -1.559212,-2.68487 -1.562277,-3.25 C 83.98582,194.94075 73.407425,182.02954 67.995195,177 c -5.434098,-5.04986 -7.139004,-9.28476 -4.714121,-11.70965 2.412678,-2.41267 8.577414,1.03696 11.54385,6.45965 4.590365,8.39126 9.778309,3.92505 8.946412,-7.70181 -0.594035,-8.30242 -4.021171,-14.90537 -9.576573,-18.45087 C 67.234659,141.15533 62.00409,133.59937 62.013122,128 c 0.0081,-5.03342 4.874762,-12.83867 11.681975,-18.73586 4.056923,-3.51457 6.722379,-6.907 8.734356,-11.116539 3.996877,-8.362434 6.741187,-8.978279 9.570506,-2.147699 1.979608,4.779198 4.601524,4.807628 9.396311,0.101898 C 104.5678,92.989183 106.36361,92 108.84288,92 c 3.01717,0 3.46094,0.439989 5.79942,5.75 1.67081,3.79394 5.00588,8.30138 9.80372,13.25 7.8881,8.13599 9.0752,10.4081 8.11422,15.53058 -0.91895,4.89845 -3.91341,5.48868 -7.95794,1.56858 -3.54539,-3.43634 -7.00376,-3.9508 -9.76431,-1.45254 -1.70588,1.5438 -1.96056,1.47242 -4.07874,-1.14314 -1.24259,-1.53436 -3.15925,-5.27301 -4.25925,-8.3081 -3.4891,-9.62703 -10.258871,-11.91909 -14.527281,-4.91854 -2.680933,4.39695 -2.816293,19.52829 -0.221165,24.72316 1.510644,3.02397 2.292477,3.53705 5.748446,3.7724 4.80689,0.32736 9.83942,-2.4476 12.30849,-6.78695 0.93033,-1.63504 1.9715,-2.97565 2.3137,-2.97913 0.34221,-0.003 0.91789,1.90618 1.27929,4.24368 1.44893,9.37144 2.31296,10.66061 9.43161,14.07235 8.51136,4.07922 12.56104,9.38913 12.53186,16.43171 -0.0268,6.47529 -3.35601,12.68235 -8.12841,15.15492 -3.24341,1.68041 -6.72457,5.62189 -15.55912,17.61651 C 110.675,199.88647 109.19805,201 108.3953,201 c -1.82551,0 -7.18495,-2.4217 -10.100146,-4.56383 -2.107722,-1.54878 -2.367768,-1.46192 -5.903401,1.97184 -4.339394,4.21436 -4.780511,4.30275 -6.835049,1.36948 z m 6.10773,-3.52749 c 4.103517,-6.59714 4.299743,-6.65185 8.068006,-2.24948 2.72969,3.18902 4.10236,3.99948 6.77395,3.99948 2.9279,0 3.9363,-0.77022 7.99408,-6.10584 5.5965,-7.35892 6.08283,-8.4864 4.48896,-10.40689 -1.96444,-2.36701 -4.44304,-1.79297 -13.5729,3.14345 l -8.56446,4.63073 -3.955243,-3.8622 c -2.175384,-2.1242 -4.465233,-5.56438 -5.088553,-7.64484 -1.127464,-3.76314 -1.143019,-3.77223 -3.015657,-1.76219 -1.035292,1.11126 -2.987159,2.74437 -4.337483,3.62913 -3.231253,2.1172 -3.103161,5.13339 0.399236,9.40081 1.569903,1.91281 3.606459,4.94034 4.52568,6.72784 2.043263,3.97329 4.025831,4.13103 6.284384,0.5 z m 10.651306,-12.40827 c 1.20134,-0.63704 4.17015,-2.66867 6.59734,-4.51472 3.6952,-2.81045 4.9624,-3.25339 7.78999,-2.72294 4.2361,0.7947 7.29693,-1.64862 7.29693,-5.8248 0,-6.17336 -3.96124,-8.63588 -8.44113,-5.24747 -2.97679,2.25153 -4.85811,1.78908 -8.6127,-2.11712 -6.37795,-6.63548 -11.774652,-8.13228 -14.472961,-4.01414 -1.747748,2.6674 -3.105411,14.94443 -2.096969,18.96238 1.388973,5.53411 6.989104,8.10391 11.9395,5.47881 z M 131.01179,174.75 c 3.22277,-5.28352 3.47866,-9.11392 1.01446,-15.18532 -2.25571,-5.55772 -3.07971,-6.21427 -12.02625,-9.58227 -4.7729,-1.7968 -5.89085,-2.78542 -7.49715,-6.62983 l -1.3816,-3.30664 -4.18635,1.47703 C 104.6324,142.33534 100.75967,143 98.328819,143 c -5.364905,0 -8.857426,-2.97034 -9.875909,-8.39932 -0.886951,-4.72785 -1.792983,-5.14846 -5.379105,-2.49713 -2.808643,2.07652 -3.104407,2.10642 -5.474691,0.55335 -3.897252,-2.55358 -4.701018,-11.41933 -1.396275,-15.40131 1.435512,-1.72968 4.899545,-1.57261 7.639322,0.34641 2.671242,1.87101 2.330603,2.11663 4.9955,-3.602 1.153357,-2.475 3.091383,-5.72653 4.306726,-7.22562 2.01632,-2.48708 2.073492,-2.88092 0.653252,-4.5 -0.856054,-0.97591 -2.297282,-3.23688 -3.20273,-5.02438 -0.905448,-1.7875 -2.197213,-3.24807 -2.870589,-3.245711 -0.673376,0.0024 -2.918721,3.305011 -4.989655,7.339231 -2.214844,4.31455 -4.801677,7.88957 -6.282067,8.68185 C 71.754402,112.53977 64,123.57962 64,127.754 c 0,1.01932 1.188175,4.23767 2.64039,7.15188 1.957458,3.92811 3.961979,6.14862 7.75,8.58509 5.255376,3.38027 11.59415,12.13609 11.624923,16.05763 0.0084,1.07327 0.409226,2.57336 0.890676,3.33353 0.69189,1.09243 1.011716,0.95252 1.525903,-0.66754 1.346266,-4.24171 4.599576,-7.21472 7.890688,-7.21085 3.480097,0.004 8.93549,2.92502 12.37967,6.62832 2.50893,2.69769 4.93161,2.95945 7.73888,0.83614 4.87078,-3.68408 8.92982,0.47237 9.26503,9.48735 0.11339,3.04945 0.22589,5.65695 0.25,5.79445 0.0241,0.1375 0.72545,0.25 1.55854,0.25 0.83308,0 2.40677,-1.4625 3.49709,-3.25 z M 74,175.96788 c 0,-2.6302 -3.026858,-7.84163 -4.899762,-8.43607 -4.610563,-1.46333 -5.380594,1.79312 -1.511344,6.39146 C 70.070553,176.87256 74,178.12572 74,175.96788 Z m 8.799507,-50.55435 c 0.497729,-6.79099 -4.861404,-8.96117 -6.271784,-2.53975 -0.876787,3.99198 0.952821,7.3408 3.789938,6.9369 1.775712,-0.25279 2.238145,-1.0721 2.481846,-4.39715 z m 48.006293,-1.13749 c 0.294,-4.04424 -0.006,-4.5315 -7.76826,-12.61685 -5.6299,-5.86423 -8.54266,-9.78537 -9.62201,-12.953079 -0.85137,-2.498619 -2.12027,-4.762568 -2.81979,-5.030999 -2.80762,-1.077385 -10.30586,4.799951 -12.1049,9.488158 -0.320903,0.83626 0.830378,2.09344 2.97453,3.24815 3.95052,2.12749 5.68162,4.41138 7.46309,9.84626 1.45254,4.43137 3.49691,5.74232 8.95491,5.74232 3.42273,0 4.41351,0.52267 6.71799,3.544 3.56878,4.67892 5.80537,4.22184 6.20444,-1.26796 z m 64.65335,34.28043 c -0.79134,-1.89394 -1.73203,-7.40644 -2.09042,-12.25 -0.44583,-6.02529 -1.35259,-10.22762 -2.8712,-13.30647 -1.22077,-2.475 -3.23565,-7.65 -4.4775,-11.5 C 183.33615,113.17947 173.77614,93.55852 168.82065,86.200035 162.20629,76.378269 142.49872,58 138.58091,58 136.23656,58 129.1606,50.960724 127.26959,46.747326 125.96647,43.843808 125.39644,40.428481 125.46791,35.952624 125.57586,29.192595 126.74055,26.490335 133.6366,17 135.96873,13.790535 136.12585,12.939683 135.52937,6.75 134.97742,1.0223803 135.11526,0 136.43945,0 137.71057,0 138,1.3498438 138,7.2782195 c 0,7.6765565 -0.15349,8.0344425 -7.29928,17.0198475 -2.9961,3.767416 -3.16584,4.639178 -2.88391,14.811143 0.17153,6.188647 0.44116,6.902278 4.23721,11.214821 2.83486,3.220575 5.1086,4.803452 7.56077,5.263482 2.18415,0.409749 4.29163,1.719466 5.58776,3.472587 1.14456,1.548093 3.37889,3.352312 4.96518,4.009375 1.58629,0.657063 3.87667,2.59773 5.08972,4.312593 1.21306,1.714862 4.54245,5.592932 7.39864,8.617932 6.60426,6.994589 12.00233,14.878862 14.64676,21.392624 1.1404,2.809056 3.55329,7.462196 5.36197,10.340316 1.80868,2.87812 3.56858,6.47812 3.91088,8 1.0188,4.52962 4.44814,13.55121 6.37359,16.76706 1.27163,2.12384 1.97969,6.06655 2.42444,13.5 0.52714,8.81053 0.94987,10.76714 2.62725,12.16029 2.38547,1.98126 2.6023,3.83971 0.44799,3.83971 -0.85306,0 -2.19848,-1.54959 -2.98982,-3.44353 z M 0,135.61663 c 0,-4.51698 0.3173869,-5.46637 1.9720984,-5.89908 C 4.1760827,129.14119 12.662316,112.02469 14.970564,103.5 c 0.788435,-2.9118 3.406473,-7.714655 6.26866,-11.5 2.70314,-3.575 7.396606,-9.794612 10.429924,-13.82136 3.341916,-4.436413 7.547555,-8.624508 10.672988,-10.628463 2.836825,-1.818907 7.223803,-5.499296 9.748839,-8.178641 2.525036,-2.679345 6.169669,-6.074068 8.099184,-7.543829 4.856493,-3.699315 6.818224,-8.330235 6.76889,-15.978836 -0.04314,-6.68815 -0.138731,-6.88489 -8.447548,-17.386008 -2.580472,-3.261335 -3.039126,-4.77957 -3.3593,-11.1199424 C 54.888407,2.1190414 55.125337,0 55.973211,0 c 0.775027,0 1.10361,1.4862534 0.939597,4.25 -0.466995,7.869246 0.04873,9.446998 5.18833,15.872541 6.614242,8.269146 7.527336,10.169435 8.351766,17.381315 0.642096,5.616874 0.492394,6.27158 -2.322556,10.157506 -1.654889,2.284509 -4.224186,4.982774 -5.709549,5.996145 -1.485363,1.013371 -5.225191,4.133856 -8.31073,6.934411 -3.085538,2.800554 -8.115764,6.916817 -11.178281,9.147249 C 35.404448,75.221333 20.282892,94.826436 17.775389,102.35445 17.199126,104.0845 14.791907,110 12.426014,115.5 10.060121,121 7.5857593,127.75 6.9274319,130.5 4.9307467,138.84066 3.8924632,141 1.8786797,141 0.27309242,141 0,140.21745 0,135.61663 Z M 81.272276,7.2055528 C 78.200385,6.23264 75,3.3264156 75,1.5097875 75,-0.92077338 79.379779,-0.33270101 80.512872,2.25 81.974186,5.5808313 91.025814,5.5808313 92.487128,2.25 93.686012,-0.48266183 97,-0.78006092 97,1.8450124 97,2.8597693 96.161716,4.4486617 95.137146,5.3758844 93.092889,7.2259117 84.7943,8.3210294 81.272276,7.2055528 Z"
       style="fill:#d0edfa" />
    <path
       id="path6535"
       d="m 27,231.50627 c 0,-0.82155 -1.9125,-2.87565 -4.25,-4.56467 C 17.444474,223.10796 11.026659,215.84986 7.2553808,209.41826 5.4264728,206.29922 3.5718755,204.3831 2.1857347,204.18045 -0.20639365,203.83072 -0.88029845,201 1.4285714,201 c 2.1230234,0 4.5714217,2.83417 6.662327,7.71206 C 10.11123,213.4253 20.46378,224.28373 26.016298,227.51338 29.703265,229.65793 31.26083,233 28.573324,233 27.707996,233 27,232.32782 27,231.50627 Z m 137.50496,0.50176 c -0.33719,-0.54558 1.51555,-2.23308 4.11719,-3.75 6.28617,-3.66523 11.28674,-8.15901 16.27721,-14.62758 3.1646,-4.10191 5.15164,-8.52314 8.64194,-19.22856 4.27726,-13.11916 4.49502,-14.32417 3.86761,-21.40189 -0.36566,-4.125 -1.47844,-9.58106 -2.47285,-12.12458 -0.9944,-2.54352 -2.2274,-8.39352 -2.74,-13 -1.69055,-15.19231 -14.86465,-47.64651 -25.36792,-62.493509 -5.37774,-7.601757 -19.87034,-21.084615 -26.98741,-25.10711 -6.18976,-3.498392 -14.46506,-11.929847 -15.41203,-15.702847 -0.35902,-1.430453 -0.47093,-5.631828 -0.24869,-9.336389 0.36458,-6.077212 0.87824,-7.443691 5.25529,-13.980361 C 134.44999,13.766269 134.94198,11.728372 133.54073,4.25 133.01543,1.4465341 133.10115,0 133.7926,0 c 0.57652,0 1.35535,2.8680291 1.73075,6.373398 0.73898,6.900549 0.22085,8.533661 -4.64052,14.626602 -4.38181,5.491893 -5.67973,9.712382 -5.33389,17.344343 0.24043,5.305718 0.87915,7.704156 2.84125,10.669092 C 130.96891,52.910146 136.83389,58 138.74531,58 c 3.76972,0 23.6166,18.609351 30.07534,28.200035 4.95549,7.358485 14.5155,26.979435 17.19938,35.299965 1.24185,3.85 3.25673,9.025 4.4775,11.5 1.51861,3.07885 2.42537,7.28118 2.8712,13.30647 0.71397,9.64905 2.67066,15.69353 5.08024,15.69353 1.31924,0 1.55103,1.88144 1.55103,12.58971 0,11.20986 -0.21207,12.77167 -1.93493,14.25 -1.06421,0.91316 -3.30771,5.61523 -4.98555,10.44904 -1.67784,4.83381 -3.51646,9.65916 -4.0858,10.72299 -2.25635,4.21602 -11.22391,14.05055 -15.48548,16.98259 -2.47953,1.70596 -4.50824,3.75513 -4.50824,4.55371 0,1.63106 -3.54695,1.99403 -4.49504,0.45999 z M 85.321701,201.75 C 84.883717,201.0625 83.61966,198.60421 82.512684,196.28713 81.405708,193.97004 76.9,188.36347 72.5,183.82807 62.568226,173.59067 61.014877,171.34588 61.006589,167.21862 c -0.0081,-4.05097 1.796185,-4.89389 7.084262,-3.30955 2.86121,0.85724 4.632922,2.2772 6.46763,5.18357 5.110074,8.09488 9.028715,5.66082 7.986478,-4.9608 -0.849194,-8.65429 -3.324945,-12.99012 -10.751151,-18.82868 -8.331161,-6.55005 -12.659977,-14.48912 -10.960523,-20.10165 1.751069,-5.78299 7.219651,-13.33633 12.443547,-17.18733 3.501748,-2.58146 5.756488,-5.43732 8.495078,-10.759891 C 86.309161,88.435936 88.763105,87.655161 92,94 c 2.523304,4.946085 4.562622,5.078212 8.92421,0.578195 5.28452,-5.452236 10.70743,-5.876837 12.92403,-1.01192 1.64563,3.611762 1.34953,4.445868 -0.42021,1.183725 -2.32953,-4.293988 -6.78971,-3.792875 -12.03176,1.3518 -4.794787,4.70573 -7.416703,4.6773 -9.396311,-0.101898 -2.829319,-6.83058 -5.573629,-6.214735 -9.570506,2.147699 -2.011977,4.209539 -4.677433,7.601969 -8.734356,11.116539 -6.807213,5.89719 -11.673855,13.70244 -11.681975,18.73586 -0.009,5.59937 5.221537,13.15533 12.181641,17.59732 5.555402,3.5455 8.982538,10.14845 9.576573,18.45087 0.831897,11.62686 -4.356047,16.09307 -8.946412,7.70181 -2.966436,-5.42269 -9.131172,-8.87232 -11.54385,-6.45965 -2.461893,2.4619 -0.700711,6.66431 5.11692,12.20965 6.765767,6.4491 12.90164,14.02334 15.801867,19.50613 1.265077,2.39159 2.782501,4.50437 3.372055,4.69508 0.589554,0.1907 2.747373,-1.28045 4.795154,-3.26923 3.559921,-3.45735 3.819952,-3.54489 5.928084,-1.99581 C 101.21035,198.5783 106.56979,201 108.3953,201 c 0.80275,0 2.2797,-1.11353 3.28212,-2.47451 8.83455,-11.99462 12.31571,-15.9361 15.55912,-17.61651 4.7724,-2.47257 8.10158,-8.67963 8.12841,-15.15492 0.0292,-7.04258 -4.0205,-12.35249 -12.53186,-16.43171 -7.11865,-3.41174 -7.98268,-4.70091 -9.43161,-14.07235 -0.3614,-2.3375 -0.93708,-4.24715 -1.27929,-4.24368 -0.3422,0.003 -1.38337,1.34409 -2.3137,2.97913 -2.46907,4.33935 -7.5016,7.11431 -12.30849,6.78695 -3.455969,-0.23535 -4.237802,-0.74843 -5.748446,-3.7724 -2.595128,-5.19487 -2.459768,-20.32621 0.221165,-24.72316 4.26841,-7.00055 11.038181,-4.70849 14.527281,4.91854 1.1,3.03509 3.01666,6.77374 4.25925,8.3081 2.11818,2.61556 2.37286,2.68694 4.07874,1.14314 2.83495,-2.56559 6.44154,-2.01561 9.72492,1.48299 2.39932,2.55659 2.53532,2.9218 0.74278,1.99462 -1.20687,-0.62424 -2.47092,-1.58257 -2.80901,-2.12961 -0.9552,-1.54554 -4.17509,-1.17335 -6.04747,0.69903 -1.36836,1.36835 -1.57616,2.81768 -1.08194,7.54609 0.33644,3.21885 1.08803,6.74248 1.67021,7.83029 0.58218,1.08782 3.96207,3.34971 7.51087,5.02644 6.83219,3.22805 10.70843,7.93744 12.0486,14.63827 1.03521,5.17605 -2.13298,12.7956 -6.87336,16.53052 -6.26317,4.93473 -11.63024,10.68525 -15.38555,16.48474 -4.02948,6.22291 -6.35679,6.67676 -13.83854,2.69868 l -4.798381,-2.55133 -3.148167,3.05133 c -3.328282,3.22589 -5.913449,3.86987 -7.231251,1.80132 z m 18.755219,-64.67308 c 3.45822,-3.45821 3.68707,-6.44853 1.30185,-17.01064 -1.21347,-5.37338 -2.21771,-7.56987 -3.99272,-8.7329 -3.607239,-2.36355 -7.21099,-0.99302 -9.077434,3.45221 -2.062431,4.91201 -1.157276,20.61917 1.34773,23.38717 2.515911,2.78005 7.018154,2.30659 10.420574,-1.09584 z m -10.876253,45.8954 c -1.197051,-1.11522 -2.468043,-3.18945 -2.824427,-4.6094 -1.008442,-4.01795 0.349221,-16.29498 2.096969,-18.96238 2.698309,-4.11814 8.095011,-2.62134 14.472961,4.01414 3.75459,3.9062 5.63591,4.36865 8.6127,2.11712 4.47989,-3.38841 8.44113,-0.92589 8.44113,5.24747 0,4.17618 -3.06083,6.6195 -7.29693,5.8248 -2.82759,-0.53045 -4.09479,-0.0875 -7.78999,2.72294 -8.32504,6.33178 -11.930889,7.16834 -15.712413,3.64531 z M 101.14165,183 c 0.53794,0 3.34726,-2.24068 6.24294,-4.97929 5.09364,-4.81736 5.36896,-4.94001 8.46558,-3.77116 5.3506,2.01962 8.89824,-2.11409 6.17744,-7.19797 -1.42541,-2.66339 -2.23624,-2.58836 -5.96875,0.55234 -4.00936,3.37366 -7.25469,2.63023 -10.42224,-2.3875 -4.12941,-6.54141 -8.321778,-8.53126 -11.42861,-5.42443 -2.341579,2.34158 -3.910873,17.02618 -2.167626,20.28347 1.218656,2.27708 4.75892,4.02965 6.791403,3.36201 C 99.564271,183.19686 100.60371,183 101.14165,183 Z M 0,143 c 0,-1.29028 0.66666667,-2 1.8786797,-2 2.0137835,0 3.052067,-2.15934 5.0487522,-10.5 0.6583274,-2.75 3.1326891,-9.5 5.4985821,-15 2.365893,-5.5 4.773112,-11.4155 5.349375,-13.14555 2.507503,-7.528014 17.629059,-27.133117 25.156399,-32.615283 3.062517,-2.230432 8.092743,-6.346695 11.178281,-9.147249 3.085539,-2.800555 6.825367,-5.92104 8.31073,-6.934411 1.485363,-1.013371 4.05466,-3.711636 5.709549,-5.996145 C 70.945298,43.775436 71.095,43.12073 70.452904,37.503856 69.63405,30.340757 68.587894,28.132644 62.433629,20.577637 57.258911,14.225128 55.76014,9.5409924 56.969339,3.5 c 0.755724,-3.77549402 0.807117,-3.64642217 0.915662,2.2996599 0.12094,6.6250921 1.529938,10.4559041 5.001194,13.5973481 3.808132,3.446312 7.908598,11.022905 9.071133,16.76109 1.655759,8.172699 -0.746747,13.054832 -9.569363,19.445902 -2.238821,1.621793 -6.279494,4.843008 -8.979274,7.158253 C 50.708911,65.077499 46.025,68.912455 43,71.284377 34.451351,77.987427 22.714867,93.593536 18.772427,103.5 c -0.875526,2.2 -3.452704,8.37459 -5.727063,13.72131 -2.274358,5.34672 -4.6031502,12.37792 -5.1750933,15.6249 C 6.7063515,139.45388 3.8061252,145 1.5146984,145 0.66666667,145 0,144.11974 0,143 Z m 129.73183,-12.21239 c 2.50782,-1.21021 3.88703,-6.25231 2.72191,-9.95067 -0.40493,-1.28532 -3.98937,-5.71194 -7.96543,-9.83694 -6.89596,-7.15427 -10.17379,-11.647856 -9.20393,-12.617711 0.24553,-0.24553 0.99088,0.868046 1.65635,2.474611 0.66546,1.60657 4.03649,5.41804 7.49118,8.46994 6.70864,5.92647 9.56809,10.58089 9.56809,15.57429 0,3.17671 -2.9702,7.15463 -5.25,7.03119 -0.6875,-0.0372 -0.24567,-0.55234 0.98183,-1.14471 z m -52.730742,-2.78558 c -1.367592,-2.55537 -0.374969,-7.92133 1.605943,-8.68148 2.624471,-1.0071 4.511824,1.73581 4.192476,6.09298 -0.243701,3.32505 -0.706134,4.14436 -2.481846,4.39715 -1.411713,0.20098 -2.582859,-0.43769 -3.316573,-1.80865 z M 81,125.05902 c 0,-1.06754 -0.402847,-2.18996 -0.895215,-2.49426 -1.077145,-0.66571 -1.984104,1.4366 -1.374144,3.18524 C 79.411162,127.70092 81,127.21714 81,125.05902 Z M 78.5,7.4506504 C 75.182456,5.7509311 73,3.3138099 73,1.3088704 c 0,-2.19959363 1.746424,-1.45533206 2.364608,1.0077087 0.834532,3.3250412 5.07727,5.188534 11.724217,5.1495043 C 93.319146,7.4294999 97,5.3419228 97,1.8450124 97,0.8302556 97.45,0 98,0 c 0.55,0 1,1.1316143 1,2.5146984 0,5.5505282 -13.129963,8.7119366 -20.5,4.935952 z"
       style="fill:#b4e3f8" />
    <path
       id="path6533"
       d="m 29.712472,231.00849 c -0.286434,-1.09532 -2.026418,-2.78282 -3.866631,-3.75 C 20.287499,224.33716 10.431992,213.78931 7.5309273,207.65696 5.6395279,203.65887 4.1442682,201.82333 2.4278218,201.39253 -0.49891369,200.65796 -0.82402259,198 2.0128648,198 c 1.5039129,0 2.8875155,1.79721 5.4720401,7.10784 C 11.714151,213.798 17.613513,220.52115 24.500949,224.5 31.105783,228.3156 33,229.903 33,231.62244 c 0,2.13068 -2.701735,1.62613 -3.287528,-0.61395 z M 162,231.62244 c 0,-1.8969 1.99504,-3.38714 8.91686,-6.66064 9.45683,-4.47238 17.55298,-15.84531 21.6851,-30.4618 2.14405,-7.58411 2.60622,-26.93432 0.81103,-33.95587 -0.7093,-2.77427 -1.77426,-8.61359 -2.36658,-12.97627 C 189.06379,132.96506 176.57747,101.80855 166.97355,87.5 161.06696,78.699985 150.13645,68.333306 139.59235,61.531213 131.23208,56.13793 125.57593,50.645021 123.93301,46.32381 123.41986,44.974105 123,40.590817 123,36.58317 c 0,-6.965064 0.20028,-7.59106 4.5382,-14.184901 5.43327,-8.258823 6.0756,-10.406219 4.59295,-15.3548814 C 130.80605,2.6205995 130.68044,0 131.79357,0 c 0.43646,0 1.31718,2.4963934 1.95717,5.547541 1.37498,6.555259 0.90946,8.125722 -4.96341,16.744315 -3.74028,5.48897 -4.27558,6.988416 -4.62086,12.943709 -0.21479,3.704561 -0.0968,7.905936 0.26223,9.336389 0.94697,3.773 9.22227,12.204455 15.41203,15.702847 7.11707,4.022495 21.60967,17.505353 26.98741,25.10711 10.50327,14.846999 23.67737,47.301199 25.36792,62.493509 0.5126,4.60648 1.7456,10.45648 2.74,13 0.99441,2.54352 2.10719,7.99958 2.47285,12.12458 0.62741,7.07772 0.40965,8.28273 -3.86761,21.40189 -3.4903,10.70542 -5.47734,15.12665 -8.64194,19.22856 -4.99047,6.46857 -9.99104,10.96235 -16.27721,14.62758 -2.60164,1.51692 -4.45438,3.20442 -4.11719,3.75 C 164.84215,232.55361 164.41648,233 163.55902,233 162.70156,233 162,232.3801 162,231.62244 Z M 86.166863,204.25383 c -0.733226,-0.26176 -2.194221,-2.48475 -3.246657,-4.93998 -1.113669,-2.59809 -5.990412,-8.82584 -11.666863,-14.89894 -9.834504,-10.52172 -12.31457,-14.64379 -11.469682,-19.06354 0.708656,-3.70709 3.290512,-4.54544 8.515619,-2.76506 3.269518,1.11403 5.238272,2.6276 7.123653,5.4766 2.83955,4.29085 3.712545,4.6837 5.533185,2.48996 1.45339,-1.75122 0.469021,-11.71468 -1.54998,-15.68837 C 78.034418,152.16475 69.379908,144 67.889939,144 c -0.455665,0 -2.515727,-2.5875 -4.577915,-5.75 -2.938211,-4.50594 -3.746136,-6.72361 -3.734198,-10.25 0.02124,-6.27342 5.526319,-15.14332 12.974874,-20.90537 4.311341,-3.33517 6.293273,-5.76448 8.158407,-10 4.480897,-10.175642 6.811345,-11.258262 11.048397,-5.132581 1.507273,2.179126 3.394073,3.979126 4.192889,4 0.798816,0.02087 2.881886,-1.347569 4.629047,-3.040982 2.04193,-1.979116 4.56136,-3.264662 7.05313,-3.598879 4.61546,-0.619062 6.13626,0.766324 8.81918,8.033892 1.29459,3.5068 3.74155,6.70212 8.80667,11.5 7.19838,6.81858 9.73958,10.96434 9.73958,15.8893 0,2.92497 -2.42109,7.25462 -4.0567,7.25462 -0.51882,0 -0.0433,-0.9 1.0567,-2 4.56458,-4.56458 1.64182,-12.53705 -7.5841,-20.6873 -4.88213,-4.31291 -6.90393,-6.99049 -8.99689,-11.915022 -3.72585,-8.766597 -7.93674,-9.585685 -14.4948,-2.819483 C 96.562622,99.078212 94.523304,98.946085 92,94 c -3.236895,-6.344839 -5.690839,-5.564064 -10.22809,3.254289 -2.73859,5.322571 -4.99333,8.178431 -8.495078,10.759891 -5.223896,3.851 -10.692478,11.40434 -12.443547,17.18733 -1.699454,5.61253 2.629362,13.5516 10.960523,20.10165 7.426206,5.83856 9.901957,10.17439 10.751151,18.82868 1.042237,10.62162 -2.876404,13.05568 -7.986478,4.9608 -1.834708,-2.90637 -3.60642,-4.32633 -6.46763,-5.18357 -5.288077,-1.58434 -7.092396,-0.74142 -7.084262,3.30955 0.0083,4.12408 1.555283,6.36176 11.493411,16.62485 4.493048,4.63996 9.103278,10.53541 10.51678,13.44859 3.069339,6.32582 5.130819,6.92645 9.439512,2.7503 l 3.244827,-3.14501 4.798381,2.55133 c 7.48175,3.97808 9.80906,3.52423 13.83854,-2.69868 3.75531,-5.79949 9.12238,-11.55001 15.38555,-16.48474 4.74038,-3.73492 7.90857,-11.35447 6.87336,-16.53052 -1.34017,-6.70083 -5.21641,-11.41022 -12.0486,-14.63827 -3.5488,-1.67673 -6.92869,-3.93862 -7.51087,-5.02644 -0.58218,-1.08781 -1.33377,-4.61144 -1.67021,-7.83029 -0.49422,-4.72841 -0.28642,-6.17774 1.08194,-7.54609 0.93151,-0.93151 2.31652,-1.69365 3.07781,-1.69365 1.15442,0 7.71493,3.90862 9.41643,5.61012 1.12776,1.12775 -3.57706,-1.02857 -5.11098,-2.34248 -0.91715,-0.78559 -2.71715,-1.27969 -4,-1.098 -2.11262,0.29922 -2.36013,0.90395 -2.62592,6.41592 -0.35473,7.35646 0.86668,9.18429 8.79241,13.15767 5.88797,2.95179 9.24089,6.98757 11.17869,13.45536 1.74438,5.82223 -1.10268,14.15668 -6.42259,18.80141 -8.87172,7.74577 -14.48761,13.78064 -16.32251,17.54029 -1.67941,3.44103 -2.42606,4.0005 -5.70006,4.27112 -2.42256,0.20024 -5.36696,-0.4874 -8.24795,-1.92624 l -4.480452,-2.23764 -2.252044,2.05127 c -3.024921,2.75525 -5.965258,4.13333 -7.585181,3.55503 z m 9.148509,-21.25995 c -3.649929,-1.47202 -4.425343,-4.23637 -3.683502,-13.13169 0.767052,-9.19761 2.718384,-12.50118 6.669282,-11.29095 3.078568,0.94301 4.613788,2.33376 7.335468,6.64518 3.16755,5.01773 6.41288,5.76116 10.42224,2.3875 3.73251,-3.1407 4.54334,-3.21573 5.96875,-0.55234 2.7208,5.08388 -0.82684,9.21759 -6.17744,7.19797 -3.09662,-1.16885 -3.37194,-1.0462 -8.46558,3.77116 -2.89568,2.73861 -5.705,4.97929 -6.24294,4.97929 -0.53794,0 -1.577379,0.19686 -2.309863,0.43747 -0.732483,0.24061 -2.31487,0.041 -3.516415,-0.44359 z m 7.800668,-3.10992 c 1.86893,-1.86893 2.03898,-2.83233 1.45616,-8.25 -0.75002,-6.97185 -3.12785,-10.99591 -6.756693,-11.43452 -3.553073,-0.42944 -4.462168,1.31239 -5.150419,9.86826 -0.475901,5.91609 -0.275163,8.04398 0.91978,9.75 1.991774,2.84366 6.720892,2.87654 9.531172,0.0663 z m 18.20829,-8.28676 c 0.29607,-0.77154 -0.0237,-2.17145 -0.71069,-3.1109 -1.15755,-1.58304 -1.36904,-1.58804 -2.88882,-0.0683 -0.90191,0.90191 -1.38582,2.30182 -1.07534,3.1109 0.71782,1.87062 3.96502,1.91804 4.67485,0.0683 z M 0,147.5 c 0,-1.56634 0.56568677,-2.5 1.5146984,-2.5 2.2914268,0 5.1916531,-5.54612 6.3555723,-12.15379 0.5719431,-3.24698 2.9007353,-10.27818 5.1750933,-15.6249 C 15.319723,111.87459 17.896901,105.7 18.772427,103.5 22.714867,93.593536 34.451351,77.987427 43,71.284377 46.025,68.912455 50.708911,65.077499 53.408691,62.762253 56.108471,60.447008 60.149144,57.225793 62.387965,55.604 71.210581,49.21293 73.613087,44.330797 71.957328,36.158098 70.794793,30.419913 66.694327,22.84332 62.886195,19.397008 61.736171,18.35625 60.166312,16.288506 59.397621,14.80202 57.921851,11.948196 57.437347,0 58.797393,0 c 0.438566,0 0.617238,2.8292774 0.397049,6.287283 -0.38148,5.99103 -0.230474,6.497563 3.204754,10.75 10.948522,13.553071 13.985693,22.450171 10.177581,29.814246 -1.952439,3.775602 -13.130236,13.531222 -28.280354,24.68218 -9.668567,7.116365 -21.792283,24.018285 -26.168702,36.482321 -1.059054,3.01618 -3.07261,7.95897 -4.474568,10.98397 -1.401959,3.025 -3.6833906,9.88267 -5.0698488,15.23926 -1.3864582,5.35659 -3.2214452,11.09409 -4.0777488,12.75 C 2.5907527,150.69208 0,150.98576 0,147.5 Z m 93.656346,-9.32724 c -2.505006,-2.768 -3.410161,-18.47516 -1.34773,-23.38717 1.866444,-4.44523 5.470195,-5.81576 9.077434,-3.45221 1.77501,1.16303 2.77925,3.35952 3.99272,8.7329 2.38522,10.56211 2.15637,13.55243 -1.30185,17.01064 -3.40242,3.40243 -7.904663,3.87589 -10.420574,1.09584 z m 7.317374,-0.9504 c 1.93946,-1.57048 2.21457,-2.82753 2.36078,-10.78705 0.13111,-7.13755 -0.20289,-9.57309 -1.60755,-11.72237 -2.127991,-3.25603 -4.736318,-3.46883 -7.321962,-0.59738 -2.687217,2.98424 -2.596144,19.91075 0.123297,22.91569 2.201766,2.43293 3.624804,2.47512 6.445435,0.19111 z M 78.730641,125.75 c -0.60996,-1.74864 0.296999,-3.85095 1.374144,-3.18524 1.177106,0.72749 1.159173,4.43524 -0.02145,4.43524 -0.504166,0 -1.112878,-0.5625 -1.352692,-1.25 z M 80.557825,9.5078785 C 75.213464,7.6040369 71.565767,4.7417756 71.180449,2.1496738 70.72038,-0.94529093 72.37371,-0.49757745 73.622552,2.810983 76.786115,11.192219 99,10.932869 99,2.5146984 99,1.1316143 99.45,0 100,0 101.74684,0 101.07689,4.6204447 99.066196,6.4400934 96.708703,8.5735954 90.398893,10.912214 87,10.912214 c -1.375,0 -4.273979,-0.631951 -6.442175,-1.4043355 z"
       style="fill:#90d7f5" />
    <path
       id="path6531"
       d="m 32.487128,230.78377 c -0.54292,-1.21892 -3.725844,-3.80642 -7.073163,-5.75 C 17.646898,220.52393 11.854514,214.08641 7.4849049,205.10784 4.9003803,199.79721 3.5167777,198 2.0128648,198 0.89031831,198 0,197.33653 0,196.5 c 0,-1.87476 2.4076505,-1.94949 4.2259643,-0.13118 0.7528517,0.75285 2.4724946,4.20633 3.8214285,7.67441 3.4569132,8.88762 11.2944712,17.19122 19.8723662,21.05402 C 33.997093,227.834 37,230.18 37,232.19113 c 0,1.78395 -3.590108,0.66436 -4.512872,-1.40736 z m 126.102712,1.36159 c -0.90386,-1.46247 3.66342,-4.90664 9.41016,-7.09619 6.49843,-2.47595 8.02687,-3.69318 14.19604,-11.30558 8.53049,-10.52613 11.16501,-20.87805 10.65325,-41.86028 -0.39423,-16.16343 0.88359,-15.71238 1.74706,0.61669 0.87813,16.60646 -3.10747,30.73554 -11.91176,42.22759 -4.22849,5.51936 -6.48328,7.42997 -12.18653,10.32634 -3.92775,1.99469 -7.43115,4.51743 -7.98519,5.75 -1.00163,2.22834 -2.96085,2.89827 -3.92303,1.34143 z m -72.8858,-27.25118 c -0.987778,-0.57475 -2.832663,-3.38917 -4.099744,-6.25426 -1.267081,-2.8651 -3.833899,-6.45755 -5.70404,-7.98324 -5.740561,-4.68321 -15.85648,-16.97176 -16.836427,-20.45244 -1.120515,-3.97997 0.32244,-8.87467 2.853018,-9.67785 3.122268,-0.99097 10.429727,2.30809 13.788459,6.22501 4.4599,5.20108 5.931131,3.64852 4.459507,-4.70602 -1.267782,-7.19731 -3.66938,-10.92041 -9.737203,-15.09519 -2.441739,-1.67996 -6.269844,-5.84351 -8.506899,-9.25233 -3.466491,-5.28224 -4.003586,-6.80119 -3.6356,-10.28177 0.628502,-5.94467 6.434755,-15.16634 12.772495,-20.28569 2.993317,-2.41787 6.452588,-6.02384 7.687271,-8.013264 1.234682,-1.989425 2.2455,-3.167136 2.246262,-2.617136 0.0032,2.321763 -4.048404,7.32715 -8.92705,11.0285 -6.954029,5.27592 -12.465411,14.31195 -12.486263,20.4715 -0.01194,3.52639 0.795987,5.74406 3.734198,10.25 2.062188,3.1625 4.12225,5.75 4.577915,5.75 1.489969,0 10.144479,8.16475 11.516199,10.8645 2.019001,3.97369 3.00337,13.93715 1.54998,15.68837 -1.82064,2.19374 -2.693635,1.80089 -5.533185,-2.48996 -1.885381,-2.849 -3.854135,-4.36257 -7.123653,-5.4766 -5.225107,-1.78038 -7.806963,-0.94203 -8.515619,2.76506 -0.844888,4.41975 1.635178,8.54182 11.469682,19.06354 5.676451,6.0731 10.553194,12.30085 11.666863,14.89894 1.052436,2.45523 2.513431,4.67822 3.246657,4.93998 1.619923,0.5783 4.56026,-0.79978 7.585181,-3.55503 l 2.252044,-2.05127 4.480452,2.23764 c 2.88099,1.43884 5.82539,2.12648 8.24795,1.92624 3.274,-0.27062 4.02065,-0.83009 5.70006,-4.27112 1.8349,-3.75965 7.45079,-9.79452 16.32251,-17.54029 5.31991,-4.64473 8.16697,-12.97918 6.42259,-18.80141 -1.71052,-5.7092 -5.21522,-10.37272 -9.70722,-12.91691 -2.18374,-1.23683 -3.47448,-2.25618 -2.86831,-2.26523 2.03257,-0.0303 7.82782,4.49781 10.13158,7.91636 4.12836,6.12607 4.84312,10.38708 2.82765,16.85677 -1.38991,4.46161 -2.87098,6.69452 -6.77248,10.21042 -10.26129,9.24714 -14.66494,14.15924 -15.30464,17.07178 -1.01637,4.6275 -4.34482,6.31189 -9.65152,4.88421 -2.38299,-0.6411 -5.52392,-1.78109 -6.979834,-2.5333 -2.443209,-1.2623 -2.935254,-1.13867 -6.387504,1.60483 -4.167853,3.31219 -4.241888,3.33263 -6.761332,1.86666 z m 7.852664,-25.11669 c -0.856187,-1.22237 -1.510641,-3.35987 -1.454343,-4.75 0.09268,-2.28844 0.172168,-2.23549 0.840423,0.5598 C 94.037415,180.1661 94.82022,181 98.023833,181 c 4.144247,0 5.030257,-2.35355 4.114047,-10.92832 -0.80049,-7.49166 -1.9544,-9.29839 -5.63788,-8.82741 -1.641436,0.20988 -2.105239,1.24178 -2.587003,5.75573 l -0.587004,5.5 -0.162996,-5.12756 c -0.179828,-5.65702 1.250361,-7.74481 4.931635,-7.1992 3.379178,0.50083 5.749728,4.69503 6.477568,11.46072 0.58282,5.41767 0.41277,6.38107 -1.45616,8.25 -2.8296,2.8296 -7.539578,2.77714 -9.559336,-0.10647 z m 23.092776,-8.24855 c -0.31048,-0.80908 0.17343,-2.20899 1.07534,-3.1109 1.51978,-1.51978 1.73127,-1.51478 2.88882,0.0683 0.68695,0.93945 1.00676,2.33936 0.71069,3.1109 -0.70983,1.84978 -3.95703,1.80236 -4.67485,-0.0683 z M 191.19495,153.5 c 0.0204,-1.65 0.2445,-2.20394 0.49804,-1.23097 0.25354,0.97297 0.23687,2.32297 -0.0371,3 -0.27393,0.67703 -0.48137,-0.11903 -0.46099,-1.76903 z M 0,152 c 0,-1.1 0.66344393,-2 1.4743199,-2 2.1304441,0 4.2403164,-4.67762 7.1089843,-15.76074 C 9.9697624,128.88267 12.251194,122.025 13.653153,119 c 1.401958,-3.025 3.415514,-7.96779 4.474568,-10.98397 C 22.50414,95.551994 34.627856,78.650074 44.296423,71.533709 59.446541,60.382751 70.624338,50.627131 72.576777,46.851529 76.371855,39.512659 73.330658,30.553471 62.502147,17.172261 59.500424,13.462915 59.002188,12.105454 59.015313,7.6722607 59.023735,4.8275173 59.480699,1.825 60.030789,1 c 0.688829,-1.03307405 0.803457,0.5353848 0.368243,5.0386754 l -0.63192,6.5386756 5.238879,6.461324 c 6.932994,8.550745 9.971889,15.113337 9.98424,21.561287 0.01207,6.301964 -3.23526,11.242645 -11.121867,16.92146 -2.9526,2.126044 -7.238791,5.46597 -9.524869,7.422056 C 52.057417,66.899565 47.676352,70.3 44.607795,72.5 c -8.930907,6.403008 -21.568114,23.93391 -25.229861,35 -0.90997,2.75 -2.65504,7.025 -3.877934,9.5 -2.404495,4.86643 -4.001912,9.7903 -7.4617278,23 -1.2244516,4.675 -2.688569,9.7375 -3.2535942,11.25 C 3.5593385,154.53008 0,155.088 0,152 Z m 190,-5.14544 C 190,138.1418 174.4201,99.836509 165.65537,87 161.1282,80.36968 148.06241,68.304642 139.05825,62.440052 131.44694,57.482651 124.57215,50.713142 123.05809,46.6849 122.47614,45.136596 122,40.618183 122,36.643983 c 0,-6.948558 0.19185,-7.529641 5,-15.143983 5.20972,-8.250293 5.8991,-11.303222 3.5,-15.5 -1.57012,-2.7466447 -1.95309,-6 -0.70628,-6 1.1665,0 3.51118,11.463976 2.80181,13.699002 -0.33376,1.051608 -2.6293,4.991257 -5.10119,8.754775 C 123.2058,28.983196 123,29.630207 123,36.58317 c 0,4.007647 0.41986,8.390935 0.93301,9.74064 1.64292,4.321211 7.29907,9.81412 15.65934,15.207403 17.10378,11.033795 27.77256,23.655185 37.16653,43.968787 8.78721,19.00152 16.74068,44.5 13.88041,44.5 C 190.28768,150 190,148.58455 190,146.85456 Z m -70.97022,-2.54384 c -1.72485,-2.19278 -2.06133,-3.80819 -1.82258,-8.75 0.27466,-5.68516 0.45302,-6.07934 2.8784,-6.36128 1.43883,-0.16725 3.15634,0.38715 3.87244,1.25 0.70777,0.85281 2.01925,1.58609 2.9144,1.62951 0.93757,0.0455 1.12348,0.28416 0.43854,0.563 -0.65396,0.26624 -2.33799,-0.26877 -3.74228,-1.18889 -4.09341,-2.68211 -5.5687,-1.34071 -5.5687,5.0633 0,4.74867 0.39387,5.94416 2.64602,8.03139 1.45532,1.34874 2.16298,2.45225 1.57258,2.45225 -0.59039,0 -2.02536,-1.21017 -3.18882,-2.68928 z m -24.501495,-7.27947 c -2.719441,-3.00494 -2.810514,-19.93145 -0.123297,-22.91569 2.585644,-2.87145 5.193971,-2.65865 7.321962,0.59738 1.40466,2.14928 1.73866,4.58482 1.60755,11.72237 -0.14621,7.95952 -0.42132,9.21657 -2.36078,10.78705 -2.820631,2.28401 -4.243669,2.24182 -6.445435,-0.19111 z m 5.843725,-0.82416 c 0.26953,-0.43611 0.80862,-4.71908 1.19798,-9.51772 0.61756,-7.61111 0.47893,-8.97783 -1.08602,-10.70708 -4.700499,-5.194 -8.135395,0.0988 -7.124304,10.97772 0.351285,3.77969 0.912212,7.58492 1.246505,8.45607 0.623916,1.6259 4.888288,2.21092 5.765839,0.79101 z m 30.29259,-4.20666 c 1.19052,-0.48004 2.63934,-1.68901 3.21959,-2.68661 0.84528,-1.45327 1.06104,-1.50571 1.0854,-0.26382 0.0426,2.17047 -1.99418,3.96161 -4.41959,3.88661 -1.98788,-0.0615 -1.98441,-0.0898 0.1146,-0.93618 z M 135.19495,124.5 c 0.0204,-1.65 0.2445,-2.20394 0.49804,-1.23097 0.25354,0.97297 0.23687,2.32297 -0.0371,3 -0.27393,0.67703 -0.48137,-0.11903 -0.46099,-1.76903 z m -1.55998,-5.81827 c -0.33288,-1.32628 -3.73133,-5.36042 -7.55211,-8.96475 -6.40925,-6.04616 -10.90867,-12.224508 -9.7479,-13.385271 0.26533,-0.265336 0.80439,0.531976 1.19789,1.771805 0.39351,1.239829 4.24212,5.814206 8.55246,10.165286 7.15892,7.22657 9.87009,11.10913 8.62609,12.35313 -0.25916,0.25917 -0.74356,-0.61393 -1.07643,-1.9402 z M 91.712448,91.895956 c -3.297752,-4.765405 -5.211264,-4.763395 -8.42728,0.0088 -2.801394,4.15699 -3.036979,2.840515 -0.296128,-1.654805 3.062803,-5.023361 6.552971,-4.156415 11.158386,2.771707 L 95.794851,95.5 98.647426,92.872186 c 6.138694,-5.655015 13.104424,-6.706741 15.923534,-2.404229 0.88939,1.357376 1.38529,3.044876 1.102,3.75 -0.34924,0.869301 -0.54048,0.768543 -0.59401,-0.312969 -0.0434,-0.877257 -0.96877,-2.400288 -2.05633,-3.384514 -2.80589,-2.539295 -8.49279,-1.426338 -12.48541,2.443461 -1.722834,1.669836 -3.786001,3.018987 -4.584817,2.998114 -0.798816,-0.02087 -2.706791,-1.850615 -4.239945,-4.066093 z M 79.17736,9.9944083 C 72.755178,7.0799421 69,4.1050906 69,1.9319058 c 0,-2.67058462 1.787917,-2.43793079 2.180449,0.2837324 0.384338,2.6648465 5.639532,6.3895276 11.083213,7.8553588 C 90.095593,12.179917 100.1801,8.1829709 100.81642,2.7176986 100.99045,1.2229644 101.60174,0 102.17483,0 104.03105,0 102.0267,5.4088924 99.349518,7.6243042 93.884694,12.14654 85.969081,13.076576 79.17736,9.9944083 Z"
       style="fill:#60caf3" />
    <path
       id="path6529"
       d="m 36.589685,231.13727 c -0.556667,-1.65229 -2.978297,-3.37101 -8.053615,-5.71595 -9.561987,-4.41791 -16.871591,-12.20536 -20.9105308,-22.27749 -2.2041193,-5.49653 -3.4284509,-7.30724 -5.25,-7.76442 -3.08449518,-0.77416 -3.21036805,-3.63788 -0.1406084,-3.19896 1.7552885,0.25097 3.0966117,2.27458 6.25,9.42915 5.4547642,12.37605 10.7176142,18.34643 19.3118862,21.90815 7.778229,3.22353 10.560188,5.48046 9.993405,8.1074 -0.353369,1.63779 -0.505165,1.5761 -1.200537,-0.48788 z M 155,232.19113 c 0,-2.60859 4.81994,-5.72779 13.5,-8.73645 6.03492,-2.09182 12.91739,-9.0082 17.47725,-17.56337 C 197.35163,184.55078 192.46384,143.09589 174.02257,104.5 165.05053,85.722317 155.83463,75.051887 138.81289,63.733231 128.81895,57.087723 122.32352,50.241455 121.4143,45.39486 c -0.34856,-1.857974 -0.46218,-6.644399 -0.2525,-10.636498 0.34935,-6.651153 0.75172,-7.801263 4.80972,-13.748006 C 130.80385,13.928897 131.62881,9.4572982 128.7,6.2209975 126.99609,4.338199 126.33731,0 127.75531,0 c 0.89974,0 3.22309,6.2751597 3.88758,10.5 0.37079,2.357464 -0.61133,4.704666 -4.58552,10.959083 C 122.1818,29.13206 122,29.677913 122,36.643983 c 0,3.9742 0.47614,8.492613 1.05809,10.040917 1.51406,4.028242 8.38885,10.797751 16.00016,15.755152 9.00416,5.86459 22.06995,17.929628 26.59712,24.559948 5.86032,8.582822 13.63961,25.21761 18.70606,40 5.80649,16.9416 8.63857,33.13342 8.63857,49.38927 0,17.69774 -3.07627,28.08985 -11.23509,37.95379 -5.8365,7.05628 -7.4219,8.28938 -13.76491,10.70611 -5.74674,2.18955 -10.31402,5.63372 -9.41016,7.09619 C 158.88035,232.61541 158.19148,233 157.05902,233 155.92656,233 155,232.63601 155,232.19113 Z M 83.781415,205.25 c -0.840708,-0.9625 -2.084026,-3.47894 -2.762929,-5.59208 -0.712865,-2.21885 -3.129473,-5.59874 -5.719967,-8 -8.957842,-8.30346 -17.177388,-18.49532 -17.862842,-22.1491 -0.857748,-4.57219 1.100294,-9.35425 4.142824,-10.11788 3.727787,-0.93561 12.077097,2.371 14.986409,5.93513 l 2.590803,3.17393 -0.413568,-5.79147 c -0.483081,-6.7649 -2.189191,-9.46908 -9.595305,-15.20853 -2.838852,-2.2 -6.787487,-6.61878 -8.774745,-9.8195 -3.147103,-5.0688 -3.5521,-6.42328 -3.13957,-10.5 0.68657,-6.78486 6.414036,-15.89311 13.367065,-21.25733 4.595286,-3.54524 6.376399,-5.82685 9.292658,-11.903908 2.258007,-4.705359 4.29206,-7.644924 5.436847,-7.857204 3.440758,-0.638024 6.634175,0.866233 8.178397,3.852429 1.697459,3.282526 2.680545,3.639173 4.671079,1.694589 C 101.62652,88.340726 104.73598,87 109.10006,87 c 5.37285,0 6.01631,0.603258 8.38485,7.860965 1.41971,4.35032 3.30631,6.895325 10.00744,13.499995 6.98069,6.88021 8.36758,8.79301 8.967,12.36731 0.88589,5.28242 -0.008,9.5537 -2.4661,11.77784 -1.89514,1.71507 -5.35832,1.70315 -12.24325,-0.0422 -2.67277,-0.67754 -2.75,-0.57966 -2.75,3.4852 0,5.89314 1.33136,7.76014 7.67593,10.76415 8.63269,4.08739 14.145,13.12957 13.03754,21.38628 -0.77836,5.80311 -4.49577,12.65969 -8.51035,15.69692 -7.84257,5.93332 -13.31808,11.81023 -14.63089,15.70349 -1.82242,5.40459 -5.18516,7.31538 -10.26355,5.83202 -2.09477,-0.61187 -5.2315,-1.69556 -6.970494,-2.4082 -2.912225,-1.19344 -3.439795,-1.0837 -6.683279,1.39023 -4.086447,3.11688 -6.725399,3.39523 -8.873492,0.93595 z m 8.683957,-2.22248 c 3.45225,-2.7435 3.944295,-2.86713 6.387504,-1.60483 1.455914,0.75221 4.596844,1.8922 6.979834,2.5333 5.3067,1.42768 8.63515,-0.25671 9.65152,-4.88421 0.68179,-3.10416 6.74533,-9.81503 14.75713,-16.33256 3.3933,-2.76042 5.17304,-5.23087 6.69082,-9.28751 2.62285,-7.01018 2.58553,-8.81246 -0.3096,-14.95171 -2.75294,-5.83773 -5.6934,-8.79599 -10.90928,-10.97532 C 119.51513,144.93492 118,142.76316 118,136.46862 c 0,-6.31337 1.4849,-7.69137 5.47254,-5.07857 2.92062,1.91367 8.87024,2.1218 10.28954,0.35995 1.79579,-2.22919 2.38535,-7.48878 1.29382,-11.54241 -0.76586,-2.84417 -3.25848,-6.17812 -8.84745,-11.83368 C 121.9288,104.04326 117.85197,98.925 117.14883,97 c -2.57424,-7.047561 -3.64647,-8.492437 -6.5512,-8.828082 -4.32591,-0.499862 -7.20536,0.544771 -11.221579,4.071054 L 95.715424,95.457046 94.107712,93.00023 C 88.599169,84.582382 85.786352,85.03188 80.5,95.174791 c -2.989927,5.736769 -5.374304,8.770329 -9.442394,12.013259 -6.337591,5.05209 -12.139475,14.24064 -12.772495,20.22804 -0.367986,3.48058 0.169109,4.99953 3.6356,10.28177 2.237055,3.40882 6.06516,7.57237 8.506899,9.25233 6.067823,4.17478 8.469421,7.89788 9.737203,15.09519 1.471624,8.35454 3.93e-4,9.9071 -4.459507,4.70602 -3.358732,-3.91692 -10.666191,-7.21598 -13.788459,-6.22501 -2.530578,0.80318 -3.973533,5.69788 -2.853018,9.67785 0.979947,3.48068 11.095866,15.76923 16.836427,20.45244 1.870141,1.52569 4.436959,5.11814 5.70404,7.98324 2.002116,4.52713 4.397512,7.22488 6.508199,7.32967 0.336873,0.0167 2.295667,-1.30721 4.352877,-2.94207 z M 93.958595,178.75 c -0.611024,-1.37683 -0.699723,-5.16056 -0.228561,-9.75 0.661634,-6.44477 1.051362,-7.53598 2.769966,-7.75573 3.68348,-0.47098 4.83739,1.33575 5.63788,8.82741 0.92173,8.62649 0.0383,10.92832 -4.194503,10.92832 -2.13433,0 -3.271116,-0.64188 -3.984782,-2.25 z M 100.17284,172 c -0.324886,-7.4478 -2.088122,-11.5707 -4.044531,-9.45714 -1.307225,1.41222 -2.029235,13.88279 -0.918669,15.86726 0.553131,0.98839 1.868173,1.57734 3.122918,1.39861 2.037532,-0.29023 2.147832,-0.75827 1.840282,-7.80873 z m -5.566669,-36.58392 c -0.334293,-0.87115 -0.89522,-4.67638 -1.246505,-8.45607 -1.011091,-10.87894 2.423805,-16.17172 7.124304,-10.97772 1.56495,1.72925 1.70358,3.09597 1.08602,10.70708 -0.38936,4.79864 -0.92845,9.08161 -1.19798,9.51772 -0.877551,1.41991 -5.141923,0.83489 -5.765839,-0.79101 z M 99,133.57629 c 0,-1.33304 0.525587,-4.70068 1.16797,-7.48364 C 101.46814,120.46001 100.28768,116 97.496688,116 c -3.216165,0 -4.246992,10.0608 -1.86989,18.25 C 96.399104,136.91062 99,136.39116 99,133.57629 Z M 0,156.5 c 0,-1.77952 0.54142136,-2.5 1.8786797,-2.5 2.157966,0 2.9852945,-1.88042 6.1595925,-14 C 11.498088,126.7903 13.095505,121.86643 15.5,117 c 1.222894,-2.475 2.967964,-6.75 3.877934,-9.5 3.661747,-11.06609 16.298954,-28.596992 25.229861,-35 3.068557,-2.2 7.449622,-5.600435 9.7357,-7.556522 2.286078,-1.956086 6.572269,-5.296012 9.524869,-7.422056 2.952601,-2.126044 6.665101,-5.655626 8.25,-7.843517 C 77.725743,41.937143 75.418218,31.879009 65.122436,19.183768 59.722101,12.52487 59.044206,9.7247564 61.08337,2.5 61.69812,0.32194155 61.798996,1.0864897 61.451557,5.2905203 60.928362,11.621209 61.713202,13.873103 66.055383,18.5 c 4.775276,5.088391 9.729953,14.303775 10.431,19.400996 1.08084,7.85864 -2.527332,13.744127 -13.486383,21.998381 -3.025,2.278402 -7.525,5.70339 -10,7.611084 -2.475,1.907694 -6.464807,4.935761 -8.866239,6.729037 -14.996826,11.198927 -30.621855,42.953382 -37.2446227,75.691552 -0.4930089,2.43708 -1.5801243,5.47458 -2.4158121,6.75 C 2.4375922,159.78798 0,159.68932 0,156.5 Z M 78.028439,10.927734 C 71.70243,8.0581975 67,4.22979 67,1.9491087 c 0,-2.69936678 1.788546,-2.45725093 2.180449,0.2951678 0.378942,2.6613927 9.352643,8.3899035 14.720154,9.3968545 4.165173,0.781391 11.301223,-0.936592 15.086678,-3.6320743 1.484029,-1.0567213 3.173049,-3.4035542 3.753389,-5.2151841 0.97003,-3.02813997 1.06339,-3.08711036 1.15724,-0.7309638 0.12323,3.0936011 -3.85106,7.1848378 -9.115791,9.3840432 -5.057528,2.11265 -11.383844,1.91659 -16.75368,-0.519218 z"
       style="fill:#39c1f0" />
    <path
       id="path6527"
       d="m 38,231.15499 c 0,-2.57127 -2.432957,-4.38931 -10.203183,-7.6244 -8.59565,-3.57875 -13.862528,-9.5572 -19.3118862,-21.92099 -3.1533883,-7.15457 -4.4947115,-9.17818 -6.25,-9.42915 C 0.02533801,191.86452 0,191.67462 0,175.43045 0,161.60625 0.23427823,159 1.476947,159 3.5409645,159 5.8307016,155.1632 6.8891383,149.93105 13.511906,117.19288 29.136935,85.438425 44.133761,74.239498 46.535193,72.446222 50.525,69.418155 53,67.510461 55.475,65.602767 59.975,62.177779 63,59.899377 73.959051,51.645123 77.567223,45.759636 76.486383,37.900996 75.785336,32.803775 70.830659,23.588391 66.055383,18.5 61.636209,13.791062 60.905619,11.654379 61.624183,5.5405203 62.208702,0.56717758 62.517191,0 64.637681,0 66.312773,0 67,0.56701904 67,1.9491087 67,5.9729776 79.497666,12.940678 86.782119,12.978038 94.660814,13.018446 104,7.2335513 104,2.3129088 104,0.02977874 104.14806,0 115.5,0 126.63569,0 127,0.06878366 127,2.1712593 c 0,1.1941927 0.765,3.0165748 1.7,4.0497382 2.92881,3.2363007 2.10385,7.7078995 -2.72848,14.7893585 -4.058,5.946743 -4.46037,7.096853 -4.80972,13.748006 -0.20968,3.992099 -0.0961,8.778524 0.2525,10.636498 0.90922,4.846595 7.40465,11.692863 17.39859,18.338371 17.02174,11.318656 26.23764,21.989086 35.20968,40.766769 14.86967,31.12086 21.34533,65.94264 16.50815,88.76981 -2.86362,13.51374 -12.63766,26.91334 -22.03072,30.20275 -8.0496,2.81894 -11.66032,4.87568 -12.77592,7.27744 L 154.67897,233 H 96.339485 C 40.300241,233 38,232.92725 38,231.15499 Z m 113.82506,-7.02921 c 1.27879,-0.70207 5.93541,-1.64045 10.34804,-2.08529 7.82586,-0.78893 8.14199,-0.92603 12.867,-5.57999 5.28906,-5.20953 11.34805,-14.6863 13.07503,-20.45043 0.69812,-2.33013 0.96086,-11.07374 0.72371,-24.08415 -0.35618,-19.53999 -0.48529,-20.66447 -2.97674,-25.92592 -1.43243,-3.025 -2.91022,-7.91775 -3.28399,-10.87279 -0.37376,-2.95503 -1.51297,-7.45503 -2.53156,-10 -7.52224,-18.79442 -9.48597,-23.14267 -13.52453,-29.947095 C 160.54876,85.115959 147.44483,71.464017 139.95303,67.5 137.87409,66.4 133.2303,63.113022 129.6335,60.195603 121.26139,53.404858 117.50463,46.366913 117.51887,37.5 c 0.008,-5.261056 0.59288,-7.065795 4.74538,-14.653925 C 124.86891,18.086416 127,13.332261 127,12.281287 c 0,-3.4342403 -6.01588,-5.3867153 -14.24173,-4.6222034 -5.93902,0.551974 -8.21696,1.3279356 -13.354282,4.5490244 -9.529049,5.974694 -11.893668,6.005686 -22.937683,0.300634 -14.424822,-7.4514891 -16.59633,-4.2986305 -5.985387,8.690311 7.3944,9.051544 9.968842,15.589749 8.914378,22.63948 C 78.640372,48.885656 74.02778,55.447251 68.95783,58.686241 67.056023,59.901229 63.025,62.925628 60,65.407127 56.975,67.888626 51.142099,72.299681 47.037999,75.209472 38.243991,81.444387 33.061074,88.19007 26.069845,102.5 c -6.225867,12.74336 -7.487294,15.80285 -11.544393,28 -4.354868,13.09236 -4.265039,12.60041 -5.5007901,30.12528 -1.3371136,18.96236 -0.1144732,38.22032 2.8299031,44.57416 4.276531,9.22857 14.31028,16.73232 22.521162,16.84248 1.71835,0.023 4.564502,0.81055 6.324782,1.75 2.905572,1.55067 8.066156,1.70358 56,1.65921 40.867671,-0.0378 53.324921,-0.33733 55.124551,-1.32535 z M 82.825006,208.96188 C 81.237675,208.03572 79.933349,204.9063 78.573812,198.76216 78.167203,196.92458 76.740192,195.3928 74.234,194.10374 69.98113,191.91629 66.716773,188.67049 61.558193,181.5 56.476434,174.4363 55,170.77194 55,165.22325 c 0,-8.15326 2.94335,-9.87523 13.232279,-7.74137 3.005066,0.62323 3.854578,0.45535 4.359952,-0.86163 0.90965,-2.37051 -2.042535,-6.29917 -6.406463,-8.52548 -2.340472,-1.19402 -5.101798,-3.96583 -7.235375,-7.26286 -3.129278,-4.83569 -3.44334,-5.98337 -3.374611,-12.33191 0.08977,-8.29199 2.508256,-14.46242 7.533881,-19.22164 12.410363,-11.752506 13.796666,-13.44432 15.325319,-18.702701 0.849653,-2.922706 2.281208,-5.925154 3.181231,-6.672107 2.611596,-2.167432 8.910096,-1.69719 11.641866,0.869175 C 96.170549,87.50885 97.650157,87.549651 101.5,85 c 3.60147,-2.38516 11.10679,-2.66414 14.15898,-0.526303 1.52551,1.068504 2.30008,3.043086 2.81716,7.181621 0.59709,4.778949 1.27035,6.20731 4.13673,8.776302 7.29227,6.53571 12.59181,12.19203 14.11792,15.06838 0.87544,1.65 1.79782,6.17669 2.04973,10.0593 C 139.38744,134.91357 138.36227,136 128.92857,136 122.29991,136 122,136.10292 122,138.37756 c 0,2.72686 1.44107,4.12218 7.87239,7.62244 3.21531,1.74994 5.87368,4.41711 8.86053,8.88989 5.45178,8.16396 5.86709,14.18455 1.45994,21.16433 -1.54392,2.44518 -3.09695,5.21282 -3.45117,6.15032 -0.35421,0.93749 -2.16448,2.73749 -4.0228,4 -9.35488,6.35549 -12.83148,9.42013 -13.34425,11.76302 -2.04617,9.34902 -3.30856,10.94563 -9.28857,11.74772 -2.91329,0.39076 -5.09451,-0.039 -8.07002,-1.58989 -5.016851,-2.61494 -5.568184,-2.62284 -8.743179,-0.12539 -2.700076,2.12388 -7.671835,2.5816 -10.447865,0.96188 z m 9.829901,-4.64783 c 3.243484,-2.47393 3.771054,-2.58367 6.683279,-1.39023 1.738994,0.71264 4.875724,1.79633 6.970494,2.4082 5.07839,1.48336 8.44113,-0.42743 10.26355,-5.83202 1.31281,-3.89326 6.78832,-9.77017 14.63089,-15.70349 4.01458,-3.03723 7.73199,-9.89381 8.51035,-15.69692 1.10746,-8.25671 -4.40485,-17.29889 -13.03754,-21.38628 C 120.33136,143.7093 119,141.8423 119,135.94916 c 0,-4.06486 0.0772,-4.16274 2.75,-3.4852 6.88493,1.7453 10.34811,1.75722 12.24325,0.0422 2.45765,-2.22414 3.35199,-6.49542 2.4661,-11.77784 -0.59942,-3.5743 -1.98631,-5.4871 -8.967,-12.36731 -6.70113,-6.60467 -8.58773,-9.149675 -10.00744,-13.499995 C 115.11637,87.603258 114.47291,87 109.10006,87 c -4.36408,0 -7.47354,1.340726 -10.921489,4.709076 -1.990534,1.944584 -2.97362,1.587937 -4.671079,-1.694589 -1.544222,-2.986196 -4.737639,-4.490453 -8.178397,-3.852429 -1.144787,0.21228 -3.17884,3.151845 -5.436847,7.857204 -2.916259,6.077058 -4.697372,8.358668 -9.292658,11.903908 -6.953029,5.36422 -12.680495,14.47247 -13.367065,21.25733 -0.41253,4.07672 -0.0075,5.4312 3.13957,10.5 1.987258,3.20072 5.935893,7.6195 8.774745,9.8195 7.406114,5.73945 9.112224,8.44363 9.595305,15.20853 L 79.155713,168.5 76.56491,165.32607 c -2.909312,-3.56413 -11.258622,-6.87074 -14.986409,-5.93513 -3.04253,0.76363 -5.000572,5.54569 -4.142824,10.11788 0.685454,3.65378 8.905,13.84564 17.862842,22.1491 2.590494,2.40126 5.007102,5.78115 5.719967,8 2.506412,7.80143 5.790095,9.11534 11.636421,4.65613 z m 2.554733,-25.90393 c -1.110566,-1.98447 -0.388556,-14.45504 0.918669,-15.86726 1.956409,-2.11356 3.719645,2.00934 4.044531,9.45714 0.30755,7.05046 0.19725,7.5185 -1.840282,7.80873 -1.254745,0.17873 -2.569787,-0.41022 -3.122918,-1.39861 z M 95.626798,134.25 C 93.249696,126.0608 94.280523,116 97.496688,116 c 2.790992,0 3.971452,4.46001 2.671282,10.09265 C 99.525587,128.87561 99,132.24325 99,133.57629 c 0,2.81487 -2.600896,3.33433 -3.373202,0.67371 z"
       style="fill:#05acec" />
    <path
       id="path6525"
       d="m 40.700509,223.79192 c -1.76028,-0.93945 -4.606432,-1.72695 -6.324782,-1.75 C 26.164845,221.93176 16.131096,214.42801 11.854565,205.19944 8.9101887,198.8456 7.6875483,179.58764 9.0246619,160.62528 10.260413,143.10041 10.170584,143.59236 14.525452,130.5 18.582551,118.30285 19.843978,115.24336 26.069845,102.5 33.061074,88.19007 38.243991,81.444387 47.037999,75.209472 51.142099,72.299681 56.975,67.888626 60,65.407127 c 3.025,-2.481499 7.056023,-5.505898 8.95783,-6.720886 5.06995,-3.23899 9.682542,-9.800585 10.437466,-14.847708 C 80.44976,36.788802 77.875318,30.250597 70.480918,21.199053 59.869975,8.2101115 62.041483,5.0572529 76.466305,12.508742 87.51032,18.213794 89.874939,18.182802 99.403988,12.208108 104.54131,8.9870192 106.81925,8.2110576 112.75827,7.6590836 120.98412,6.8945717 127,8.8470467 127,12.281287 c 0,1.050974 -2.13109,5.805129 -4.73575,10.564788 -4.1525,7.58813 -4.73693,9.392869 -4.74538,14.653925 -0.0142,8.866913 3.74252,15.904858 12.11463,22.695603 3.5968,2.917419 8.24059,6.204397 10.31953,7.304397 7.4918,3.964017 20.59573,17.615959 26.56899,27.680115 4.03856,6.804425 6.00229,11.152675 13.52453,29.947095 1.01859,2.54497 2.1578,7.04497 2.53156,10 0.37377,2.95504 1.85156,7.84779 3.28399,10.87279 2.49145,5.26145 2.62056,6.38593 2.97674,25.92592 0.23715,13.01041 -0.0256,21.75402 -0.72371,24.08415 -1.72698,5.76413 -7.78597,15.2409 -13.07503,20.45043 -4.72501,4.65396 -5.04114,4.79106 -12.867,5.57999 -4.41263,0.44484 -9.06925,1.38322 -10.34804,2.08529 -1.79963,0.98802 -14.25688,1.28753 -55.124551,1.32535 -47.933844,0.0444 -53.094428,-0.10854 -56,-1.65921 z M 93.272871,208 c 3.174995,-2.49745 3.726328,-2.48955 8.743179,0.12539 2.97551,1.55092 5.15673,1.98065 8.07002,1.58989 5.98001,-0.80209 7.2424,-2.3987 9.28857,-11.74772 0.51277,-2.34289 3.98937,-5.40753 13.34425,-11.76302 1.85832,-1.26251 3.66859,-3.06251 4.0228,-4 0.35422,-0.9375 1.90725,-3.70514 3.45117,-6.15032 4.40715,-6.97978 3.99184,-13.00037 -1.45994,-21.16433 C 135.74607,150.41711 133.0877,147.74994 129.87239,146 123.44107,142.49974 122,141.10442 122,138.37756 122,136.10292 122.29991,136 128.92857,136 c 9.4337,0 10.45887,-1.08643 9.85195,-10.4407 -0.25191,-3.88261 -1.17429,-8.4093 -2.04973,-10.0593 -1.52611,-2.87635 -6.82565,-8.53267 -14.11792,-15.06838 -2.86638,-2.568992 -3.53964,-3.997353 -4.13673,-8.776302 -0.51708,-4.138535 -1.29165,-6.113117 -2.81716,-7.181621 C 112.60679,82.33586 105.10147,82.61484 101.5,85 c -3.849843,2.549651 -5.329451,2.50885 -8.241921,-0.227273 -2.73177,-2.566365 -9.03027,-3.036607 -11.641866,-0.869175 -0.900023,0.746953 -2.331578,3.749401 -3.181231,6.672107 -1.528653,5.258381 -2.914956,6.950195 -15.325319,18.702701 -5.025625,4.75922 -7.444113,10.92965 -7.533881,19.22164 -0.06873,6.34854 0.245333,7.49622 3.374611,12.33191 2.133577,3.29703 4.894903,6.06884 7.235375,7.26286 4.363928,2.22631 7.316113,6.15497 6.406463,8.52548 -0.505374,1.31698 -1.354886,1.48486 -4.359952,0.86163 C 57.94335,155.34802 55,157.06999 55,165.22325 c 0,5.54869 1.476434,9.21305 6.558193,16.27675 5.15858,7.17049 8.422937,10.41629 12.675807,12.60374 2.506192,1.28906 3.933203,2.82084 4.339812,4.65842 1.359537,6.14414 2.663863,9.27356 4.251194,10.19972 2.77603,1.61972 7.747789,1.162 10.447865,-0.96188 z"
       style="fill:#0093e7" />
  </g>
</svg>
