<?xml version="1.0" encoding="UTF-8" standalone="no"?>
<svg
   xmlns:dc="http://purl.org/dc/elements/1.1/"
   xmlns:cc="http://creativecommons.org/ns#"
   xmlns:rdf="http://www.w3.org/1999/02/22-rdf-syntax-ns#"
   xmlns:svg="http://www.w3.org/2000/svg"
   xmlns="http://www.w3.org/2000/svg"
   viewBox="0 0 200.00002 152.05461"
   height="152.05461"
   width="200.00002"
   id="svg4485"
   version="1.1">
  <metadata
     id="metadata4491">
    <rdf:RDF>
      <cc:Work
         rdf:about="">
        <dc:format>image/svg+xml</dc:format>
        <dc:type
           rdf:resource="http://purl.org/dc/dcmitype/StillImage" />
        <dc:title></dc:title>
      </cc:Work>
    </rdf:RDF>
  </metadata>
  <defs
     id="defs4489" />
  <g
     id="g6910">
    <path
       id="path6926"
       d="m 114.83822,112.69842 c -0.53009,-0.99088 -0.82305,-2.79088 -0.65101,-4 L 114.5,106.5 h 28 28 l 0.31127,2.1868 c 0.20636,1.44975 -0.53289,2.73992 -2.19329,3.82785 -2.13473,1.39873 -6.21911,1.66647 -27.66026,1.8132 -23.31005,0.15952 -25.22642,0.04 -26.1195,-1.62943 z m -84.918345,-2.40916 c -0.785535,-2.06612 -0.637299,-3.74065 0.623353,-7.04162 2.629037,-6.884038 2.973889,-15.157739 0.944299,-22.655653 -1.456228,-5.379741 -1.646095,-8.501732 -1.053757,-17.327045 0.397386,-5.920718 0.681763,-12.380697 0.631948,-14.35551 -0.152721,-6.054273 3.497354,-8.952331 13.278972,-10.543134 10.13267,-1.647895 18.762728,-1.715984 25.76882,-0.20331 2.96257,0.639644 7.263542,1.08798 9.557717,0.996302 3.884518,-0.155229 4.242068,0.05696 5.201856,3.087012 1.746116,5.5125 1.531369,68.690008 -0.239458,70.447108 -1.051337,1.04318 -4.789578,-3.66299 -8.031644,-10.11127 -1.777622,-3.535575 -2.626243,-6.980021 -2.788641,-11.318738 -0.225004,-6.011294 -0.102696,-6.356352 3.385568,-9.551478 4.117001,-3.771026 5.333528,-8.674322 4.61538,-18.602609 C 81.43498,57.86544 80.909818,56.713425 76.597702,51.666041 71.124435,45.259514 68.907878,44.466887 57,44.658024 41.503238,44.906768 39.170493,46.706449 36.542729,60.440531 c -1.310395,6.848816 -1.278727,8.054825 0.367379,13.991198 1.26091,4.547232 2.744759,7.377589 4.945637,9.433517 4.192849,3.916707 4.19503,7.611876 0.0066,11.108567 -2.646815,2.209659 -3.273769,3.61445 -4.007467,8.979357 -0.478373,3.49795 -1.37151,6.96446 -1.984748,7.70336 -1.869235,2.25229 -4.832982,1.57127 -5.950213,-1.36727 z M 114.8163,79.656859 c -0.5425,-1.013727 -0.71452,-2.926227 -0.38228,-4.25 L 115.0381,73 h 26.39916 c 14.51954,0 27.11097,0.273145 27.98095,0.606989 2.36448,0.907336 1.95705,5.121809 -0.62894,6.50579 -1.51971,0.813322 -10.1464,1.21504 -27.59867,1.285183 -23.70304,0.09527 -25.45341,-0.02029 -26.3743,-1.741103 z m 0.116,-33.783352 c -1.30628,-2.440808 0.15166,-6.837873 2.29626,-6.925395 10.87303,-0.443731 47.23596,0.38913 50.08256,1.147098 3.34935,0.891838 3.77341,1.340746 3.5,3.705043 -0.43044,3.722049 -2.07878,3.942438 -30.52594,4.081432 -23.73096,0.115951 -24.23755,0.07582 -25.35288,-2.008178 z"
       style="fill:#f5f8fb" />
    <path
       id="path6924"
       d="m 114.06192,115.06192 c -2.98383,-2.98383 -2.7871,-8.54066 0.37575,-10.61303 2.11114,-1.38328 5.97534,-1.5538 28.84826,-1.27306 29.07133,0.35683 30.07709,0.56606 29.51514,6.14012 -0.19002,1.88481 -1.34153,3.76048 -3.1219,5.08518 -2.66218,1.98082 -4.24754,2.11641 -28.18807,2.41079 -24.50331,0.30131 -25.43747,0.24171 -27.42918,-1.75 z m 54.55606,-2.54727 c 1.6604,-1.08793 2.39965,-2.3781 2.19329,-3.82785 L 170.5,106.5 h -28 -28 l -0.31279,2.19842 c -0.17204,1.20912 0.12092,3.00912 0.65101,4 0.89308,1.6694 2.80945,1.78895 26.1195,1.62943 21.44115,-0.14673 25.52553,-0.41447 27.66026,-1.8132 z m -138.827767,2.42776 c -2.585721,-1.50744 -3.195979,-6.98086 -1.376008,-12.34145 2.009939,-5.920141 2.007193,-13.050295 -0.0098,-25.361725 C 27.105241,69.308991 27.012215,66.014059 27.903607,59.5 c 0.602102,-4.4 0.98276,-10.127428 0.845908,-12.727619 -0.208759,-3.966405 0.177858,-5.1543 2.401138,-7.377579 2.302167,-2.302168 3.877056,-2.770578 11.999654,-3.568992 5.142331,-0.505467 16.461121,-0.620705 25.152867,-0.256084 15.579506,0.653564 15.827189,0.699615 17.5,3.253669 1.511355,2.307544 1.702837,6.421082 1.751818,37.633663 0.03025,19.273618 -0.307979,36.086642 -0.751612,37.362282 -2.128001,6.11893 -9.530439,-2.29958 -13.782814,-15.674675 -2.841242,-8.936626 -2.629414,-11.457988 1.335117,-15.891784 4.927659,-5.510925 5.792961,-7.708794 5.940714,-15.089425 0.150758,-7.53073 -1.110543,-10.621542 -6.664111,-16.330376 -3.141533,-3.229363 -4.335637,-3.749215 -10.00711,-4.356578 -7.34358,-0.78643 -15.890911,0.12611 -19.766759,2.110362 -3.28487,1.6817 -4.829151,5.857994 -5.560494,15.03759 -0.77209,9.691027 0.182326,13.794482 4.257607,18.305331 5.118299,5.665346 5.376946,8.764886 1.153262,13.820307 -2.646434,3.167575 -3.758131,5.747378 -4.717343,10.947058 -0.690227,3.74157 -1.700768,7.36535 -2.245648,8.05285 -1.179259,1.48793 -4.572362,1.58179 -6.955588,0.19241 z m 6.079875,-3.28588 c 0.613238,-0.7389 1.506375,-4.20541 1.984748,-7.70336 0.733698,-5.364907 1.360652,-6.769698 4.007467,-8.979357 4.188472,-3.496691 4.186291,-7.19186 -0.0066,-11.108567 C 39.654867,81.809318 38.171018,78.978961 36.910108,74.431729 35.264002,68.495356 35.232334,67.289347 36.542729,60.440531 39.170493,46.706449 41.503238,44.906768 57,44.658024 c 11.907878,-0.191137 14.124435,0.60149 19.597702,7.008017 4.312116,5.047384 4.837278,6.199399 5.216586,11.443274 0.718148,9.928287 -0.498379,14.831583 -4.61538,18.602609 -3.488264,3.195126 -3.610572,3.540184 -3.385568,9.551478 0.162398,4.338717 1.011019,7.783163 2.788641,11.318738 3.242066,6.44828 6.980307,11.15445 8.031644,10.11127 1.770827,-1.7571 1.985574,-64.934608 0.239458,-70.447108 -0.959788,-3.030055 -1.317338,-3.242241 -5.201856,-3.087012 -2.294175,0.09168 -6.595147,-0.356658 -9.557717,-0.996302 -7.006092,-1.512674 -15.63615,-1.444585 -25.76882,0.20331 -9.781618,1.590803 -13.431693,4.488861 -13.278972,10.543134 0.04981,1.974813 -0.234562,8.434792 -0.631948,14.35551 -0.592338,8.825313 -0.402471,11.947304 1.053757,17.327045 2.02959,7.497914 1.684738,15.771615 -0.944299,22.655653 -1.260652,3.30097 -1.408888,4.9755 -0.623353,7.04162 1.117231,2.93854 4.080978,3.61956 5.950213,1.36727 z M 114.25,82.295455 C 111.41995,79.522578 111.30278,74.697221 114,72 c 1.89553,-1.895535 3.29276,-1.997052 26.75,-1.943558 16.41172,0.03743 25.92915,0.458552 28.25,1.25 3.20662,1.093512 3.5,1.524148 3.5,5.137507 0,3.327737 -0.46873,4.216582 -3,5.68888 -2.59189,1.507555 -6.40092,1.787254 -28,2.056051 -24.63074,0.306525 -25.03323,0.278558 -27.25,-1.893425 z m 54.53927,-2.182676 c 2.58599,-1.383981 2.99342,-5.598454 0.62894,-6.50579 C 168.54823,73.273145 155.9568,73 141.43726,73 H 115.0381 l -0.60408,2.406859 c -0.33224,1.323773 -0.16022,3.236273 0.38228,4.25 0.92089,1.720818 2.67126,1.836369 26.3743,1.741103 17.45227,-0.07014 26.07896,-0.471861 27.59867,-1.285183 z M 114.10762,48.885144 c -2.69708,-2.894981 -2.72884,-7.841224 -0.0687,-10.696583 1.9847,-2.130329 2.65654,-2.188413 25.25,-2.182984 29.42011,0.0071 33.71104,1.046038 33.71104,8.1625 0,1.923495 -0.83679,3.334648 -2.70333,4.55887 -2.37443,1.557336 -5.82876,1.812436 -28.39237,2.096758 -25.59108,0.322471 -25.69709,0.315078 -27.79668,-1.938561 z M 167.5,47.126938 c 2.31373,-0.490844 3.07117,-1.251848 3.31112,-3.326685 0.27341,-2.364297 -0.15065,-2.813205 -3.5,-3.705043 -2.8466,-0.757968 -39.20953,-1.590829 -50.08256,-1.147098 -2.1446,0.08752 -3.60254,4.484587 -2.29626,6.925395 1.11533,2.084002 1.62192,2.124129 25.35288,2.008178 C 153.60333,47.816612 165.85,47.476976 167.5,47.126938 Z"
       style="fill:#d8e4f1" />
    <path
       id="path6922"
       d="m 115.04281,117.82181 c -5.17046,-1.91741 -6.67116,-9.94343 -2.57818,-13.78858 2.45386,-2.30529 2.58285,-2.3152 29.52903,-2.2703 29.35465,0.0489 31.25048,0.3773 32.57184,5.64202 0.89411,3.5624 -1.97606,8.24541 -5.83385,9.5186 -3.66814,1.21059 -50.72364,1.99787 -53.68884,0.89826 z m 54.63636,-3.42068 c 1.78037,-1.3247 2.93188,-3.20037 3.1219,-5.08518 0.56195,-5.57406 -0.44381,-5.78329 -29.51514,-6.14012 -22.87292,-0.28074 -26.73712,-0.11022 -28.84826,1.27306 -3.16285,2.07237 -3.35958,7.6292 -0.37575,10.61303 1.99171,1.99171 2.92587,2.05131 27.42918,1.75 23.94053,-0.29438 25.52589,-0.42997 28.18807,-2.41079 z m -141.150849,1.44249 c -2.651931,-2.08601 -2.717954,-2.37157 -2.023055,-8.75 C 26.900354,103.46713 27.174903,96.225 27.115375,91 26.699407,54.489078 26.908178,42.63589 28.01425,39.965598 29.890689,35.435473 35.150611,34.048865 51.5,33.774343 c 17.782063,-0.298579 31.52682,0.253955 33.669914,1.353517 3.694115,1.895347 4.164689,7.048672 3.998561,43.788796 -0.142184,31.444894 -0.346208,35.622254 -1.819297,37.250004 -2.090218,2.30966 -4.607497,2.34181 -6.524992,0.0833 C 76.341351,110.97001 69,93.958952 69,88.851521 69,86.208567 71.388705,82.233612 74.205468,80.189296 77.4399,77.841848 79,73.365874 79,66.433637 79,60.35607 78.68257,59.335528 75.402261,54.866852 c -1.978757,-2.695606 -4.458179,-5.361595 -5.509828,-5.92442 -2.558866,-1.369464 -19.176406,-1.333846 -23.369774,0.05009 -4.2134,1.390547 -6.385077,5.728302 -7.191541,14.364537 -0.846474,9.064694 0.153642,12.925989 4.712168,18.192954 5.158964,5.960717 5.291697,9.662889 0.549925,15.338421 -2.676181,3.203176 -3.660882,5.584096 -4.59161,11.102076 -1.643836,9.74576 -5.613183,12.46266 -11.47328,7.85311 z m 8.21748,-1.09362 c 0.54488,-0.6875 1.555421,-4.31128 2.245648,-8.05285 0.959212,-5.19968 2.070909,-7.779483 4.717343,-10.947058 4.223684,-5.055421 3.965037,-8.154961 -1.153262,-13.820307 -4.075281,-4.510849 -5.029697,-8.614304 -4.257607,-18.305331 0.731343,-9.179596 2.275624,-13.35589 5.560494,-15.03759 3.875848,-1.984252 12.423179,-2.896792 19.766759,-2.110362 5.671473,0.607363 6.865577,1.127215 10.00711,4.356578 5.553568,5.708834 6.814869,8.799646 6.664111,16.330376 -0.147753,7.380631 -1.013055,9.5785 -5.940714,15.089425 -3.964531,4.433796 -4.176359,6.955158 -1.335117,15.891784 4.252375,13.375095 11.654813,21.793605 13.782814,15.674675 0.443633,-1.27564 0.781858,-18.088664 0.751612,-37.362282 -0.04898,-31.212581 -0.240463,-35.326119 -1.751818,-37.633663 -1.672811,-2.554054 -1.920494,-2.600105 -17.5,-3.253669 -8.691746,-0.364621 -20.010536,-0.249383 -25.152867,0.256084 -8.122598,0.798414 -9.697487,1.266824 -11.999654,3.568992 -2.22328,2.223279 -2.609897,3.411174 -2.401138,7.377579 C 28.886367,49.372572 28.505709,55.1 27.903607,59.5 c -0.891392,6.514059 -0.798366,9.808991 0.500831,17.739235 2.01696,12.31143 2.019706,19.441584 0.0098,25.361725 -1.819971,5.36059 -1.209713,10.83401 1.376008,12.34145 2.383226,1.38938 5.776329,1.29552 6.955588,-0.19241 z M 113.91334,84.753759 c -4.87685,-3.853633 -5.22587,-10.471555 -0.75084,-14.237042 l 3.1625,-2.66107 26.13416,0.322176 c 22.93223,0.282704 26.46342,0.538135 28.82162,2.084827 5.05354,3.314505 4.60044,9.801462 -0.93836,13.43446 -2.44282,1.60229 -5.64678,1.831125 -28.79554,2.056649 -19.68917,0.19182 -26.43416,-0.05227 -27.63354,-1 z M 169.5,82.132829 c 2.53127,-1.472298 3,-2.361143 3,-5.68888 0,-3.613359 -0.29338,-4.043995 -3.5,-5.137507 -2.32085,-0.791448 -11.83828,-1.212573 -28.25,-1.25 C 117.29276,70.002948 115.89553,70.104465 114,72 c -2.69722,2.697221 -2.58005,7.522578 0.25,10.295455 2.21677,2.171983 2.61926,2.19995 27.25,1.893425 21.59908,-0.268797 25.40811,-0.548496 28,-2.056051 z M 112.75,49.826923 c -3.55126,-3.451925 -3.72418,-8.582849 -0.41875,-12.425635 l 2.33125,-2.71024 26.16485,0.09804 c 28.2579,0.105885 30.32891,0.443271 33.1033,5.392837 1.87911,3.352361 0.69583,7.275239 -3.03137,10.049719 -2.40348,1.789128 -4.60273,1.948547 -29,2.102148 L 115.5,52.5 Z m 57.54667,-1.099976 C 172.16321,47.502725 173,46.091572 173,44.168077 c 0,-7.116462 -4.29093,-8.155431 -33.71104,-8.1625 -22.59346,-0.0054 -23.2653,0.05265 -25.25,2.182984 -2.66018,2.855359 -2.62842,7.801602 0.0687,10.696583 2.09959,2.253639 2.2056,2.261032 27.79668,1.938561 22.56361,-0.284322 26.01794,-0.539422 28.39237,-2.096758 z"
       style="fill:#afc9e4" />
    <path
       id="path6920"
       d="m 114.19035,119.86803 c -2.74142,-1.02493 -5.31088,-4.46858 -6.16721,-8.26543 -0.97948,-4.34287 1.27597,-9.47473 4.97686,-11.32395 3.15098,-1.574438 50.66842,-1.776187 56.20451,-0.23863 5.07195,1.40865 8.13849,5.45889 7.43152,9.81544 -0.72713,4.4808 -3.14763,7.99121 -6.43833,9.33744 -2.91133,1.19102 -53.01212,1.79495 -56.00735,0.67513 z m 54.5413,-2.94448 c 3.85779,-1.27319 6.72796,-5.9562 5.83385,-9.5186 -1.32136,-5.26472 -3.21719,-5.59311 -32.57184,-5.64202 -26.94618,-0.0449 -27.07517,-0.035 -29.52903,2.2703 -4.09298,3.84515 -2.59228,11.87117 2.57818,13.78858 2.9652,1.09961 50.0207,0.31233 53.68884,-0.89826 z M 27.251192,118.46339 C 23.8892,116.10856 22.679217,110.11894 24.103267,102.88063 24.939715,98.629045 25.04729,93.171875 24.462522,84.655906 23.491873,70.520336 23.442542,65.581939 24.118455,50.2118 24.601169,39.234971 24.69946,38.839001 27.681842,35.85662 c 2.917431,-2.917431 3.621665,-3.110946 14.442569,-3.968643 6.256574,-0.495914 18.513415,-0.60871 27.237424,-0.250657 14.538139,0.596678 16.081995,0.840294 18.5,2.91925 L 90.5,36.824815 90.79644,74.659309 C 90.959481,95.468281 90.84631,113.47623 90.544938,114.67697 89.720152,117.96319 87.196583,120 83.949824,120 c -2.483838,0 -3.554435,-0.98321 -7.349952,-6.75 -2.443448,-3.7125 -4.767388,-8.1 -5.16431,-9.75 -0.396922,-1.65 -1.796258,-5.150083 -3.109634,-7.777961 -2.121615,-4.245048 -2.262926,-5.242295 -1.266954,-8.941051 0.763756,-2.836376 2.589385,-5.511297 5.728628,-8.393619 4.406228,-4.045614 4.625323,-4.508474 5.012531,-10.589454 0.393764,-6.183944 0.292231,-6.50147 -3.689714,-11.539009 C 68.544661,49.217693 67.276732,48.69432 56.977328,49.186741 43.256358,49.842749 41.016803,52.531992 41.005577,68.365523 L 41,76.231046 45.175523,80.04785 c 3.768861,3.445079 4.182776,4.290091 4.25,8.676442 0.07319,4.775776 -0.527,6.140073 -5.400423,12.275708 -1.215144,1.52987 -2.237737,4.82832 -2.635183,8.5 -0.810122,7.48405 -3.206141,10.5 -8.341725,10.5 -1.981749,0 -4.590399,-0.69148 -5.797,-1.53661 z m 9.434692,-1.95593 c 1.567742,-1.09809 2.444021,-3.34895 3.315717,-8.51695 0.930728,-5.51798 1.915429,-7.8989 4.59161,-11.102076 4.741772,-5.675532 4.609039,-9.377704 -0.549925,-15.338421 -4.558526,-5.266965 -5.558642,-9.12826 -4.712168,-18.192954 0.806464,-8.636235 2.978141,-12.97399 7.191541,-14.364537 4.193368,-1.383936 20.810908,-1.419554 23.369774,-0.05009 1.051649,0.562825 3.531071,3.228814 5.509828,5.92442 C 78.68257,59.335528 79,60.35607 79,66.433637 79,73.365874 77.4399,77.841848 74.205468,80.189296 71.388705,82.233612 69,86.208567 69,88.851521 c 0,5.107431 7.341351,22.118489 11.824186,27.398479 1.917495,2.25847 4.434774,2.22632 6.524992,-0.0833 1.473089,-1.62775 1.677113,-5.80511 1.819297,-37.250004 C 89.334603,42.176532 88.864029,37.023207 85.169914,35.12786 83.02682,34.028298 69.282063,33.475764 51.5,33.774343 35.150611,34.048865 29.890689,35.435473 28.01425,39.965598 26.908178,42.63589 26.699407,54.489078 27.115375,91 c 0.05953,5.225 -0.215021,12.46713 -0.610109,16.09362 -0.694899,6.37843 -0.628876,6.66399 2.023055,8.75 3.228276,2.53936 5.245517,2.70352 8.157563,0.66384 z M 113.19981,86.950272 c -1.32412,-0.531308 -3.1549,-2.855182 -4.31441,-5.476436 -1.70184,-3.847291 -1.83792,-5.087686 -0.87742,-7.998021 0.62524,-1.894497 2.28991,-4.351578 3.69927,-5.460178 C 114.12936,66.110408 115.71565,66 140.66698,66 c 28.32297,0 31.44028,0.459649 34.70233,5.116873 3.88668,5.549023 0.14034,13.814132 -7.18359,15.848294 -4.57986,1.27202 -51.81055,1.259226 -54.98591,-0.01489 z m 57.14261,-3.253162 c 5.5388,-3.632998 5.9919,-10.119955 0.93836,-13.43446 -2.3582,-1.546692 -5.88939,-1.802123 -28.82162,-2.084827 l -26.13416,-0.322176 -3.1625,2.66107 c -3.42161,2.879099 -4.14272,6.774341 -1.99916,10.799024 2.47537,4.647671 2.87483,4.70602 30.38354,4.438018 23.14876,-0.225524 26.35272,-0.454359 28.79554,-2.056649 z M 113.24138,53.67477 c -5.12848,-2.848187 -6.99199,-8.75834 -4.62602,-14.671491 2.69391,-6.732723 3.91858,-7.004052 31.58498,-6.997702 13.36481,0.0031 25.90808,0.452383 27.87392,0.998479 4.76406,1.32342 7.97409,4.937521 8.6124,9.696509 0.43067,3.210835 0.0527,4.455741 -2.14625,7.069036 -1.46793,1.744537 -4.32754,3.632542 -6.35469,4.195566 -5.52539,1.534631 -52.10142,1.288463 -54.94434,-0.290397 z m 57.6579,-3.443124 c 3.7272,-2.77448 4.91048,-6.697358 3.03137,-10.049719 -2.77439,-4.949566 -4.8454,-5.286952 -33.1033,-5.392837 l -26.16485,-0.09804 -2.33125,2.71024 c -3.30543,3.842786 -3.13251,8.97371 0.41875,12.425635 L 115.5,52.5 141.89928,52.333794 c 24.39727,-0.153601 26.59652,-0.31302 29,-2.102148 z"
       style="fill:#90b5d9" />
    <path
       id="path6918"
       d="m 0,148.86408 v -3.13593 l 4.6850386,0.64216 c 2.5767712,0.35318 5.7824564,1.36121 7.1237444,2.24006 1.925236,1.26146 2.948934,1.36542 4.862014,0.49376 C 19.692702,147.72726 24,147.66606 24,149 c 0,0.57778 3.166667,1 7.5,1 4.333333,0 7.5,-0.42222 7.5,-1 0,-0.55 2.25,-1 5,-1 2.75,0 5,0.45 5,1 0,0.57143 3,1 7,1 4,0 7,-0.42857 7,-1 0,-0.55 2.25,-1 5,-1 2.75,0 5,0.45 5,1 0,0.57778 3.166667,1 7.5,1 4.333333,0 7.5,-0.42222 7.5,-1 0,-0.6087 4.5,-1 11.5,-1 7,0 11.5,0.3913 11.5,1 0,0.55 2.025,1 4.5,1 2.475,0 4.5,-0.45 4.5,-1 0,-0.55 2.025,-1 4.5,-1 2.475,0 4.5,0.45 4.5,1 0,0.57778 3.16667,1 7.5,1 4.33333,0 7.5,-0.42222 7.5,-1 0,-0.57778 3.16667,-1 7.5,-1 4.33333,0 7.5,0.42222 7.5,1 0,0.55 2.025,1 4.5,1 2.475,0 4.5,-0.45 4.5,-1 0,-0.55 2.025,-1 4.5,-1 2.475,0 4.5,0.45 4.5,1 0,0.55 1.125,1 2.5,1 1.375,0 2.5,0.45 2.5,1 0,0.65934 -31,1 -91,1 H 0 Z m 188,2.20401 C 188,149.3075 193.8111,146 196.90437,146 199.67729,146 200,146.31274 200,149 v 3 h -6 c -3.3,0 -6,-0.41936 -6,-0.93191 z M 81.308297,121.96576 c -1.205436,-0.472 -2.992251,-2.11989 -3.9707,-3.66197 C 76.359148,116.76171 74.359613,113.925 72.894186,112 71.354462,109.9774 70.003538,106.65495 69.693819,104.12905 69.318498,101.06812 68.235073,98.80601 66.078933,96.581438 64.38552,94.834279 63,92.399255 63,91.170274 63,86.913711 66.023149,81.479404 70.883038,77 c 4.167245,-3.840988 4.969618,-5.193976 5.478926,-9.238749 0.536487,-4.260628 0.296089,-5.081114 -2.382637,-8.132015 C 72.340697,57.76294 71,55.802621 71,55.272973 71,54.743324 70.177067,53.565231 69.171259,52.654988 67.747091,51.366133 65.296543,51 58.094336,51 c -8.888342,0 -9.361917,0.113735 -12.171259,2.923077 -1.607692,1.607692 -2.952931,3.970192 -2.98942,5.25 C 42.897168,60.452885 42.720248,64.425 42.540501,68 42.194545,74.880737 43.128665,78 45.535184,78 46.340833,78 47.9,78.9 49,80 c 1.624349,1.624349 2,3.333333 2,9.09879 0,6.504554 -0.237206,7.320722 -2.833685,9.75 C 44.17293,102.58502 43,105.20054 43,110.36916 c 0,4.91748 -1.448539,9.65993 -3.312561,10.84518 -0.653092,0.41527 -3.749845,0.76193 -6.881675,0.77035 -4.563819,0.0123 -6.241625,-0.45553 -8.451589,-2.35646 l -2.757352,-2.37178 0.102563,-39.035463 c 0.110723,-42.141355 0.163887,-42.589978 5.516409,-46.550765 2.568178,-1.900414 4.264041,-2.011315 31.199839,-2.040317 31.610159,-0.03404 31.373057,-0.08179 33.471437,6.741014 1.12773,3.666773 1.666964,27.083519 1.343052,58.323317 -0.222525,21.461474 -0.304409,22.275344 -2.480123,24.650814 -2.591743,2.82969 -6.287872,3.85562 -9.441703,2.62071 z M 38.695905,117.75 c 1.345598,-1.48082 2.266562,-4.30114 2.694012,-8.25 0.397446,-3.67168 1.420039,-6.97013 2.635183,-8.5 4.873423,-6.135635 5.473615,-7.499932 5.400423,-12.275708 -0.06722,-4.386351 -0.481139,-5.231363 -4.25,-8.676442 L 41,76.231046 41.0056,68.365523 c 0.01123,-15.833531 2.250781,-18.522774 15.971751,-19.178782 10.299404,-0.492421 11.567333,0.03095 17.133091,7.072165 3.981945,5.037539 4.083478,5.355065 3.689714,11.539009 -0.387208,6.08098 -0.606303,6.54384 -5.012531,10.589454 -3.139243,2.882322 -4.964872,5.557243 -5.728628,8.393619 -0.995972,3.698756 -0.854661,4.696003 1.266954,8.941051 1.313376,2.627878 2.712712,6.127961 3.109634,7.777961 0.396922,1.65 2.720862,6.0375 5.16431,9.75 3.795517,5.76679 4.866114,6.75 7.349952,6.75 3.246759,0 5.770328,-2.03681 6.595114,-5.32303 0.301368,-1.20074 0.414543,-19.208689 0.251502,-40.017661 L 90.5,36.824815 87.861835,34.55657 c -2.418005,-2.078956 -3.961861,-2.322572 -18.5,-2.91925 -8.724009,-0.358053 -20.98085,-0.245257 -27.237424,0.250657 -10.820904,0.857697 -11.525138,1.051212 -14.442569,3.968643 -2.982382,2.982381 -3.080673,3.378351 -3.563387,14.35518 -0.675913,15.370139 -0.626582,20.308536 0.344067,34.444106 0.584768,8.515969 0.477193,13.973139 -0.359255,18.224724 -1.42405,7.23831 -0.214067,13.22793 3.147925,15.58276 3.318194,2.32415 9.006762,1.96956 11.444713,-0.71339 z m 74.498355,4.3039 c -1.81816,-0.45326 -3.93809,-1.66331 -4.71095,-2.689 -2.25143,-2.98794 -4.30381,-9.85307 -3.77408,-12.62416 0.77447,-4.05138 5.3705,-8.775441 9.29077,-9.549587 C 115.925,96.811019 129.73095,96.725 144.67988,97 c 25.64073,0.471686 27.33958,0.619062 30,2.602525 5.74091,4.280105 5.16521,16.242565 -1.00142,20.808385 -2.68256,1.98619 -4.16024,2.0984 -30,2.27809 -14.94815,0.10395 -28.66604,-0.18184 -30.4842,-0.6351 z m 57.00344,-2.861 c 3.2907,-1.34623 5.7112,-4.85664 6.43833,-9.33744 0.70697,-4.35655 -2.35957,-8.40679 -7.43152,-9.81544 -5.53609,-1.537557 -53.05353,-1.335808 -56.20451,0.23863 -3.70089,1.84922 -5.95634,6.98108 -4.97686,11.32395 0.85633,3.79685 3.42579,7.2405 6.16721,8.26543 2.99523,1.11982 53.09602,0.51589 56.00735,-0.67513 z M 110.95671,88.536329 c -3.23293,-1.758767 -7.43445,-10.496731 -6.61572,-13.758808 1.06992,-4.262908 5.13692,-9.247675 8.42035,-10.320505 1.9286,-0.630153 13.82095,-1.002808 30.04512,-0.941484 24.86018,0.09397 27.10493,0.248616 30.24727,2.083842 4.3879,2.562667 6.42723,7.707659 5.50164,13.879947 -0.78664,5.245706 -3.31955,8.082694 -8.50165,9.522294 C 168.09917,89.544592 154.575,89.973339 140,89.954385 119.37922,89.92757 112.93575,89.612964 110.95671,88.536329 Z m 57.22901,-1.571162 c 7.32393,-2.034162 11.07027,-10.299271 7.18359,-15.848294 C 172.10726,66.459649 168.98995,66 140.66698,66 c -24.95133,0 -26.53762,0.110408 -28.95973,2.015637 -1.40936,1.1086 -3.07403,3.565681 -3.69927,5.460178 -0.9605,2.910335 -0.82442,4.15073 0.87742,7.998021 1.15951,2.621254 2.99029,4.945128 4.31441,5.476436 3.17536,1.274121 50.40605,1.286915 54.98591,0.01489 z M 110.87619,55.494145 c -2.45248,-1.332682 -6.88827,-8.912508 -6.86642,-11.733247 0.0201,-2.596479 4.90047,-11.64249 6.84164,-12.681375 1.31043,-0.701321 12.11248,-1.078213 30.83285,-1.075785 26.80898,0.0035 29.03853,0.139584 32.01492,1.954393 5.73625,3.497608 6.9615,16.201192 2.00993,20.83936 -4.12614,3.86498 -6.97689,4.203779 -35.02421,4.162471 -21.58344,-0.03179 -27.72554,-0.33382 -29.80871,-1.465817 z m 57.30953,-1.528978 c 2.02715,-0.563024 4.88676,-2.451029 6.35469,-4.195566 2.19895,-2.613295 2.57692,-3.858201 2.14625,-7.069036 -0.63831,-4.758988 -3.84834,-8.373089 -8.6124,-9.696509 -1.96584,-0.546096 -14.50911,-0.995412 -27.87392,-0.998479 -27.6664,-0.0064 -28.89107,0.264979 -31.58498,6.997702 -2.36597,5.913151 -0.50246,11.823304 4.62602,14.671491 2.84292,1.57886 49.41895,1.825028 54.94434,0.290397 z"
       style="fill:#5691c8" />
    <path
       id="path6916"
       d="m 182,151 c 0,-0.55 -1.125,-1 -2.5,-1 -1.375,0 -2.5,-0.45 -2.5,-1 0,-0.55 -2.025,-1 -4.5,-1 -2.475,0 -4.5,0.45 -4.5,1 0,0.55 -2.025,1 -4.5,1 -2.475,0 -4.5,-0.45 -4.5,-1 0,-0.57778 -3.16667,-1 -7.5,-1 -4.33333,0 -7.5,0.42222 -7.5,1 0,0.57778 -3.16667,1 -7.5,1 -4.33333,0 -7.5,-0.42222 -7.5,-1 0,-0.55 -2.025,-1 -4.5,-1 -2.475,0 -4.5,0.45 -4.5,1 0,0.55 -2.025,1 -4.5,1 -2.475,0 -4.5,-0.45 -4.5,-1 0,-0.6087 -4.5,-1 -11.5,-1 -7,0 -11.5,0.3913 -11.5,1 0,0.57778 -3.166667,1 -7.5,1 -4.333333,0 -7.5,-0.42222 -7.5,-1 0,-0.55 -2.25,-1 -5,-1 -2.75,0 -5,0.45 -5,1 0,0.57143 -3,1 -7,1 -4,0 -7,-0.42857 -7,-1 0,-0.55 -2.25,-1 -5,-1 -2.75,0 -5,0.45 -5,1 0,0.57778 -3.166667,1 -7.5,1 -4.333333,0 -7.5,-0.42222 -7.5,-1 0,-1.34032 -4.31272,-1.27027 -7.36315,0.1196 -1.960892,0.89344 -2.922585,0.79367 -4.760882,-0.49392 -1.266995,-0.88744 -4.4574041,-1.89923 -7.0897977,-2.24843 C 2.1537766,146.02805 0,145.23781 0,144.62117 0,143.80042 26.795062,143.5 100,143.5 c 79.33333,0 100,0.25833 100,1.25 0,0.75449 -1.34552,1.25 -3.39424,1.25 -2.39105,0 -4.34344,0.88668 -6.60576,3 -3.07219,2.86985 -8,4.1018 -8,2 z m 13.85699,-19.25 c -0.19635,-0.6875 -0.22983,-26.1125 -0.0744,-56.5 0.27713,-54.182573 0.3206,-55.25 2.25,-55.25 1.93334,0 1.96742,0.978573 1.96742,56.5 0,54.76892 -0.058,56.5 -1.89301,56.5 -1.04116,0 -2.05366,-0.5625 -2.25,-1.25 z M 0,126 c 0,-5.19238 0.25148202,-6 1.8683309,-6 1.4239361,0 1.9960679,0.95235 2.4053645,4.00388 C 4.9863728,129.31729 4.1844146,132 1.8833686,132 0.2481403,132 0,131.20948 0,126 Z m 23,-5 c -1.274408,-1.27441 -1.945642,-3.17909 -1.850168,-5.25 0.137975,-2.9928 0.182632,-3.03411 0.564299,-0.522 0.663866,4.36952 4.639969,6.7745 11.170728,6.75669 6.406174,-0.0175 7.624124,-0.56042 9.001941,-4.01292 0.932187,-2.33586 0.989913,-2.35198 1.049814,-0.2932 C 43.053645,121.70092 40.4884,123 32.428571,123 26.333333,123 24.641026,122.64103 23,121 Z m 54.318804,-0.75 c -0.950016,-1.5125 -3.21039,-4.4388 -5.023053,-6.50288 -2.718287,-3.09532 -3.26771,-4.49704 -3.135714,-8 0.151891,-4.03094 0.18058,-4.06897 0.563624,-0.74712 0.221973,1.925 1.625641,5.075 3.119262,7 1.493622,1.925 3.516225,4.76171 4.494674,6.30379 0.978449,1.54208 2.765264,3.20106 3.9707,3.68661 l 2.191703,0.88283 -2.226947,0.0634 c -1.387633,0.0395 -2.87795,-0.97306 -3.954249,-2.68661 z m 9.591048,1.92233 c 1.325418,-0.39596 3.244966,-1.83848 4.265663,-3.2056 1.728479,-2.31511 1.86227,-5.1266 1.949952,-40.976192 0.09623,-39.345971 -0.135969,-42.134686 -3.850058,-46.238708 -0.871961,-0.963507 -2.97814,-1.813112 -4.680397,-1.888012 -2.519702,-0.110868 -2.657868,-0.219216 -0.743299,-0.58288 3.624248,-0.68841 6.967794,0.513736 8.290732,2.980869 1.140522,2.126948 3.243033,26.299879 2.934477,33.738193 -0.07985,1.925 -0.284276,14.210687 -0.454274,27.301527 -0.285527,21.987323 -0.461963,24.007213 -2.314764,26.500003 -1.271257,1.71037 -3.067977,2.77029 -4.906781,2.89461 -2.653265,0.17938 -2.695232,0.13463 -0.491251,-0.52381 z m 22.240078,0.13203 c -1.88607,-0.75123 -6.12837,-10.20725 -6.14016,-13.68633 -0.0112,-3.3144 3.16673,-8.927823 6.29476,-11.118775 1.17726,-0.82459 3.50285,-1.453192 5.16798,-1.396894 L 117.5,96.204723 114,97.025196 c -3.91033,0.916663 -8.5328,5.750474 -9.29077,9.715544 -0.52973,2.77109 1.52265,9.63622 3.77408,12.62416 0.77286,1.02569 2.89279,2.21713 4.71095,2.64764 l 3.30574,0.78274 -3,0.0234 c -1.65,0.0129 -3.60753,-0.21857 -4.35007,-0.51433 z m 60.0968,-0.1825 c 4.61998,-0.99381 7.50522,-3.50081 8.6782,-7.54053 l 0.89469,-3.08133 0.0902,3.13922 c 0.14071,4.89779 -2.62959,7.49581 -8.44927,7.9238 -4.53399,0.33344 -4.63836,0.2955 -1.21381,-0.44116 z M 0,107.5 c 0,-3.83333 0.2962963,-4.5 2,-4.5 1.7037037,0 2,0.66667 2,4.5 0,3.83333 -0.2962963,4.5 -2,4.5 -1.7037037,0 -2,-0.66667 -2,-4.5 z m 43.039142,-0.31574 c -0.06086,-2.04572 2.0196,-5.42801 5.127173,-8.33547 C 49.957977,97.172502 51,96.704366 51,97.575737 c 0,0.757986 -1.18502,2.154612 -2.633378,3.103613 -1.448357,0.949 -3.230744,3.09687 -3.960858,4.77305 -0.730114,1.67618 -1.345094,2.45552 -1.366622,1.73186 z m 134.899368,-3.08393 c -0.24118,-1.31982 -1.70774,-3.34482 -3.25903,-4.500004 -2.64786,-1.971759 -4.42304,-2.133375 -29,-2.640226 L 119.5,96.420199 144.78212,96.2101 c 26.17862,-0.21755 29.85741,0.236661 33.04464,4.07995 0.72972,0.87993 1.15205,2.63713 0.93851,3.90491 L 178.37701,106.5 Z M 21.40479,88.5 c 0.0013,-8.8 0.15425,-12.266133 0.339965,-7.702518 0.185715,4.563614 0.18468,11.763614 -0.0023,16 C 21.555473,101.03387 21.403524,97.3 21.40479,88.5 Z m 44.289575,9.81269 c -3.552114,-1.867637 -4.876082,-5.324102 -4.040621,-10.548789 0.704259,-4.404191 5.939393,-11.182605 9.512448,-12.316648 1.105841,-0.350981 2.628224,-2.057695 3.383072,-3.7927 1.098059,-2.523864 1.380278,-2.728795 1.411594,-1.025015 0.02477,1.347556 -1.659032,3.521063 -4.585423,5.919021 -4.739891,3.883985 -8.314461,10.04759 -8.353473,14.403834 -0.01277,1.425459 1.316425,3.833257 3.174205,5.75 3.539671,3.652017 3.51739,3.723517 -0.501802,1.610297 z M 51,88.5 C 51,83.333333 50.589744,81.589744 49,80 47.9,78.9 46.351558,78 45.559017,78 44.766476,78 43.857794,77.578922 43.539722,77.064272 42.501306,75.384079 49.437105,77.907429 50.75,79.687481 51.928411,81.285197 52.600155,95 51.5,95 51.225,95 51,92.075 51,88.5 Z m 59.39544,1.522638 c -2.82425,-1.141457 -7.57703,-9.445271 -7.69014,-13.435814 -0.12952,-4.568998 4.92435,-11.76429 9.32793,-13.280382 4.29934,-1.480198 47.79192,-1.732893 56.3737,-0.327535 6.76331,1.107564 10.61379,4.006357 10.55393,7.945407 -0.0378,2.488442 -0.0861,2.467794 -1.42452,-0.609599 -2.70175,-6.211929 -4.96169,-6.652317 -34.80963,-6.783243 -16.21406,-0.07112 -28.03223,0.293907 -29.96537,0.925544 -3.28343,1.07283 -7.35043,6.057597 -8.42035,10.320505 -0.87328,3.479409 3.40572,12.040137 6.92877,13.861979 2.35792,1.219325 7.72067,1.420986 31.0403,1.16724 26.0371,-0.283314 28.4406,-0.458305 31.47215,-2.291373 1.91863,-1.160127 3.6468,-3.237352 4.15981,-5 0.82812,-2.845333 0.88269,-2.872844 0.96779,-0.487873 0.13171,3.691128 -2.44974,6.750629 -6.68929,7.928066 -4.48029,1.244294 -58.76664,1.303192 -61.82508,0.06708 z M 42.194949,72.5 c 0.02038,-1.65 0.244498,-2.203936 0.498042,-1.230968 0.253543,0.972967 0.236869,2.322967 -0.03705,3 C 42.382014,74.946064 42.174569,74.15 42.194949,72.5 Z m 33.883998,-8.083333 c 0.04798,-1.164943 0.284941,-1.4019 0.604167,-0.604167 0.288871,0.721875 0.253344,1.584375 -0.07895,1.916667 -0.332292,0.332291 -0.568641,-0.258334 -0.52522,-1.3125 z m -2.81543,-4.349283 C 70.988142,58.168855 68.080371,52.313604 70.003023,53.501868 70.55136,53.840759 71,54.629353 71,55.254298 c 0,0.624945 1.209191,2.398388 2.687091,3.940983 3.068611,3.20294 2.86712,3.617794 -0.423574,0.872103 z m -30.200131,-1.26162 c -0.03486,-0.93183 0.949114,-2.753884 2.186614,-4.04901 1.2375,-1.295125 1.711193,-1.648465 1.05265,-0.7852 -0.658542,0.863264 -1.642519,2.685319 -2.186614,4.049009 -0.657839,1.648773 -1.010499,1.911832 -1.05265,0.785201 z M 21.381833,46.774965 c 0.109787,-11.82259 0.279527,-12.886373 2.393443,-15 2.079801,-2.079517 3.239624,-2.284993 13.5,-2.391691 L 48.5,29.266548 38.268134,29.883274 c -9.447,0.569418 -10.444205,0.829272 -13,3.387575 -2.617596,2.620163 -2.801751,3.408708 -3.386301,14.5 L 21.263665,59.5 Z m 88.639337,9.941314 c -3.38091,-1.710672 -6.98474,-8.402123 -7.00472,-13.006117 -0.009,-2.084411 0.87753,-5.542174 1.97016,-7.683918 C 108.63427,28.876238 107.99863,29 141.07328,29 c 18.10967,0 30.79901,0.408122 32.63966,1.049775 3.17304,1.106127 5.34793,4.557608 5.19687,8.247278 -0.0667,1.629892 -0.33686,1.347612 -1.03846,-1.085141 -0.58111,-2.014956 -2.19177,-4.046284 -4.15981,-5.246262 -2.9921,-1.824374 -5.18049,-1.958429 -32.02728,-1.961912 -18.72037,-0.0024 -29.52242,0.374464 -30.83285,1.075785 -1.94117,1.038885 -6.82152,10.084896 -6.84164,12.681375 -0.0231,2.983839 4.43993,10.420292 7.07011,11.780412 3.97582,2.055972 55.37811,2.138542 60.20224,0.09671 3.66946,-1.553116 6.28891,-4.224738 6.99864,-7.138016 0.43021,-1.765916 0.50081,-1.728961 0.60324,0.315741 0.17698,3.533156 -1.69207,6.206119 -5.43237,7.768917 -4.61981,1.93028 -59.64997,2.04447 -63.43046,0.131621 z M 0,44.5 C 0,33.666667 0.11594203,33 2,33 3.884058,33 4,33.666667 4,44.5 4,55.333333 3.884058,56 2,56 0.11594203,56 0,55.333333 0,44.5 Z m 49.8125,6.816886 c 0.721875,-0.288871 1.584375,-0.253344 1.916667,0.07895 0.332291,0.332292 -0.258334,0.568641 -1.3125,0.52522 -1.164943,-0.04798 -1.4019,-0.284941 -0.604167,-0.604167 z M 71.272304,29.270202 c 2.074768,-0.216476 5.224768,-0.212846 7,0.0081 C 80.047537,29.49918 78.35,29.676296 74.5,29.67186 70.65,29.667423 69.197537,29.486677 71.272304,29.270202 Z M 0,23 C 0,20.697072 0.45100189,20 1.940983,20 3.0085237,20 4.16257,20.454027 4.5055305,21.008949 5.5978839,22.776413 3.9361049,26 1.9326123,26 0.45193196,26 0,25.298465 0,23 Z M 0,4.1112909 V 0 h 6 c 5.310012,0 6,0.22734511 6,1.976947 0,2.437314 -3.2885059,4.6537141 -8.25,5.5603674 L 0,8.2225818 Z M 193.68607,6.9834323 C 189.89944,5.8467955 188,4.1411681 188,1.8775553 188,0.24943216 188.7971,0 194,0 h 6 v 4 c 0,4.3331169 -0.70608,4.6667499 -6.31393,2.9834323 z M 39,2 c 0,-1.73333333 0.666667,-2 5,-2 4.333333,0 5,0.26666667 5,2 0,1.7333333 -0.666667,2 -5,2 -4.333333,0 -5,-0.2666667 -5,-2 z m 25,0 c 0,-1.93333333 0.666667,-2 20,-2 19.33333,0 20,0.06666667 20,2 0,1.9333333 -0.66667,2 -20,2 C 64.666667,4 64,3.9333333 64,2 Z m 55,0 c 0,-1.73333333 0.66667,-2 5,-2 4.33333,0 5,0.26666667 5,2 0,1.7333333 -0.66667,2 -5,2 -4.33333,0 -5,-0.2666667 -5,-2 z m 48,0 c 0,-1.73333333 0.66667,-2 5,-2 4.33333,0 5,0.26666667 5,2 0,1.7333333 -0.66667,2 -5,2 -4.33333,0 -5,-0.2666667 -5,-2 z"
       style="fill:#3880c1" />
    <path
       id="path6914"
       d="m 3.5,143.07705 c -8.3705363,-1.3375 25.659149,-1.88891 99,-1.60417 91.59324,0.3556 99.61035,0.49092 93.5,1.57816 -5.28717,0.94078 -186.6217164,0.96527 -192.5,0.026 z m 190.41044,-8.68497 c -0.60625,-0.73047 -1.6216,-1.23003 -2.25635,-1.11011 -0.74764,0.14124 -1.25894,-1.98313 -1.45181,-6.03197 -0.18478,-3.87921 0.0997,-6.25 0.75,-6.25 1.33762,0 1.38119,-8.67587 0.0477,-9.5 -0.60954,-0.37672 -1,-7.99071 -1,-19.5 0,-11.509288 0.39046,-19.123284 1,-19.5 0.55,-0.339919 1,-2.391476 1,-4.559017 C 192,65.773442 191.55,64 191,64 c -0.55,0 -1,-1.8 -1,-4 0,-2.2 0.45,-4 1,-4 0.55,0 1,-2.025 1,-4.5 0,-2.475 -0.45,-4.5 -1,-4.5 -0.61905,0 -1,-5.333333 -1,-14 0,-12.013322 0.22123,-14 1.55902,-14 0.85746,0 1.33429,-0.363605 1.05964,-0.808011 -0.27466,-0.444406 1.27378,-0.912636 3.44098,-1.04051 C 199.04218,16.975496 200,17.293445 200,18.45949 200,19.324829 199.13773,20 198.03258,20 c -1.9294,0 -1.97287,1.067427 -2.25,55.25 -0.15542,30.3875 -0.12194,55.8125 0.0744,56.5 0.19634,0.6875 1.20884,1.25 2.25,1.25 2.76572,0 2.31426,1.68632 -0.60064,2.24354 -1.39817,0.26727 -2.97788,-0.10678 -3.59591,-0.85146 z M 0,133.5 c 0,-0.825 0.84751589,-1.5 1.8833686,-1.5 2.301046,0 3.1030042,-2.68271 2.3903268,-7.99612 C 3.8643988,120.95235 3.292267,120 1.8683309,120 0.35527818,120 0,119.23937 0,116 c 0,-3.33333 0.33333333,-4 2,-4 1.7037037,0 2,-0.66667 2,-4.5 C 4,103.66667 3.7037037,103 2,103 0.05673759,103 0,102.33333 0,79.5 0,56.666667 0.05673759,56 2,56 3.884058,56 4,55.333333 4,44.5 4,33.666667 3.884058,33 2,33 0.38095238,33 0,32.333333 0,29.5 0,26.707347 0.39057919,26 1.9326123,26 3.9361049,26 5.5978839,22.776413 4.5055305,21.008949 4.16257,20.454027 3.0085237,20 1.940983,20 0.87344235,20 0,19.376075 0,18.613499 0,16.758317 5.7559582,15.921654 6.4302476,17.678824 6.7090882,18.405471 7.6263536,19 8.4686152,19 9.5034872,19 10,19.972674 10,22 c 0,1.65 -0.45,3 -1,3 -1.3324739,0 -1.3324739,21.676486 0,22.5 1.441709,0.891025 1.362994,64.5 -0.079817,64.5 -0.7226237,0 -0.975298,3.33792 -0.76385,10.09074 0.2824546,9.02049 0.1115553,10.24021 -1.6113128,11.5 C 3.9713569,135.47265 0,135.41759 0,133.5 Z m 30.25,-10.21625 c 1.5125,-0.22913 3.9875,-0.22913 5.5,0 1.5125,0.22912 0.275,0.41659 -2.75,0.41659 -3.025,0 -4.2625,-0.18747 -2.75,-0.41659 z m 47,-0.004 C 76.5625,123.03422 76,121.8707 76,120.69415 c 0,-2.12397 0.01138,-2.12292 1.601999,0.148 1.724748,2.46242 1.626306,3.14414 -0.351999,2.4376 z m 5.01375,0.003 c 1.520062,-0.22986 3.770062,-0.22371 5,0.0136 1.229937,0.23736 -0.01375,0.42542 -2.76375,0.41792 -2.75,-0.008 -3.756313,-0.20172 -2.23625,-0.43157 z m 44.98625,-0.0303 c 8.1125,-0.16808 21.3875,-0.16808 29.5,0 8.1125,0.16809 1.475,0.30561 -14.75,0.30561 -16.225,0 -22.8625,-0.13752 -14.75,-0.30561 z M 22.278145,121.75 c -1.703512,-2.20264 -2.486865,-4.32449 -0.852498,-2.30914 0.865679,1.06748 2.13655,2.29809 2.824157,2.73469 0.817462,0.51906 0.859912,0.79912 0.122641,0.80914 -0.620156,0.008 -1.562591,-0.54719 -2.0943,-1.23469 z M 41.732028,121 c 0.94185,-1.1 1.795317,-2 1.896593,-2 0.101277,0 -0.05122,0.9 -0.338872,2 -0.287656,1.1 -1.141123,2 -1.896593,2 -1.051817,0 -0.972436,-0.4685 0.338872,-2 z m 49.730907,0.041 c 0.975101,-1.07748 2.123783,-3.43998 2.552627,-5.25 l 0.779715,-3.29096 0.102362,3.02749 C 95.005434,118.7157 92.649385,123 90.788308,123 c -0.604056,0 -0.300473,-0.88157 0.674627,-1.95904 z m 15.825945,1.15874 c -2.42929,-1.54383 -5.43949,-10.20695 -5.15487,-14.83531 0.21515,-3.49861 1.00807,-5.29559 3.50487,-7.942967 C 107.41363,97.53964 109.44604,96 110.15535,96 c 0.70932,0 0.32644,0.674665 -0.85082,1.499255 -3.12803,2.190952 -6.306,7.804375 -6.29476,11.118775 0.0118,3.47908 4.25409,12.9351 6.14016,13.68633 0.74254,0.29576 0.90007,0.56638 0.35007,0.60138 -0.55,0.035 -1.545,-0.28272 -2.21112,-0.70604 z m 67.37572,-0.19927 c 1.19052,-0.48004 2.63934,-1.68901 3.21959,-2.68661 0.58024,-0.9976 1.06868,-1.28812 1.0854,-0.64561 0.072,2.76753 -1.32722,4.32834 -3.82658,4.2684 -2.50416,-0.0601 -2.5293,-0.10923 -0.47841,-0.93618 z M 43.194949,115.5 c 0.02038,-1.65 0.244498,-2.20394 0.498042,-1.23097 0.253543,0.97297 0.236869,2.32297 -0.03705,3 C 43.382014,117.94606 43.174569,117.15 43.194949,115.5 Z m 28.917279,-0.36358 c -1.863275,-1.54538 -3.213275,-3.23277 -3,-3.74976 0.213275,-0.51698 1.902467,0.75953 3.753761,2.83669 3.99859,4.48643 3.818173,4.70498 -0.753761,0.91307 z M 20.454706,78.5 c -2.82e-4,-21.45 0.131905,-30.367299 0.293751,-19.816221 0.161846,10.551079 0.162077,28.101079 5.14e-4,39 C 20.587408,108.5827 20.454989,99.95 20.454706,78.5 Z m 158.873434,30 c -0.004,-3.85 0.17268,-5.54754 0.39359,-3.7723 0.22091,1.77523 0.22454,4.92523 0.008,7 -0.21648,2.07476 -0.39722,0.6223 -0.40166,-3.2277 z M 44.031803,106.13487 c -0.01749,-0.75082 1.494888,-2.77582 3.360843,-4.5 C 49.258602,99.910692 51.006401,97.6 51.276645,96.5 c 0.434399,-1.768177 0.504798,-1.731579 0.607354,0.315741 0.16263,3.246609 -1.750635,6.449409 -3.460691,5.793199 C 47.640489,102.30855 47,102.41264 47,102.84026 c 0,1.47928 -2.934603,4.7366 -2.968197,3.29461 z M 94,89.5 c 0,-8.708333 0.245276,-15.588057 0.545057,-15.288276 0.769069,0.769069 0.849018,29.727536 0.08418,30.492366 C 94.283158,105.05018 94,98.208333 94,89.5 Z m 82.13922,9.41392 C 174.84078,97.861264 173.17984,97 172.44823,97 c -0.73161,0 -1.59716,-0.431963 -1.92346,-0.959918 -0.82646,-1.337251 5.62625,0.896799 7.41571,2.567456 2.30637,2.153252 0.7941,2.410482 -1.80126,0.306382 z M 61.666667,98.333333 c -0.366667,-0.366666 -0.638143,-1.829166 -0.603281,-3.25 0.0628,-2.559371 0.07186,-2.562245 0.976478,-0.30981 0.5022,1.250437 1.936176,2.684413 3.186613,3.186613 2.252435,0.904622 2.249561,0.913679 -0.30981,0.976478 -1.420834,0.03486 -2.883334,-0.236614 -3.25,-0.603281 z M 113.25,95.310674 c 0.9625,-0.251527 2.5375,-0.251527 3.5,0 0.9625,0.251528 0.175,0.457323 -1.75,0.457323 -1.925,0 -2.7125,-0.205795 -1.75,-0.457323 z m 18,-0.05788 c 7.0125,-0.1719 18.4875,-0.1719 25.5,0 7.0125,0.1719 1.275,0.312545 -12.75,0.312545 -14.025,0 -19.7625,-0.140645 -12.75,-0.312545 z m -17.4375,-3.935905 c 0.72187,-0.288871 1.58437,-0.253344 1.91667,0.07895 0.33229,0.332292 -0.25834,0.568641 -1.3125,0.52522 -1.16495,-0.04798 -1.4019,-0.284941 -0.60417,-0.604167 z m 18.4375,-0.04535 c 2.0625,-0.215745 5.4375,-0.215745 7.5,0 2.0625,0.215744 0.375,0.392262 -3.75,0.392262 -4.125,0 -5.8125,-0.176518 -3.75,-0.392262 z m 21.5625,0.04535 c 0.72187,-0.288871 1.58437,-0.253344 1.91667,0.07895 0.33229,0.332292 -0.25834,0.568641 -1.3125,0.52522 -1.16495,-0.04798 -1.4019,-0.284941 -0.60417,-0.604167 z m 12,0 c 0.72187,-0.288871 1.58437,-0.253344 1.91667,0.07895 0.33229,0.332292 -0.25834,0.568641 -1.3125,0.52522 -1.16495,-0.04798 -1.4019,-0.284941 -0.60417,-0.604167 z m -58.89236,-2.396744 c -1.14392,-1.143922 -2.53794,-3.393922 -3.09782,-5 C 103.26243,82.314064 102.49035,81 102.10656,81 c -0.38378,0 -0.80659,-1.615569 -0.93957,-3.590154 -0.3565,-5.293507 5.38467,-13.629775 10.45943,-15.187263 2.07453,-0.636692 3.97167,-0.95783 4.21586,-0.713641 0.24418,0.244189 -0.40793,0.716183 -1.44915,1.048874 -5.07684,1.622155 -6.52362,2.68721 -9.03897,6.654066 -1.57471,2.483405 -2.68515,5.613043 -2.63848,7.436228 0.10069,3.933383 4.86973,12.238817 7.67976,13.374528 1.70874,0.690612 1.77542,0.862511 0.35456,0.913976 -0.9625,0.03486 -2.68594,-0.87255 -3.82986,-2.016472 z m 65.84105,0.958177 c 1.79366,-0.517717 3.81441,-1.827132 4.49055,-2.909811 1.57356,-2.519665 2.70969,-2.537035 2.05446,-0.03141 -0.50105,1.916025 -5.10932,4.147148 -8.20542,3.972713 -0.88043,-0.0496 -0.13324,-0.513775 1.66041,-1.031492 z M 61.102361,86.384859 c -0.111187,-3.383729 2.719129,-7.710506 6.225191,-9.51661 1.566495,-0.806961 1.235921,-0.133365 -1.185165,2.414957 -1.846688,1.943736 -3.713125,5.03768 -4.147639,6.87543 L 61.204723,89.5 Z M 179.32007,77 c 0,-3.575 0.1815,-5.0375 0.40333,-3.25 0.22182,1.7875 0.22182,4.7125 0,6.5 -0.22183,1.7875 -0.40333,0.325 -0.40333,-3.25 z M 49.75,78.833333 C 48.7875,77.825 48.3949,77 48.877555,77 c 1.008568,0 3.605677,2.892189 3.014946,3.357499 C 51.676625,80.527541 50.7125,79.841667 49.75,78.833333 Z m 21.5,-4.138409 C 72.2125,73.916449 73,72.766624 73,72.139757 73,71.512891 73.435877,71 73.968615,71 75.605299,71 73.892,73.994227 71.632351,75.082946 69.686707,76.020375 69.653228,75.986401 71.25,74.694924 Z M 95.134696,67.89839 C 95.188674,64.929276 94.898691,56.875 94.490289,50 94.081887,43.125 93.998093,37.731095 94.304081,38.013545 c 0.305988,0.28245 0.655475,4.263757 0.776636,8.84735 0.121162,4.583592 0.789118,9.984826 1.484346,12.002741 0.898846,2.60892 0.999489,5.085069 0.348347,8.570464 -1.256087,6.723503 -1.895541,6.890417 -1.778714,0.46429 z M 43.194949,67.5 c 0.02038,-1.65 0.244498,-2.203936 0.498042,-1.230968 0.253543,0.972967 0.236869,2.322967 -0.03705,3 C 43.382014,69.946064 43.174569,69.15 43.194949,67.5 Z M 176.35702,65.91258 c -1.11752,-1.117525 -4.24252,-2.415855 -6.94444,-2.885177 L 164.5,62.17409 l 5.24329,0.09136 c 4.11653,0.07173 5.71118,0.589412 7.42061,2.409012 2.71272,2.887565 1.97484,4.019829 -0.80688,1.238118 z M 70.015313,58.25 c 0.0087,-0.998683 0.335726,-1.320676 0.761633,-0.75 0.410477,0.55 1.153586,1.3375 1.651354,1.75 0.497768,0.4125 0.155033,0.75 -0.761633,0.75 -0.926469,0 -1.659866,-0.777208 -1.651354,-1.75 z M 44.030409,58.30576 C 44.013684,57.648934 45.0125,56.05188 46.25,54.756754 47.4875,53.461629 48.000493,53.099036 47.389983,53.950991 46.779474,54.802946 45.780658,56.4 45.170392,57.5 c -0.610266,1.1 -1.123259,1.462594 -1.139983,0.805764 z M 110,57.917216 C 107.21902,56.798283 104.47973,53.785657 102.80112,50 c -1.41255,-3.185614 -1.94538,-12 -0.72541,-12 0.50836,0 0.84576,-0.3375 0.74978,-0.75 -0.40504,-1.740715 2.55793,-6.045277 5.25972,-7.641265 3.21853,-1.901233 4.09783,-0.828647 0.93827,1.144527 -2.8805,1.798904 -6.02601,8.583633 -6.00703,12.9569 0.02,4.603994 3.62381,11.295445 7.00472,13.006117 1.81446,0.918078 10.193,1.258188 31.26095,1.268979 30.30112,0.01552 34.16305,-0.474441 36.58535,-4.64156 0.58944,-1.014034 1.06945,-1.393698 1.06669,-0.843698 -0.009,1.695005 -2.35366,4.973198 -3.93416,5.49943 -3.00875,1.001773 -62.49287,0.926535 -65,-0.08221 z M 55.223567,51.273107 c 2.047962,-0.214877 5.647962,-0.217849 8,-0.0066 C 65.575605,51.477749 63.9,51.653557 59.5,51.65719 55.1,51.66079 53.175605,51.487985 55.223567,51.273107 Z M 179.32007,43 c 0,-3.575 0.1815,-5.0375 0.40333,-3.25 0.22182,1.7875 0.22182,4.7125 0,6.5 -0.22183,1.7875 -0.40333,0.325 -0.40333,-3.25 z M 93.116001,35.25 C 93.052201,34.0125 92.1,32.1 91,31 c -1.1,-1.1 -1.560374,-2 -1.023053,-2 1.588496,0 4.227607,4.751468 3.721848,6.700831 -0.3669,1.414151 -0.491616,1.317675 -0.582794,-0.450831 z M 21.014742,34.972506 c -0.02201,-2.280186 2.648524,-5.651185 4.954667,-6.254255 2.73128,-0.714246 2.587984,0.561006 -0.201656,1.794621 C 24.540017,31.055792 22.97165,32.625 22.282494,34 c -0.711403,1.419388 -1.259382,1.839749 -1.267752,0.972506 z M 177.52161,33.068073 c -0.33725,-1.062561 -1.83007,-2.385177 -3.31739,-2.939148 L 171.5,29.121704 l 3.10694,0.140955 c 2.42098,0.109834 3.34012,0.758738 4.16313,2.939147 C 179.35098,33.740813 179.44569,35 178.98052,35 c -0.46516,0 -1.12167,-0.869367 -1.45891,-1.931927 z M 44.311174,28.251792 c 8.146146,-0.168277 21.196146,-0.167889 29,8.63e-4 C 81.115028,28.421407 74.45,28.559088 58.5,28.558614 42.55,28.558139 36.165028,28.42007 44.311174,28.251792 Z m 83.499326,1.21e-4 c 7.87078,-0.169161 20.47078,-0.168748 28,9.16e-4 7.52923,0.169664 1.0895,0.308067 -14.3105,0.307563 -15.4,-5.03e-4 -21.56027,-0.139319 -13.6895,-0.308479 z M 47,8.8583498 C 47,8.0213072 40.66318,7.8455456 23.25,8.1996064 3.0335771,8.6106653 0.21159041,8.4971299 4.2827659,7.436508 9.9025055,5.9724546 12,4.4615671 12,1.8775553 12,0.13353368 12.960134,0 25.5,0 38.333333,0 39,0.09876543 39,2 c 0,1.7333333 0.666667,2 5,2 4.333333,0 5,-0.2666667 5,-2 0,-1.82222222 0.666667,-2 7.5,-2 6.833333,0 7.5,0.17777778 7.5,2 0,1.9333333 0.666667,2 20,2 19.33333,0 20,-0.066667 20,-2 0,-1.82222222 0.66667,-2 7.5,-2 6.83333,0 7.5,0.17777778 7.5,2 0,1.7333333 0.66667,2 5,2 4.33333,0 5,-0.2666667 5,-2 0,-1.92982456 0.66667,-2 19,-2 18.33333,0 19,0.07017544 19,2 0,1.7333333 0.66667,2 5,2 4.33333,0 5,-0.2666667 5,-2 0,-1.75757576 0.66667,-2 5.5,-2 4.71377,0 5.5,0.26839736 5.5,1.8775553 0,2.5432583 2.03354,4.0489896 7.71723,5.7142197 4.7638,1.3957138 4.74608,1.3993459 -4.46723,0.9156532 C 185.49067,8.2050672 182,8.395064 182,9.0109046 182,10.313811 168.30562,10.303513 167.5,9 166.68854,7.6870369 153,7.6870369 153,9 c 0,0.55 -2.25,1 -5,1 -2.75,0 -5,-0.45 -5,-1 0,-0.5777778 -3.16667,-1 -7.5,-1 -4.33333,0 -7.5,0.4222222 -7.5,1 0,0.6236559 -5.83333,1 -15.5,1 C 102.83333,10 97,9.6236559 97,9 97,7.5568296 88.250814,7.7475589 87.766236,9.201293 87.454628,10.136117 85.051596,10.134857 76.932902,9.1956105 64.269439,7.730583 57,7.6592447 57,9 c 0,0.55 -2.25,1 -5,1 -3.08025,0 -5,-0.4383366 -5,-1.1416502 z"
       style="fill:#337ec0" />
    <path
       id="path6912"
       d="M 2.6961051e-5,138.25 C 4.3281644e-6,135.52174 0.37065212,135 2.3088704,135 c 1.2698787,0 3.1761461,-0.63417 4.2361499,-1.40926 1.7228681,-1.25979 1.8937674,-2.47951 1.6113128,-11.5 C 7.9448851,115.33792 8.1975594,112 8.9201831,112 10.362994,112 10.441709,48.391025 9,47.5 7.6675261,46.676486 7.6675261,25 9,25 9.55,25 10,23.65 10,22 10,19.972674 9.5034872,19 8.4686152,19 7.6263536,19 6.7090882,18.405471 6.4302476,17.678824 6.1104051,16.845328 4.8300505,16.518098 2.9616324,16.792323 0.10414418,17.211714 0,17.08751 0,13.260235 V 9.293472 L 7.6508777,8.646736 C 19.828682,7.6173346 47,7.8612701 47,9 c 0,0.55 2.25,1 5,1 2.75,0 5,-0.45 5,-1 0,-1.3407553 7.269439,-1.269417 19.932902,0.1956105 8.118694,0.9392465 10.521726,0.9405065 10.833334,0.00568 C 88.250814,7.7475589 97,7.5568296 97,9 c 0,0.6236559 5.83333,1 15.5,1 9.66667,0 15.5,-0.3763441 15.5,-1 0,-0.5777778 3.16667,-1 7.5,-1 4.33333,0 7.5,0.4222222 7.5,1 0,0.55 2.25,1 5,1 2.75,0 5,-0.45 5,-1 0,-0.5706188 2.98033,-1 6.94098,-1 3.81754,0 7.2191,0.45 7.55902,1 0.79561,1.287331 14.22592,1.313155 14.66667,0.028201 0.20373,-0.593955 3.73541,-0.7306087 9.08333,-0.3514679 L 200,9.2970639 v 3.8514681 c 0,3.654288 -0.16639,3.857531 -3.25,3.969889 -1.7875,0.06513 -3.62095,0.05398 -4.07433,-0.02478 -0.45338,-0.07876 -0.53932,0.317952 -0.19098,0.881579 C 192.83303,18.538851 192.41648,19 191.55902,19 190.22123,19 190,20.986678 190,33 c 0,8.666667 0.38095,14 1,14 0.55,0 1,2.025 1,4.5 0,2.475 -0.45,4.5 -1,4.5 -0.55,0 -1,1.8 -1,4 0,2.2 0.45,4 1,4 0.55,0 1,1.773442 1,3.940983 0,2.167541 -0.45,4.219098 -1,4.559017 -0.60954,0.376716 -1,7.990712 -1,19.5 0,11.50929 0.39046,19.12328 1,19.5 1.33347,0.82413 1.2899,9.5 -0.0477,9.5 -0.65029,0 -0.93478,2.37079 -0.75,6.25 0.16375,3.4375 0.74772,6.25689 1.29772,6.26531 0.55,0.008 1.675,0.44454 2.5,0.96915 0.825,0.52461 2.5125,0.82301 3.75,0.66312 1.95063,-0.25203 2.25,0.16341 2.25,3.12238 v 3.41309 L 100.00005,141.59155 5.3922102e-5,141.5 Z M 42.840866,122.49247 c 0.332224,-0.33223 0.64501,-3.61644 0.695081,-7.29826 0.06616,-4.86519 0.643887,-7.58121 2.114469,-9.94062 1.112887,-1.78552 2.358608,-2.91123 2.768269,-2.50157 0.40966,0.40966 1.383045,-0.12797 2.163076,-1.19472 C 52.460123,98.988484 52.599083,79.727497 50.75,78.237917 50.0625,77.684083 48.067947,76.924915 46.317659,76.550878 l -3.18234,-0.680067 0.253568,-7.685406 C 43.635916,60.698167 44.661598,57.329002 47.783487,53.75 49.032626,52.317959 51.001486,52 58.619804,52 c 8.180899,0 9.435357,0.234552 10.345012,1.934259 C 69.534167,54.998101 70,56.798101 70,57.934259 70,59.321003 70.645823,60 71.964816,60 73.045465,60 74.414673,60.906306 75.0075,62.014014 76.180206,64.205236 75.334231,71 73.888709,71 73.399919,71 73,71.592137 73,72.315859 c 0,0.723722 -1.782054,2.317429 -3.960119,3.54157 -6.84809,3.848842 -8.160666,6.376653 -7.828631,15.076692 L 61.5,98.5 l 2.99675,0.340233 c 3.857918,0.438004 4.346293,1.351287 4.286407,8.015767 -0.04634,5.15751 0.182135,5.69455 3.583671,8.42336 C 74.643184,117.10551 76,119.05144 76,120.49001 c 0,2.92127 1.28892,3.37855 8.949849,3.17526 9.178934,-0.24358 10.025745,-1.62408 10.137216,-16.52605 0.18504,-24.736898 0.645675,-35.807041 1.670019,-40.134488 0.799009,-3.375497 0.750185,-5.406322 -0.196002,-8.15265 C 95.868043,56.840521 95.207187,51.645305 95.092514,47.307155 94.97784,42.969006 94.493221,37.686879 94.015584,35.569096 92.362942,28.241498 93.698288,28.5 57.498748,28.5 c -36.783976,0 -35.174775,-0.359859 -36.598095,8.184275 -0.441223,2.648649 -0.804636,22.181273 -0.807583,43.405832 -0.0058,42.084023 0.01882,42.272273 5.667848,43.256273 3.437751,0.59882 16.2687,-0.0427 17.079948,-0.85391 z m 129.853044,0.86619 c 3.43793,-0.41301 5.40673,-1.17076 5.8234,-2.24131 0.34621,-0.88954 0.84768,-5.44235 1.11437,-10.11735 0.90936,-15.94082 0.57952,-16.07033 -40.09492,-15.743026 L 109.33563,95.5 l -3.46178,3.671423 c -2.72351,2.888437 -3.52056,4.627167 -3.73738,8.152927 -0.3895,6.33389 3.21647,14.50403 6.74239,15.27641 1.44163,0.3158 3.07114,0.72429 3.62114,0.90776 1.84172,0.61437 54.93263,0.48219 60.19391,-0.14986 z m 2.49288,-33.25529 c 4.35134,-1.436074 4.6829,-2.485902 4.44002,-14.058797 -0.16501,-7.862102 -0.47198,-9.25086 -2.52874,-11.440184 l -2.34094,-2.491813 -29.01747,-0.08312 c -15.9596,-0.04572 -29.33071,-0.276713 -29.71356,-0.513329 -0.38285,-0.236615 -2.37807,0.086 -4.43383,0.716932 -6.97885,2.141871 -13.023116,14.657828 -9.30448,19.266938 0.44374,0.55 1.62048,2.575 2.61499,4.5 1.12318,2.174081 2.95195,3.882635 4.82737,4.510034 4.38216,1.465999 60.84531,1.11521 65.45664,-0.406664 z m 0.47863,-32.155126 c 2.3067,-0.55732 3.66129,-5.609382 3.87394,-14.448244 0.22153,-9.207904 -0.85749,-13.615755 -3.54494,-14.48131 -0.82193,-0.26472 -15.84531,-0.590215 -33.38529,-0.723323 -28.03558,-0.212756 -32.22621,-0.04392 -34.66479,1.396581 -2.58661,1.527951 -5.51565,5.852718 -5.11885,7.558052 0.096,0.4125 -0.24142,0.75 -0.74978,0.75 -1.21997,0 -0.68714,8.814386 0.72541,12 1.67861,3.785657 4.4179,6.798283 7.19888,7.917216 2.17008,0.873137 62.06288,0.901437 65.66542,0.03103 z"
       style="fill:#2879bd" />
  </g>
</svg>
