<?xml version="1.0" encoding="UTF-8" standalone="no"?>
<svg
   xmlns:dc="http://purl.org/dc/elements/1.1/"
   xmlns:cc="http://creativecommons.org/ns#"
   xmlns:rdf="http://www.w3.org/1999/02/22-rdf-syntax-ns#"
   xmlns:svg="http://www.w3.org/2000/svg"
   xmlns="http://www.w3.org/2000/svg"
   viewBox="0 0 278.16895 512.5"
   height="512.5"
   width="278.16895"
   id="svg4485"
   version="1.1">
  <metadata
     id="metadata4491">
    <rdf:RDF>
      <cc:Work
         rdf:about="">
        <dc:format>image/svg+xml</dc:format>
        <dc:type
           rdf:resource="http://purl.org/dc/dcmitype/StillImage" />
        <dc:title></dc:title>
      </cc:Work>
    </rdf:RDF>
  </metadata>
  <defs
     id="defs4489" />
  <g
     transform="translate(-0.29515741,0.5)"
     id="g5890">
    <path
       id="path5902"
       d="M 250.95821,500.25 246.5,495.5 l 4.75,4.45821 c 4.41519,4.14396 5.20909,5.04179 4.45821,5.04179 -0.16049,0 -2.29799,-2.1375 -4.75,-4.75 z m 17,-12 -4.45821,-4.75 4.75,4.45821 c 4.41519,4.14396 5.20909,5.04179 4.45821,5.04179 -0.16049,0 -2.29799,-2.1375 -4.75,-4.75 z m -52,-22 -4.45821,-4.75 4.75,4.45821 c 4.41519,4.14396 5.20909,5.04179 4.45821,5.04179 -0.16049,0 -2.29799,-2.1375 -4.75,-4.75 z m 17,-12 -4.45821,-4.75 4.75,4.45821 c 4.41519,4.14396 5.20909,5.04179 4.45821,5.04179 -0.16049,0 -2.29799,-2.1375 -4.75,-4.75 z m -51.50526,-21.5 -3.95295,-4.25 4.25,3.95295 c 3.95246,3.6762 4.70953,4.54705 3.95295,4.54705 -0.16338,0 -2.07588,-1.9125 -4.25,-4.25 z m 16.50526,-12.5 -4.45821,-4.75 4.75,4.45821 c 4.41519,4.14396 5.20909,5.04179 4.45821,5.04179 -0.16049,0 -2.29799,-2.1375 -4.75,-4.75 z m -51.50526,-21.5 -3.95295,-4.25 4.25,3.95295 c 3.95246,3.6762 4.70953,4.54705 3.95295,4.54705 -0.16338,0 -2.07588,-1.9125 -4.25,-4.25 z m 16.50526,-12.5 -4.45821,-4.75 4.75,4.45821 c 4.41519,4.14396 5.20909,5.04179 4.45821,5.04179 -0.16049,0 -2.29799,-2.1375 -4.75,-4.75 z m -51.50526,-21.5 -3.95295,-4.25 4.25,3.95295 c 2.3375,2.17412 4.25,4.08662 4.25,4.25 0,0.75658 -0.87085,-4.9e-4 -4.54705,-3.95295 z m 16.50526,-12.5 -4.45821,-4.75 4.75,4.45821 c 4.41519,4.14396 5.20909,5.04179 4.45821,5.04179 -0.16049,0 -2.29799,-2.1375 -4.75,-4.75 z M 76.958208,331.25 72.5,326.5 l 4.75,4.45821 C 81.66519,335.10217 82.459094,336 81.708208,336 c -0.160486,0 -2.297986,-2.1375 -4.75,-4.75 z M 93.452948,318.75 89.5,314.5 l 4.25,3.95295 c 2.3375,2.17412 4.25,4.08662 4.25,4.25 0,0.75658 -0.87085,-4.9e-4 -4.547052,-3.95295 z M 41.958208,297.25 37.5,292.5 l 4.75,4.45821 C 46.66519,301.10217 47.459094,302 46.708208,302 c -0.160486,0 -2.297986,-2.1375 -4.75,-4.75 z M 58.452948,284.75 54.5,280.5 l 4.25,3.95295 c 2.3375,2.17412 4.25,4.08662 4.25,4.25 0,0.75658 -0.87085,-4.9e-4 -4.547052,-3.95295 z M 6.958208,263.25 2.5,258.5 l 4.75,4.45821 c 2.6125,2.45201 4.75,4.58951 4.75,4.75 0,0.75088 -0.897827,-0.043 -5.041792,-4.45821 z M 8,247.5 c 2.429029,-2.475 4.641416,-4.5 4.916416,-4.5 0.275,0 -1.487387,2.025 -3.916416,4.5 -2.4290288,2.475 -4.6414159,4.5 -4.9164159,4.5 -0.275,0 1.4873871,-2.025 3.9164159,-4.5 z m 51,-21 c 2.429029,-2.475 4.641416,-4.5 4.916416,-4.5 0.275,0 -1.487387,2.025 -3.916416,4.5 -2.429029,2.475 -4.641416,4.5 -4.916416,4.5 -0.275,0 1.487387,-2.025 3.916416,-4.5 z M 42.5,214 c 2.148243,-2.2 4.130896,-4 4.405896,-4 0.275,0 -1.257653,1.8 -3.405896,4 -2.148243,2.2 -4.130896,4 -4.405896,4 -0.275,0 1.257653,-1.8 3.405896,-4 z M 94,192.5 c 2.429029,-2.475 4.641416,-4.5 4.916416,-4.5 0.275,0 -1.487387,2.025 -3.916416,4.5 -2.429029,2.475 -4.641416,4.5 -4.916416,4.5 -0.275,0 1.487387,-2.025 3.916416,-4.5 z M 77.5,180 c 2.148243,-2.2 4.130896,-4 4.405896,-4 0.275,0 -1.257653,1.8 -3.405896,4 -2.148243,2.2 -4.130896,4 -4.405896,4 -0.275,0 1.257653,-1.8 3.405896,-4 z m 51,-21 c 2.14824,-2.2 4.1309,-4 4.4059,-4 0.275,0 -1.25766,1.8 -3.4059,4 -2.14824,2.2 -4.1309,4 -4.4059,4 -0.275,0 1.25766,-1.8 3.4059,-4 z M 112,146.5 c 2.42903,-2.475 4.64142,-4.5 4.91642,-4.5 0.275,0 -1.48739,2.025 -3.91642,4.5 -2.42903,2.475 -4.64142,4.5 -4.91642,4.5 -0.275,0 1.48739,-2.025 3.91642,-4.5 z m 51,-21 c 2.42903,-2.475 4.64142,-4.5 4.91642,-4.5 0.275,0 -1.48739,2.025 -3.91642,4.5 -2.42903,2.475 -4.64142,4.5 -4.91642,4.5 -0.275,0 1.48739,-2.025 3.91642,-4.5 z m -16,-13 c 2.42903,-2.475 4.64142,-4.5 4.91642,-4.5 0.275,0 -1.48739,2.025 -3.91642,4.5 -2.42903,2.475 -4.64142,4.5 -4.91642,4.5 -0.275,0 1.48739,-2.025 3.91642,-4.5 z m 51,-21 c 2.42903,-2.475 4.64142,-4.5 4.91642,-4.5 0.275,0 -1.48739,2.025 -3.91642,4.5 -2.42903,2.475 -4.64142,4.5 -4.91642,4.5 -0.275,0 1.48739,-2.025 3.91642,-4.5 z m -16,-13 c 2.42903,-2.475 4.64142,-4.5 4.91642,-4.5 0.275,0 -1.48739,2.025 -3.91642,4.5 -2.42903,2.475 -4.64142,4.5 -4.91642,4.5 -0.275,0 1.48739,-2.025 3.91642,-4.5 z M 232.5,58 c 2.14824,-2.2 4.1309,-4 4.4059,-4 0.275,0 -1.25766,1.8 -3.4059,4 -2.14824,2.2 -4.1309,4 -4.4059,4 -0.275,0 1.25766,-1.8 3.4059,-4 z m -16,-13 c 2.14824,-2.2 4.1309,-4 4.4059,-4 0.275,0 -1.25766,1.8 -3.4059,4 -2.14824,2.2 -4.1309,4 -4.4059,4 -0.275,0 1.25766,-1.8 3.4059,-4 z M 267,24.5 c 2.42903,-2.475 4.64142,-4.5 4.91642,-4.5 0.275,0 -1.48739,2.025 -3.91642,4.5 -2.42903,2.475 -4.64142,4.5 -4.91642,4.5 -0.275,0 1.48739,-2.025 3.91642,-4.5 z m -16,-13 c 2.42903,-2.475 4.64142,-4.5 4.91642,-4.5 0.275,0 -1.48739,2.025 -3.91642,4.5 -2.42903,2.475 -4.64142,4.5 -4.91642,4.5 -0.275,0 1.48739,-2.025 3.91642,-4.5 z"
       style="fill:#eeeeee" />
    <path
       id="path5900"
       d="m 274.45345,501.25673 2.90783,-3.24326 -2.40244,-2.75674 -2.40243,-2.75673 2.95081,2.75175 2.95082,2.75175 -3.45621,3.24825 -3.45621,3.24825 z M 242.45295,491.75 238.5,487.5 l 4.25,3.95295 c 2.3375,2.17412 4.25,4.08662 4.25,4.25 0,0.75658 -0.87085,-4.9e-4 -4.54705,-3.95295 z m -1,-29 -3.95295,-4.25 4.25,3.95295 c 3.95246,3.6762 4.70953,4.54705 3.95295,4.54705 -0.16338,0 -2.07588,-1.9125 -4.25,-4.25 z m -34,-5 -3.95295,-4.25 4.25,3.95295 c 3.95246,3.6762 4.70953,4.54705 3.95295,4.54705 -0.16338,0 -2.07588,-1.9125 -4.25,-4.25 z m -1,-29 -3.95295,-4.25 4.25,3.95295 c 3.95246,3.6762 4.70953,4.54705 3.95295,4.54705 -0.16338,0 -2.07588,-1.9125 -4.25,-4.25 z m -33.49474,-4.5 -4.45821,-4.75 4.75,4.45821 c 4.41519,4.14396 5.20909,5.04179 4.45821,5.04179 -0.16049,0 -2.29799,-2.1375 -4.75,-4.75 z m -1.50526,-29.5 -3.95295,-4.25 4.25,3.95295 c 2.3375,2.17412 4.25,4.08662 4.25,4.25 0,0.75658 -0.87085,-4.9e-4 -4.54705,-3.95295 z m -33.49474,-4.5 -4.45821,-4.75 4.75,4.45821 c 4.41519,4.14396 5.20909,5.04179 4.45821,5.04179 -0.16049,0 -2.29799,-2.1375 -4.75,-4.75 z m -1.50526,-29.5 -3.95295,-4.25 4.25,3.95295 c 2.3375,2.17412 4.25,4.08662 4.25,4.25 0,0.75658 -0.87085,-4.9e-4 -4.54705,-3.95295 z m -33,-4 -3.95295,-4.25 4.25,3.95295 c 2.3375,2.17412 4.25,4.08662 4.25,4.25 0,0.75658 -0.87085,-4.9e-4 -4.54705,-3.95295 z m -1.49474,-29.5 -4.45821,-4.75 4.75,4.45821 c 4.41519,4.14396 5.20909,5.04179 4.45821,5.04179 -0.16049,0 -2.29799,-2.1375 -4.75,-4.75 z M 68.452948,322.75 64.5,318.5 l 4.25,3.95295 c 3.952458,3.6762 4.709525,4.54705 3.952948,4.54705 -0.163379,0 -2.075879,-1.9125 -4.25,-4.25 z M 66.958208,293.25 62.5,288.5 l 4.75,4.45821 C 71.66519,297.10217 72.459094,298 71.708208,298 c -0.160486,0 -2.297986,-2.1375 -4.75,-4.75 z M 33.452948,288.75 29.5,284.5 l 4.25,3.95295 c 2.3375,2.17412 4.25,4.08662 4.25,4.25 0,0.75658 -0.87085,-4.9e-4 -4.547052,-3.95295 z M 32.484019,259.98363 28.562143,255.96727 33.0145,251.73363 37.466857,247.5 33.530481,251.75 29.594104,256 33.5,260 c 2.148243,2.2 3.680896,4 3.405896,4 -0.275,0 -2.264845,-1.80736 -4.421877,-4.01637 z M 0.95474792,257.44547 c -1.08294064,-1.30486 -0.90781291,-1.90712 1.09043728,-3.75 L 4.4257639,251.5 2.5748698,253.73124 c -1.5154544,1.82687 -1.62246003,2.50649 -0.5904372,3.75 C 2.6776838,258.31656 3.0198894,259 2.7448894,259 c -0.275,0 -1.0805637,-0.69954 -1.79014148,-1.55453 z M 34.5,222 c 2.148243,-2.2 4.130896,-4 4.405896,-4 0.275,0 -1.257653,1.8 -3.405896,4 -2.148243,2.2 -4.130896,4 -4.405896,4 -0.275,0 1.257653,-1.8 3.405896,-4 z m 33,-4 c 2.148243,-2.2 4.130896,-4 4.405896,-4 0.275,0 -1.257653,1.8 -3.405896,4 -2.148243,2.2 -4.130896,4 -4.405896,4 -0.275,0 1.257653,-1.8 3.405896,-4 z M 69,188.5 c 2.429029,-2.475 4.641416,-4.5 4.916416,-4.5 0.275,0 -1.487387,2.025 -3.916416,4.5 -2.429029,2.475 -4.641416,4.5 -4.916416,4.5 -0.275,0 1.487387,-2.025 3.916416,-4.5 z m 33.5,-4.5 c 2.14824,-2.2 4.1309,-4 4.4059,-4 0.275,0 -1.25766,1.8 -3.4059,4 -2.14824,2.2 -4.130896,4 -4.405896,4 -0.275,0 1.257656,-1.8 3.405896,-4 z m 1,-29 c 2.14824,-2.2 4.1309,-4 4.4059,-4 0.275,0 -1.25766,1.8 -3.4059,4 -2.14824,2.2 -4.1309,4 -4.4059,4 -0.274996,0 1.25766,-1.8 3.4059,-4 z m 33,-4 c 2.14824,-2.2 4.1309,-4 4.4059,-4 0.275,0 -1.25766,1.8 -3.4059,4 -2.14824,2.2 -4.1309,4 -4.4059,4 -0.275,0 1.25766,-1.8 3.4059,-4 z m 2,-30 c 2.14824,-2.2 4.1309,-4 4.4059,-4 0.275,0 -1.25766,1.8 -3.4059,4 -2.14824,2.2 -4.1309,4 -4.4059,4 -0.275,0 1.25766,-1.8 3.4059,-4 z m 33,-4 c 2.14824,-2.2 4.1309,-4 4.4059,-4 0.275,0 -1.25766,1.8 -3.4059,4 -2.14824,2.2 -4.1309,4 -4.4059,4 -0.275,0 1.25766,-1.8 3.4059,-4 z m 2,-30 c 2.14824,-2.2 4.1309,-4 4.4059,-4 0.275,0 -1.25766,1.8 -3.4059,4 -2.14824,2.2 -4.1309,4 -4.4059,4 -0.275,0 1.25766,-1.8 3.4059,-4 z m 33,-4 c 2.14824,-2.2 4.1309,-4 4.4059,-4 0.275,0 -1.25766,1.8 -3.4059,4 -2.14824,2.2 -4.1309,4 -4.4059,4 -0.275,0 1.25766,-1.8 3.4059,-4 z M 208,53.5 c 2.42903,-2.475 4.64142,-4.5 4.91642,-4.5 0.275,0 -1.48739,2.025 -3.91642,4.5 -2.42903,2.475 -4.64142,4.5 -4.91642,4.5 -0.275,0 1.48739,-2.025 3.91642,-4.5 z M 240.5,50 c 2.14824,-2.2 4.1309,-4 4.4059,-4 0.275,0 -1.25766,1.8 -3.4059,4 -2.14824,2.2 -4.1309,4 -4.4059,4 -0.275,0 1.25766,-1.8 3.4059,-4 z m 2,-30 c 2.14824,-2.2 4.1309,-4 4.4059,-4 0.275,0 -1.25766,1.8 -3.4059,4 -2.14824,2.2 -4.1309,4 -4.4059,4 -0.275,0 1.25766,-1.8 3.4059,-4 z m 31.96441,-2.754709 2.9188,-3.254709 -3.42242,-3.745291 L 270.53837,6.5 l 3.96287,3.748718 3.96286,3.748718 -3.45924,3.251282 L 271.54562,20.5 Z"
       style="fill:#cfcfcf" />
    <path
       id="path5898"
       d="m 267,508.5 c 1.86578,-1.925 3.61733,-3.5 3.89233,-3.5 0.275,0 -1.02655,1.575 -2.89233,3.5 -1.86578,1.925 -3.61733,3.5 -3.89233,3.5 -0.275,0 1.02655,-1.575 2.89233,-3.5 z M 233.95821,483.25 229.5,478.5 l 4.75,4.45821 c 2.6125,2.45201 4.75,4.58951 4.75,4.75 0,0.75088 -0.89783,-0.043 -5.04179,-4.45821 z m 16.49474,-11.5 -3.95295,-4.25 4.25,3.95295 c 3.95246,3.6762 4.70953,4.54705 3.95295,4.54705 -0.16338,0 -2.07588,-1.9125 -4.25,-4.25 z m -51.49474,-22.5 -4.45821,-4.75 4.75,4.45821 c 2.6125,2.45201 4.75,4.58951 4.75,4.75 0,0.75088 -0.89783,-0.043 -5.04179,-4.45821 z m 16.49474,-11.5 -3.95295,-4.25 4.25,3.95295 c 3.95246,3.6762 4.70953,4.54705 3.95295,4.54705 -0.16338,0 -2.07588,-1.9125 -4.25,-4.25 z m -51.49474,-22.5 -4.45821,-4.75 4.75,4.45821 c 4.41519,4.14396 5.20909,5.04179 4.45821,5.04179 -0.16049,0 -2.29799,-2.1375 -4.75,-4.75 z m 16.49474,-11.5 -3.95295,-4.25 4.25,3.95295 c 3.95246,3.6762 4.70953,4.54705 3.95295,4.54705 -0.16338,0 -2.07588,-1.9125 -4.25,-4.25 z m -51.49474,-22.5 -4.45821,-4.75 4.75,4.45821 c 4.41519,4.14396 5.20909,5.04179 4.45821,5.04179 -0.16049,0 -2.29799,-2.1375 -4.75,-4.75 z m 16.49474,-11.5 -3.95295,-4.25 4.25,3.95295 c 3.95246,3.6762 4.70953,4.54705 3.95295,4.54705 -0.16338,0 -2.07588,-1.9125 -4.25,-4.25 z M 94.452948,347.75 90.5,343.5 l 4.25,3.95295 c 3.952458,3.6762 4.709525,4.54705 3.952948,4.54705 -0.163379,0 -2.075879,-1.9125 -4.25,-4.25 z m 16.000002,-12 -3.95295,-4.25 4.25,3.95295 c 2.3375,2.17412 4.25,4.08662 4.25,4.25 0,0.75658 -0.87085,-4.9e-4 -4.54705,-3.95295 z M 59.452948,313.75 55.5,309.5 l 4.25,3.95295 c 2.3375,2.17412 4.25,4.08662 4.25,4.25 0,0.75658 -0.87085,-4.9e-4 -4.547052,-3.95295 z M 75.958208,302.25 71.5,297.5 l 4.75,4.45821 C 80.66519,306.10217 81.459094,307 80.708208,307 c -0.160486,0 -2.297986,-2.1375 -4.75,-4.75 z M 24.452948,279.75 20.5,275.5 l 4.25,3.95295 c 2.3375,2.17412 4.25,4.08662 4.25,4.25 0,0.75658 -0.87085,-4.9e-4 -4.547052,-3.95295 z M 40.958208,268.25 36.5,263.5 l 4.75,4.45821 C 45.66519,272.10217 46.459094,273 45.708208,273 c -0.160486,0 -2.297986,-2.1375 -4.75,-4.75 z M 41.5,243 c 2.148243,-2.2 4.130896,-4 4.405896,-4 0.275,0 -1.257653,1.8 -3.405896,4 -2.148243,2.2 -4.130896,4 -4.405896,4 -0.275,0 1.257653,-1.8 3.405896,-4 z m -16,-12 c 2.148243,-2.2 4.130896,-4 4.405896,-4 0.275,0 -1.257653,1.8 -3.405896,4 -2.148243,2.2 -4.130896,4 -4.405896,4 -0.275,0 1.257653,-1.8 3.405896,-4 z M 76,209.5 c 2.429029,-2.475 4.641416,-4.5 4.916416,-4.5 0.275,0 -1.487387,2.025 -3.916416,4.5 -2.429029,2.475 -4.641416,4.5 -4.916416,4.5 -0.275,0 1.487387,-2.025 3.916416,-4.5 z m -16,-12 c 2.429029,-2.475 4.641416,-4.5 4.916416,-4.5 0.275,0 -1.487387,2.025 -3.916416,4.5 -2.429029,2.475 -4.641416,4.5 -4.916416,4.5 -0.275,0 1.487387,-2.025 3.916416,-4.5 z m 51,-22 c 2.42903,-2.475 4.64142,-4.5 4.91642,-4.5 0.275,0 -1.48739,2.025 -3.91642,4.5 -2.42903,2.475 -4.64142,4.5 -4.91642,4.5 -0.275,0 1.48739,-2.025 3.91642,-4.5 z m -16,-12 c 2.429029,-2.475 4.641416,-4.5 4.916416,-4.5 0.275004,0 -1.487387,2.025 -3.916416,4.5 -2.429029,2.475 -4.641416,4.5 -4.916416,4.5 -0.275,0 1.487387,-2.025 3.916416,-4.5 z M 145.5,142 c 2.14824,-2.2 4.1309,-4 4.4059,-4 0.275,0 -1.25766,1.8 -3.4059,4 -2.14824,2.2 -4.1309,4 -4.4059,4 -0.275,0 1.25766,-1.8 3.4059,-4 z m -16,-12 c 2.14824,-2.2 4.1309,-4 4.4059,-4 0.275,0 -1.25766,1.8 -3.4059,4 -2.14824,2.2 -4.1309,4 -4.4059,4 -0.275,0 1.25766,-1.8 3.4059,-4 z m 51,-22 c 2.14824,-2.2 4.1309,-4 4.4059,-4 0.275,0 -1.25766,1.8 -3.4059,4 -2.14824,2.2 -4.1309,4 -4.4059,4 -0.275,0 1.25766,-1.8 3.4059,-4 z m -16,-12 c 2.14824,-2.2 4.1309,-4 4.4059,-4 0.275,0 -1.25766,1.8 -3.4059,4 -2.14824,2.2 -4.1309,4 -4.4059,4 -0.275,0 1.25766,-1.8 3.4059,-4 z M 215,74.5 c 2.42903,-2.475 4.64142,-4.5 4.91642,-4.5 0.275,0 -1.48739,2.025 -3.91642,4.5 -2.42903,2.475 -4.64142,4.5 -4.91642,4.5 -0.275,0 1.48739,-2.025 3.91642,-4.5 z m -16,-12 c 2.42903,-2.475 4.64142,-4.5 4.91642,-4.5 0.275,0 -1.48739,2.025 -3.91642,4.5 -2.42903,2.475 -4.64142,4.5 -4.91642,4.5 -0.275,0 1.48739,-2.025 3.91642,-4.5 z M 249.5,41 c 2.14824,-2.2 4.1309,-4 4.4059,-4 0.275,0 -1.25766,1.8 -3.4059,4 -2.14824,2.2 -4.1309,4 -4.4059,4 -0.275,0 1.25766,-1.8 3.4059,-4 z M 234,28.5 c 2.42903,-2.475 4.64142,-4.5 4.91642,-4.5 0.275,0 -1.48739,2.025 -3.91642,4.5 -2.42903,2.475 -4.64142,4.5 -4.91642,4.5 -0.275,0 1.48739,-2.025 3.91642,-4.5 z M 266.94617,3.25 263.5,-0.5 l 3.75,3.4461668 c 2.0625,1.8953917 3.75,3.5828917 3.75,3.75 0,0.7636207 -0.84622,0.044252 -4.05383,-3.4461668 z"
       style="fill:#9e9e9e" />
    <path
       id="path5896"
       d="M 259.45295,507.75 255.5,503.5 l 4.25,3.95295 c 3.95246,3.6762 4.70953,4.54705 3.95295,4.54705 -0.16338,0 -2.07588,-1.9125 -4.25,-4.25 z m -1,-28 -3.95295,-4.25 4.25,3.95295 c 3.95246,3.6762 4.70953,4.54705 3.95295,4.54705 -0.16338,0 -2.07588,-1.9125 -4.25,-4.25 z m -33,-5 -3.95295,-4.25 4.25,3.95295 c 2.3375,2.17412 4.25,4.08662 4.25,4.25 0,0.75658 -0.87085,-4.9e-4 -4.54705,-3.95295 z m -1.49474,-28.5 -4.45821,-4.75 4.75,4.45821 c 4.41519,4.14396 5.20909,5.04179 4.45821,5.04179 -0.16049,0 -2.29799,-2.1375 -4.75,-4.75 z m -33.50526,-5.5 -3.95295,-4.25 4.25,3.95295 c 3.95246,3.6762 4.70953,4.54705 3.95295,4.54705 -0.16338,0 -2.07588,-1.9125 -4.25,-4.25 z m -1.49474,-28.5 -4.45821,-4.75 4.75,4.45821 c 4.41519,4.14396 5.20909,5.04179 4.45821,5.04179 -0.16049,0 -2.29799,-2.1375 -4.75,-4.75 z m -33.50526,-5.5 -3.95295,-4.25 4.25,3.95295 c 2.3375,2.17412 4.25,4.08662 4.25,4.25 0,0.75658 -0.87085,-4.9e-4 -4.54705,-3.95295 z m -1.49474,-28.5 -4.45821,-4.75 4.75,4.45821 c 4.41519,4.14396 5.20909,5.04179 4.45821,5.04179 -0.16049,0 -2.29799,-2.1375 -4.75,-4.75 z m -33.50526,-5.5 -3.95295,-4.25 4.25,3.95295 c 3.95246,3.6762 4.70953,4.54705 3.95295,4.54705 -0.16338,0 -2.07588,-1.9125 -4.25,-4.25 z m -1.49474,-28.5 -4.45821,-4.75 4.75,4.45821 c 2.6125,2.45201 4.75,4.58951 4.75,4.75 0,0.75088 -0.89783,-0.043 -5.04179,-4.45821 z m -33.000002,-5 L 81.5,334.5 l 4.75,4.45821 C 90.66519,343.10217 91.459094,344 90.708208,344 c -0.160486,0 -2.297986,-2.1375 -4.75,-4.75 z M 84.452948,310.75 80.5,306.5 l 4.25,3.95295 c 3.952458,3.6762 4.709525,4.54705 3.952948,4.54705 -0.163379,0 -2.075879,-1.9125 -4.25,-4.25 z M 50.958208,305.25 46.5,300.5 l 4.75,4.45821 C 55.66519,309.10217 56.459094,310 55.708208,310 c -0.160486,0 -2.297986,-2.1375 -4.75,-4.75 z M 49.452948,276.75 45.5,272.5 l 4.25,3.95295 c 2.3375,2.17412 4.25,4.08662 4.25,4.25 0,0.75658 -0.87085,-4.9e-4 -4.547052,-3.95295 z M 15.958208,271.25 11.5,266.5 l 4.75,4.45821 c 2.6125,2.45201 4.75,4.58951 4.75,4.75 0,0.75088 -0.897827,-0.043 -5.041792,-4.45821 z M 17,239.5 c 2.429029,-2.475 4.641416,-4.5 4.916416,-4.5 0.275,0 -1.487387,2.025 -3.916416,4.5 -2.429029,2.475 -4.641416,4.5 -4.916416,4.5 -0.275,0 1.487387,-2.025 3.916416,-4.5 z m 33,-5 c 2.429029,-2.475 4.641416,-4.5 4.916416,-4.5 0.275,0 -1.487387,2.025 -3.916416,4.5 -2.429029,2.475 -4.641416,4.5 -4.916416,4.5 -0.275,0 1.487387,-2.025 3.916416,-4.5 z M 51.5,206 c 2.148243,-2.2 4.130896,-4 4.405896,-4 0.275,0 -1.257653,1.8 -3.405896,4 -2.148243,2.2 -4.130896,4 -4.405896,4 -0.275,0 1.257653,-1.8 3.405896,-4 z m 33,-5 c 2.148243,-2.2 4.130896,-4 4.405896,-4 0.275,0 -1.257653,1.8 -3.405896,4 -2.148243,2.2 -4.130896,4 -4.405896,4 -0.275,0 1.257653,-1.8 3.405896,-4 z m 2,-29 c 2.148243,-2.2 4.130896,-4 4.405896,-4 0.275,0 -1.257653,1.8 -3.405896,4 -2.148243,2.2 -4.130896,4 -4.405896,4 -0.275,0 1.257653,-1.8 3.405896,-4 z m 33,-5 c 2.14824,-2.2 4.1309,-4 4.4059,-4 0.275,0 -1.25766,1.8 -3.4059,4 -2.14824,2.2 -4.1309,4 -4.4059,4 -0.275,0 1.25766,-1.8 3.4059,-4 z m 1.5,-28.5 c 2.42903,-2.475 4.64142,-4.5 4.91642,-4.5 0.275,0 -1.48739,2.025 -3.91642,4.5 -2.42903,2.475 -4.64142,4.5 -4.91642,4.5 -0.275,0 1.48739,-2.025 3.91642,-4.5 z m 33,-5 c 2.42903,-2.475 4.64142,-4.5 4.91642,-4.5 0.275,0 -1.48739,2.025 -3.91642,4.5 -2.42903,2.475 -4.64142,4.5 -4.91642,4.5 -0.275,0 1.48739,-2.025 3.91642,-4.5 z m 2,-29 c 2.42903,-2.475 4.64142,-4.5 4.91642,-4.5 0.275,0 -1.48739,2.025 -3.91642,4.5 -2.42903,2.475 -4.64142,4.5 -4.91642,4.5 -0.275,0 1.48739,-2.025 3.91642,-4.5 z m 32.5,-4.5 c 2.14824,-2.2 4.1309,-4 4.4059,-4 0.275,0 -1.25766,1.8 -3.4059,4 -2.14824,2.2 -4.1309,4 -4.4059,4 -0.275,0 1.25766,-1.8 3.4059,-4 z m 2,-29 c 2.14824,-2.2 4.1309,-4 4.4059,-4 0.275,0 -1.25766,1.8 -3.4059,4 -2.14824,2.2 -4.1309,4 -4.4059,4 -0.275,0 1.25766,-1.8 3.4059,-4 z m 33,-5 c 2.14824,-2.2 4.1309,-4 4.4059,-4 0.275,0 -1.25766,1.8 -3.4059,4 -2.14824,2.2 -4.1309,4 -4.4059,4 -0.275,0 1.25766,-1.8 3.4059,-4 z m 2,-29 c 2.14824,-2.2 4.1309,-4 4.4059,-4 0.275,0 -1.25766,1.8 -3.4059,4 -2.14824,2.2 -4.1309,4 -4.4059,4 -0.275,0 1.25766,-1.8 3.4059,-4 z M 258,32.5 c 2.42903,-2.475 4.64142,-4.5 4.91642,-4.5 0.275,0 -1.48739,2.025 -3.91642,4.5 -2.42903,2.475 -4.64142,4.5 -4.91642,4.5 -0.275,0 1.48739,-2.025 3.91642,-4.5 z m 2,-29 C 261.86578,1.575 263.61733,0 263.89233,0 264.16733,0 262.86578,1.575 261,3.5 259.13422,5.425 257.38267,7 257.10767,7 256.83267,7 258.13422,5.425 260,3.5 Z"
       style="fill:#5f5f5f" />
    <path
       id="path5894"
       d="M 251.45295,499.75 247.5,495.5 l 4.25,3.95295 c 3.95246,3.6762 4.70953,4.54705 3.95295,4.54705 -0.16338,0 -2.07588,-1.9125 -4.25,-4.25 z m 15.50526,-11.5 -4.45821,-4.75 4.75,4.45821 c 4.41519,4.14396 5.20909,5.04179 4.45821,5.04179 -0.16049,0 -2.29799,-2.1375 -4.75,-4.75 z m -50,-22 -4.45821,-4.75 4.75,4.45821 c 2.6125,2.45201 4.75,4.58951 4.75,4.75 0,0.75088 -0.89783,-0.043 -5.04179,-4.45821 z m 15.49474,-11.5 -3.95295,-4.25 4.25,3.95295 c 3.95246,3.6762 4.70953,4.54705 3.95295,4.54705 -0.16338,0 -2.07588,-1.9125 -4.25,-4.25 z m -50.49474,-22.5 -4.45821,-4.75 4.75,4.45821 c 4.41519,4.14396 5.20909,5.04179 4.45821,5.04179 -0.16049,0 -2.29799,-2.1375 -4.75,-4.75 z m 15.49474,-11.5 -3.95295,-4.25 4.25,3.95295 c 3.95246,3.6762 4.70953,4.54705 3.95295,4.54705 -0.16338,0 -2.07588,-1.9125 -4.25,-4.25 z m -50.49474,-22.5 -4.45821,-4.75 4.75,4.45821 c 4.41519,4.14396 5.20909,5.04179 4.45821,5.04179 -0.16049,0 -2.29799,-2.1375 -4.75,-4.75 z m 16,-11 -4.45821,-4.75 4.75,4.45821 c 4.41519,4.14396 5.20909,5.04179 4.45821,5.04179 -0.16049,0 -2.29799,-2.1375 -4.75,-4.75 z m -51,-23 -4.45821,-4.75 4.75,4.45821 c 4.41519,4.14396 5.20909,5.04179 4.45821,5.04179 -0.16049,0 -2.29799,-2.1375 -4.75,-4.75 z m 16,-11 -4.45821,-4.75 4.75,4.45821 c 4.41519,4.14396 5.20909,5.04179 4.45821,5.04179 -0.16049,0 -2.29799,-2.1375 -4.75,-4.75 z M 76.958208,330.25 72.5,325.5 l 4.75,4.45821 C 81.66519,334.10217 82.459094,335 81.708208,335 c -0.160486,0 -2.297986,-2.1375 -4.75,-4.75 z m 16,-11 L 88.5,314.5 l 4.75,4.45821 c 2.6125,2.45201 4.75,4.58951 4.75,4.75 0,0.75088 -0.897827,-0.043 -5.041792,-4.45821 z M 42.452948,296.75 38.5,292.5 l 4.25,3.95295 c 2.3375,2.17412 4.25,4.08662 4.25,4.25 0,0.75658 -0.87085,-4.9e-4 -4.547052,-3.95295 z M 57.958208,285.25 53.5,280.5 l 4.75,4.45821 c 2.6125,2.45201 4.75,4.58951 4.75,4.75 0,0.75088 -0.897827,-0.043 -5.041792,-4.45821 z M 7.4529478,262.75 3.5,258.5 l 4.25,3.95295 c 2.3375,2.17412 4.25,4.08662 4.25,4.25 0,0.75658 -0.87085,-4.9e-4 -4.5470522,-3.95295 z M 8,248.5 c 2.429029,-2.475 4.641416,-4.5 4.916416,-4.5 0.275,0 -1.487387,2.025 -3.916416,4.5 C 6.5709712,250.975 4.3585841,253 4.0835841,253 3.8085841,253 5.5709712,250.975 8,248.5 Z M 58.5,226 c 2.148243,-2.2 4.130896,-4 4.405896,-4 0.275,0 -1.257653,1.8 -3.405896,4 -2.148243,2.2 -4.130896,4 -4.405896,4 -0.275,0 1.257653,-1.8 3.405896,-4 z M 43,214.5 c 2.429029,-2.475 4.641416,-4.5 4.916416,-4.5 0.275,0 -1.487387,2.025 -3.916416,4.5 -2.429029,2.475 -4.641416,4.5 -4.916416,4.5 -0.275,0 1.487387,-2.025 3.916416,-4.5 z m 50,-22 c 2.429029,-2.475 4.641416,-4.5 4.916416,-4.5 0.275,0 -1.487387,2.025 -3.916416,4.5 -2.429029,2.475 -4.641416,4.5 -4.916416,4.5 -0.275,0 1.487387,-2.025 3.916416,-4.5 z m -15,-12 c 2.429029,-2.475 4.641416,-4.5 4.916416,-4.5 0.275,0 -1.487387,2.025 -3.916416,4.5 -2.429029,2.475 -4.641416,4.5 -4.916416,4.5 -0.275,0 1.487387,-2.025 3.916416,-4.5 z m 50,-22 c 2.42903,-2.475 4.64142,-4.5 4.91642,-4.5 0.275,0 -1.48739,2.025 -3.91642,4.5 -2.42903,2.475 -4.64142,4.5 -4.91642,4.5 -0.275,0 1.48739,-2.025 3.91642,-4.5 z M 112.5,147 c 2.14824,-2.2 4.1309,-4 4.4059,-4 0.275,0 -1.25766,1.8 -3.4059,4 -2.14824,2.2 -4.1309,4 -4.4059,4 -0.275,0 1.25766,-1.8 3.4059,-4 z m 50,-22 c 2.14824,-2.2 4.1309,-4 4.4059,-4 0.275,0 -1.25766,1.8 -3.4059,4 -2.14824,2.2 -4.1309,4 -4.4059,4 -0.275,0 1.25766,-1.8 3.4059,-4 z m -15,-12 c 2.14824,-2.2 4.1309,-4 4.4059,-4 0.275,0 -1.25766,1.8 -3.4059,4 -2.14824,2.2 -4.1309,4 -4.4059,4 -0.275,0 1.25766,-1.8 3.4059,-4 z M 197,91.5 c 2.42903,-2.475 4.64142,-4.5 4.91642,-4.5 0.275,0 -1.48739,2.025 -3.91642,4.5 -2.42903,2.475 -4.64142,4.5 -4.91642,4.5 -0.275,0 1.48739,-2.025 3.91642,-4.5 z m -15,-12 c 2.42903,-2.475 4.64142,-4.5 4.91642,-4.5 0.275,0 -1.48739,2.025 -3.91642,4.5 -2.42903,2.475 -4.64142,4.5 -4.91642,4.5 -0.275,0 1.48739,-2.025 3.91642,-4.5 z m 50,-22 c 2.42903,-2.475 4.64142,-4.5 4.91642,-4.5 0.275,0 -1.48739,2.025 -3.91642,4.5 -2.42903,2.475 -4.64142,4.5 -4.91642,4.5 -0.275,0 1.48739,-2.025 3.91642,-4.5 z m -15,-12 c 2.42903,-2.475 4.64142,-4.5 4.91642,-4.5 0.275,0 -1.48739,2.025 -3.91642,4.5 -2.42903,2.475 -4.64142,4.5 -4.91642,4.5 -0.275,0 1.48739,-2.025 3.91642,-4.5 z M 266.5,24 c 2.14824,-2.2 4.1309,-4 4.4059,-4 0.275,0 -1.25766,1.8 -3.4059,4 -2.14824,2.2 -4.1309,4 -4.4059,4 -0.275,0 1.25766,-1.8 3.4059,-4 z M 252,11.5 c 2.42903,-2.475 4.64142,-4.5 4.91642,-4.5 0.275,0 -1.48739,2.025 -3.91642,4.5 -2.42903,2.475 -4.64142,4.5 -4.91642,4.5 -0.275,0 1.48739,-2.025 3.91642,-4.5 z"
       style="fill:#2a2a2a" />
    <path
       id="path5892"
       d="M 132.47748,383.77182 C 60.439865,313.79631 1.5,256.30182 1.5,256.00628 1.5,255.71074 57.3,201.3003 125.5,135.0942 193.7,68.8881 252.76162,11.532223 256.74805,7.6366962 l 7.24806,-7.08277605 6.50918,6.45132545 c 3.58005,3.5482294 6.39343,6.7268614 6.25195,7.0636274 -0.14148,0.336766 -56.16047,54.905396 -124.48665,121.263617 L 28.041181,255.98381 150.77059,375.13684 c 67.50118,65.53416 123.61666,119.98755 124.70107,121.00753 1.94812,1.83237 1.89473,1.93215 -4.47111,8.35507 -3.54352,3.57531 -6.69091,6.50056 -6.99418,6.50056 -0.30328,0 -59.49128,-57.25268 -131.52889,-127.22818 z"
       style="fill:#000000" />
  </g>
</svg>
