<?xml version="1.0" encoding="UTF-8" standalone="no"?>
<!-- Created with Inkscape (http://www.inkscape.org/) -->

<svg
   xmlns:dc="http://purl.org/dc/elements/1.1/"
   xmlns:cc="http://creativecommons.org/ns#"
   xmlns:rdf="http://www.w3.org/1999/02/22-rdf-syntax-ns#"
   xmlns:svg="http://www.w3.org/2000/svg"
   xmlns="http://www.w3.org/2000/svg"
   xmlns:sodipodi="http://sodipodi.sourceforge.net/DTD/sodipodi-0.dtd"
   xmlns:inkscape="http://www.inkscape.org/namespaces/inkscape"
   version="1.1"
   id="svg4485"
   width="278.42639"
   height="512.5"
   viewBox="0 0 278.42639 512.5"
   sodipodi:docname="right-arrow.svg"
   inkscape:version="0.92.1 r15371">
  <metadata
     id="metadata4491">
    <rdf:RDF>
      <cc:Work
         rdf:about="">
        <dc:format>image/svg+xml</dc:format>
        <dc:type
           rdf:resource="http://purl.org/dc/dcmitype/StillImage" />
        <dc:title></dc:title>
      </cc:Work>
    </rdf:RDF>
  </metadata>
  <defs
     id="defs4489" />
  <sodipodi:namedview
     pagecolor="#ffffff"
     bordercolor="#666666"
     borderopacity="1"
     objecttolerance="10"
     gridtolerance="10"
     guidetolerance="10"
     inkscape:pageopacity="0"
     inkscape:pageshadow="2"
     inkscape:window-width="1920"
     inkscape:window-height="1017"
     id="namedview4487"
     showgrid="false"
     fit-margin-top="0"
     fit-margin-left="0"
     fit-margin-right="0"
     fit-margin-bottom="0"
     inkscape:zoom="1"
     inkscape:cx="174.26248"
     inkscape:cy="217.66668"
     inkscape:window-x="-8"
     inkscape:window-y="-8"
     inkscape:window-maximized="1"
     inkscape:current-layer="svg4485" />
  <g
     id="g6478"
     transform="translate(0.42639548,0.5)">
    <path
       style="fill:#ffffff"
       d="m 0,505.27889 v -6.72111 L 6.5,505 c 3.575,3.54322 6.5,6.56772 6.5,6.72111 C 13,511.8745 10.075,512 6.5,512 H 0 Z m 17.519231,3.86213 C 19.158654,507.56858 75.85,452.60237 143.5,386.99388 211.15,321.3854 269.0875,265.19853 272.25,262.13417 L 278,256.56261 V 384.2813 512 H 146.26923 14.538462 Z M 0,256.00479 V 14.782284 l 8.2973436,7.858858 C 31.624468,44.735509 248,255.38916 248,256.00505 248,256.61308 36.62274,462.38862 9.25,488.42791 L 0,497.2273 Z M 146.39584,127.82786 15.291689,0.5 146.30879,0.24628305 c 72.05941,-0.13954432 131.17051,-0.10032044 131.35799,0.0871642 0.18749,0.18748462 0.22666,57.59919575 0.087,127.58158275 L 277.5,255.15573 Z M 0,6.5 V 0 H 6.7211117 13.442223 L 7,6.5 C 3.4567771,10.075 0.43227689,13 0.27888832,13 0.12549974,13 0,10.075 0,6.5 Z"
       id="path6492"
       inkscape:connector-curvature="0" />
    <path
       style="fill:#eeeeee"
       d="m 26,500.5 c 2.429029,-2.475 4.641416,-4.5 4.916416,-4.5 0.275,0 -1.487387,2.025 -3.916416,4.5 -2.429029,2.475 -4.641416,4.5 -4.916416,4.5 -0.275,0 1.487387,-2.025 3.916416,-4.5 z m -16,-13 c 2.429029,-2.475 4.641416,-4.5 4.916416,-4.5 0.275,0 -1.487387,2.025 -3.916416,4.5 -2.4290288,2.475 -4.6414159,4.5 -4.9164159,4.5 -0.275,0 1.4873871,-2.025 3.9164159,-4.5 z M 60.5,467 c 2.148243,-2.2 4.130896,-4 4.405896,-4 0.275,0 -1.257653,1.8 -3.405896,4 -2.148243,2.2 -4.130896,4 -4.405896,4 -0.275,0 1.257653,-1.8 3.405896,-4 z m -16,-13 c 2.148243,-2.2 4.130896,-4 4.405896,-4 0.275,0 -1.257653,1.8 -3.405896,4 -2.148243,2.2 -4.130896,4 -4.405896,4 -0.275,0 1.257653,-1.8 3.405896,-4 z M 95,433.5 c 2.429029,-2.475 4.641416,-4.5 4.916416,-4.5 0.275004,0 -1.487387,2.025 -3.916416,4.5 -2.429029,2.475 -4.641416,4.5 -4.916416,4.5 -0.275,0 1.487387,-2.025 3.916416,-4.5 z m -16,-13 c 2.429029,-2.475 4.641416,-4.5 4.916416,-4.5 0.275,0 -1.487387,2.025 -3.916416,4.5 -2.429029,2.475 -4.641416,4.5 -4.916416,4.5 -0.275,0 1.487387,-2.025 3.916416,-4.5 z m 51,-21 c 2.42903,-2.475 4.64142,-4.5 4.91642,-4.5 0.275,0 -1.48739,2.025 -3.91642,4.5 -2.42903,2.475 -4.64142,4.5 -4.91642,4.5 -0.275,0 1.48739,-2.025 3.91642,-4.5 z m -16,-13 c 2.42903,-2.475 4.64142,-4.5 4.91642,-4.5 0.275,0 -1.48739,2.025 -3.91642,4.5 -2.42903,2.475 -4.64142,4.5 -4.91642,4.5 -0.275,0 1.48739,-2.025 3.91642,-4.5 z m 51,-21 c 2.42903,-2.475 4.64142,-4.5 4.91642,-4.5 0.275,0 -1.48739,2.025 -3.91642,4.5 -2.42903,2.475 -4.64142,4.5 -4.91642,4.5 -0.275,0 1.48739,-2.025 3.91642,-4.5 z M 148.5,353 c 2.14824,-2.2 4.1309,-4 4.4059,-4 0.275,0 -1.25766,1.8 -3.4059,4 -2.14824,2.2 -4.1309,4 -4.4059,4 -0.275,0 1.25766,-1.8 3.4059,-4 z m 51,-21 c 2.14824,-2.2 4.1309,-4 4.4059,-4 0.275,0 -1.25766,1.8 -3.4059,4 -2.14824,2.2 -4.1309,4 -4.4059,4 -0.275,0 1.25766,-1.8 3.4059,-4 z M 183,319.5 c 2.42903,-2.475 4.64142,-4.5 4.91642,-4.5 0.275,0 -1.48739,2.025 -3.91642,4.5 -2.42903,2.475 -4.64142,4.5 -4.91642,4.5 -0.275,0 1.48739,-2.025 3.91642,-4.5 z M 234.5,298 c 2.14824,-2.2 4.1309,-4 4.4059,-4 0.275,0 -1.25766,1.8 -3.4059,4 -2.14824,2.2 -4.1309,4 -4.4059,4 -0.275,0 1.25766,-1.8 3.4059,-4 z M 218,285.5 c 2.42903,-2.475 4.64142,-4.5 4.91642,-4.5 0.275,0 -1.48739,2.025 -3.91642,4.5 -2.42903,2.475 -4.64142,4.5 -4.91642,4.5 -0.275,0 1.48739,-2.025 3.91642,-4.5 z m 51,-21 c 2.42903,-2.475 4.64142,-4.5 4.91642,-4.5 0.275,0 -1.48739,2.025 -3.91642,4.5 -2.42903,2.475 -4.64142,4.5 -4.91642,4.5 -0.275,0 1.48739,-2.025 3.91642,-4.5 z m 0.95821,-16.25 -4.45821,-4.75 4.75,4.45821 c 2.6125,2.45201 4.75,4.58951 4.75,4.75 0,0.75088 -0.89783,-0.043 -5.04179,-4.45821 z m -51.50526,-21.5 -3.95295,-4.25 4.25,3.95295 c 2.3375,2.17412 4.25,4.08662 4.25,4.25 0,0.75658 -0.87085,-4.9e-4 -4.54705,-3.95295 z m 16.50526,-12.5 -4.45821,-4.75 4.75,4.45821 c 4.41519,4.14396 5.20909,5.04179 4.45821,5.04179 -0.16049,0 -2.29799,-2.1375 -4.75,-4.75 z m -51.50526,-21.5 -3.95295,-4.25 4.25,3.95295 c 2.3375,2.17412 4.25,4.08662 4.25,4.25 0,0.75658 -0.87085,-4.9e-4 -4.54705,-3.95295 z m 16.50526,-12.5 -4.45821,-4.75 4.75,4.45821 c 4.41519,4.14396 5.20909,5.04179 4.45821,5.04179 -0.16049,0 -2.29799,-2.1375 -4.75,-4.75 z m -51,-21 -4.45821,-4.75 4.75,4.45821 c 2.6125,2.45201 4.75,4.58951 4.75,4.75 0,0.75088 -0.89783,-0.043 -5.04179,-4.45821 z m 16.49474,-12.5 -3.95295,-4.25 4.25,3.95295 c 2.3375,2.17412 4.25,4.08662 4.25,4.25 0,0.75658 -0.87085,-4.9e-4 -4.54705,-3.95295 z m -51.49474,-21.5 -4.45821,-4.75 4.75,4.45821 c 2.6125,2.45201 4.75,4.58951 4.75,4.75 0,0.75088 -0.89783,-0.043 -5.04179,-4.45821 z m 16.49474,-12.5 -3.95295,-4.25 4.25,3.95295 c 3.95246,3.6762 4.70953,4.54705 3.95295,4.54705 -0.16338,0 -2.07588,-1.9125 -4.25,-4.25 z M 78.958208,91.25 74.5,86.5 79.25,90.958208 C 83.66519,95.102173 84.459094,96 83.708208,96 c -0.160486,0 -2.297986,-2.1375 -4.75,-4.75 z M 95.452948,78.75 91.5,74.5 l 4.25,3.952948 c 2.3375,2.174121 4.25,4.086621 4.25,4.25 0,0.756577 -0.87085,-4.9e-4 -4.547052,-3.952948 z M 43.958208,57.25 39.5,52.5 44.25,56.958208 C 48.66519,61.102173 49.459094,62 48.708208,62 c -0.160486,0 -2.297986,-2.1375 -4.75,-4.75 z m 17,-12 L 56.5,40.5 l 4.75,4.458208 c 2.6125,2.452014 4.75,4.589514 4.75,4.75 0,0.750886 -0.897827,-0.04302 -5.041792,-4.458208 z m -52,-22 L 4.5,18.5 9.25,22.958208 C 13.66519,27.102173 14.459094,28 13.708208,28 c -0.160486,0 -2.297986,-2.1375 -4.75,-4.75 z m 17,-12 L 21.5,6.5 l 4.75,4.458208 c 2.6125,2.452014 4.75,4.589514 4.75,4.75 0,0.750886 -0.897827,-0.04302 -5.041792,-4.458208 z"
       id="path6490"
       inkscape:connector-curvature="0" />
    <path
       style="fill:#cfcfcf"
       d="m 2.982969,501.48243 -3.40936448,-3.51757 3.44038568,-3.23243 3.4403856,-3.23243 -2.9187906,3.25471 -2.91879055,3.25471 3.38776945,3.49529 C 5.8678373,503.42712 7.1673336,505 6.8923336,505 c -0.275,0 -2.0342141,-1.58291 -3.9093646,-3.51757 z M 34.5,492 c 2.148243,-2.2 4.130896,-4 4.405896,-4 0.275,0 -1.257653,1.8 -3.405896,4 -2.148243,2.2 -4.130896,4 -4.405896,4 -0.275,0 1.257653,-1.8 3.405896,-4 z m 2,-30 c 2.148243,-2.2 4.130896,-4 4.405896,-4 0.275,0 -1.257653,1.8 -3.405896,4 -2.148243,2.2 -4.130896,4 -4.405896,4 -0.275,0 1.257653,-1.8 3.405896,-4 z M 69,458.5 c 2.429029,-2.475 4.641416,-4.5 4.916416,-4.5 0.275,0 -1.487387,2.025 -3.916416,4.5 -2.429029,2.475 -4.641416,4.5 -4.916416,4.5 -0.275,0 1.487387,-2.025 3.916416,-4.5 z M 70.5,429 c 2.148243,-2.2 4.130896,-4 4.405896,-4 0.275,0 -1.257653,1.8 -3.405896,4 -2.148243,2.2 -4.130896,4 -4.405896,4 -0.275,0 1.257653,-1.8 3.405896,-4 z m 33,-4 c 2.14824,-2.2 4.1309,-4 4.4059,-4 0.275,0 -1.25766,1.8 -3.4059,4 -2.14824,2.2 -4.1309,4 -4.4059,4 -0.274996,0 1.25766,-1.8 3.4059,-4 z m 2,-30 c 2.14824,-2.2 4.1309,-4 4.4059,-4 0.275,0 -1.25766,1.8 -3.4059,4 -2.14824,2.2 -4.1309,4 -4.4059,4 -0.275,0 1.25766,-1.8 3.4059,-4 z m 33,-4 c 2.14824,-2.2 4.1309,-4 4.4059,-4 0.275,0 -1.25766,1.8 -3.4059,4 -2.14824,2.2 -4.1309,4 -4.4059,4 -0.275,0 1.25766,-1.8 3.4059,-4 z m 2,-30 c 2.14824,-2.2 4.1309,-4 4.4059,-4 0.275,0 -1.25766,1.8 -3.4059,4 -2.14824,2.2 -4.1309,4 -4.4059,4 -0.275,0 1.25766,-1.8 3.4059,-4 z m 33,-4 c 2.14824,-2.2 4.1309,-4 4.4059,-4 0.275,0 -1.25766,1.8 -3.4059,4 -2.14824,2.2 -4.1309,4 -4.4059,4 -0.275,0 1.25766,-1.8 3.4059,-4 z m 1,-29 c 2.14824,-2.2 4.1309,-4 4.4059,-4 0.275,0 -1.25766,1.8 -3.4059,4 -2.14824,2.2 -4.1309,4 -4.4059,4 -0.275,0 1.25766,-1.8 3.4059,-4 z m 33.5,-4.5 c 2.42903,-2.475 4.64142,-4.5 4.91642,-4.5 0.275,0 -1.48739,2.025 -3.91642,4.5 -2.42903,2.475 -4.64142,4.5 -4.91642,4.5 -0.275,0 1.48739,-2.025 3.91642,-4.5 z m 1.5,-29.5 c 2.14824,-2.2 4.1309,-4 4.4059,-4 0.275,0 -1.25766,1.8 -3.4059,4 -2.14824,2.2 -4.1309,4 -4.4059,4 -0.275,0 1.25766,-1.8 3.4059,-4 z m 33,-4 c 2.14824,-2.2 4.1309,-4 4.4059,-4 0.275,0 -1.25766,1.8 -3.4059,4 -2.14824,2.2 -4.1309,4 -4.4059,4 -0.275,0 1.25766,-1.8 3.4059,-4 z m 1.96952,-29.75 3.93638,-4.25 -3.93638,-4.25 -3.93638,-4.25 4.46873,4.25 4.46872,4.25 -4.46872,4.25 -4.46873,4.25 z m 30.95561,-1.98124 c 1.57574,-1.89955 1.6527,-2.49419 0.51765,-4 -1.27205,-1.68757 -1.24541,-1.68825 0.58024,-0.0148 1.87822,1.72164 1.86868,1.79536 -0.51765,4 l -2.43113,2.24603 1.85089,-2.23124 z M 243.45295,222.75 239.5,218.5 l 4.25,3.95295 c 2.3375,2.17412 4.25,4.08662 4.25,4.25 0,0.75658 -0.87085,-4.9e-4 -4.54705,-3.95295 z m -33.49474,-4.5 -4.45821,-4.75 4.75,4.45821 c 2.6125,2.45201 4.75,4.58951 4.75,4.75 0,0.75088 -0.89783,-0.043 -5.04179,-4.45821 z m -1.50526,-29.5 -3.95295,-4.25 4.25,3.95295 c 2.3375,2.17412 4.25,4.08662 4.25,4.25 0,0.75658 -0.87085,-4.9e-4 -4.54705,-3.95295 z m -33.49474,-4.5 -4.45821,-4.75 4.75,4.45821 c 2.6125,2.45201 4.75,4.58951 4.75,4.75 0,0.75088 -0.89783,-0.043 -5.04179,-4.45821 z m -1.50526,-29.5 -3.95295,-4.25 4.25,3.95295 c 2.3375,2.17412 4.25,4.08662 4.25,4.25 0,0.75658 -0.87085,-4.9e-4 -4.54705,-3.95295 z m -33,-4 -3.95295,-4.25 4.25,3.95295 c 2.3375,2.17412 4.25,4.08662 4.25,4.25 0,0.75658 -0.87085,-4.9e-4 -4.54705,-3.95295 z m -1.49474,-29.5 -4.45821,-4.75 4.75,4.45821 c 4.41519,4.14396 5.20909,5.04179 4.45821,5.04179 -0.16049,0 -2.29799,-2.1375 -4.75,-4.75 z m -33.50526,-4.5 -3.95295,-4.25 4.25,3.95295 c 3.95246,3.6762 4.70953,4.54705 3.95295,4.54705 -0.16338,0 -2.07588,-1.9125 -4.25,-4.25 z M 103.95821,87.25 99.5,82.5 l 4.75,4.458208 c 2.6125,2.452014 4.75,4.589514 4.75,4.75 0,0.750886 -0.89783,-0.04302 -5.04179,-4.458208 z M 70.452948,82.75 66.5,78.5 70.75,82.452948 C 74.702458,86.12915 75.459525,87 74.702948,87 c -0.163379,0 -2.075879,-1.9125 -4.25,-4.25 z m -1,-29 L 65.5,49.5 69.75,53.452948 C 73.702458,57.12915 74.459525,58 73.702948,58 c -0.163379,0 -2.075879,-1.9125 -4.25,-4.25 z m -34,-5 L 31.5,44.5 35.75,48.452948 C 39.702458,52.12915 40.459525,53 39.702948,53 c -0.163379,0 -2.075879,-1.9125 -4.25,-4.25 z m -1,-29 L 30.5,15.5 34.75,19.452948 C 38.702458,23.12915 39.459525,24 38.702948,24 c -0.163379,0 -2.075879,-1.9125 -4.25,-4.25 z M 1.9726537,16.470891 -0.40332075,13.941782 3.0255275,10.720891 6.4543758,7.5 3.546548,10.743266 0.63872008,13.986533 2.9936741,16.493266 C 4.2888988,17.87197 5.1236281,19 4.8486281,19 c -0.275,0 -1.5691885,-1.138099 -2.8759744,-2.529109 z"
       id="path6488"
       inkscape:connector-curvature="0" />
    <path
       style="fill:#9e9e9e"
       d="M 9.9461668,508.25 6.5,504.5 l 3.75,3.44617 C 13.740419,511.15378 14.459787,512 13.696167,512 c -0.167108,0 -1.854608,-1.6875 -3.7500002,-3.75 z M 43,483.5 c 2.429029,-2.475 4.641416,-4.5 4.916416,-4.5 0.275,0 -1.487387,2.025 -3.916416,4.5 -2.429029,2.475 -4.641416,4.5 -4.916416,4.5 -0.275,0 1.487387,-2.025 3.916416,-4.5 z M 27.5,471 c 2.148243,-2.2 4.130896,-4 4.405896,-4 0.275,0 -1.257653,1.8 -3.405896,4 -2.148243,2.2 -4.130896,4 -4.405896,4 -0.275,0 1.257653,-1.8 3.405896,-4 z M 78,449.5 c 2.429029,-2.475 4.641416,-4.5 4.916416,-4.5 0.275,0 -1.487387,2.025 -3.916416,4.5 -2.429029,2.475 -4.641416,4.5 -4.916416,4.5 -0.275,0 1.487387,-2.025 3.916416,-4.5 z m -16,-12 c 2.429029,-2.475 4.641416,-4.5 4.916416,-4.5 0.275,0 -1.487387,2.025 -3.916416,4.5 -2.429029,2.475 -4.641416,4.5 -4.916416,4.5 -0.275,0 1.487387,-2.025 3.916416,-4.5 z M 112.5,416 c 2.14824,-2.2 4.1309,-4 4.4059,-4 0.275,0 -1.25766,1.8 -3.4059,4 -2.14824,2.2 -4.1309,4 -4.4059,4 -0.275,0 1.25766,-1.8 3.4059,-4 z m -16,-12 c 2.148243,-2.2 4.1309,-4 4.4059,-4 0.275,0 -1.257657,1.8 -3.4059,4 -2.148243,2.2 -4.130896,4 -4.405896,4 -0.275,0 1.257653,-1.8 3.405896,-4 z m 51,-22 c 2.14824,-2.2 4.1309,-4 4.4059,-4 0.275,0 -1.25766,1.8 -3.4059,4 -2.14824,2.2 -4.1309,4 -4.4059,4 -0.275,0 1.25766,-1.8 3.4059,-4 z m -16,-12 c 2.14824,-2.2 4.1309,-4 4.4059,-4 0.275,0 -1.25766,1.8 -3.4059,4 -2.14824,2.2 -4.1309,4 -4.4059,4 -0.275,0 1.25766,-1.8 3.4059,-4 z M 182,348.5 c 2.42903,-2.475 4.64142,-4.5 4.91642,-4.5 0.275,0 -1.48739,2.025 -3.91642,4.5 -2.42903,2.475 -4.64142,4.5 -4.91642,4.5 -0.275,0 1.48739,-2.025 3.91642,-4.5 z m -16,-12 c 2.42903,-2.475 4.64142,-4.5 4.91642,-4.5 0.275,0 -1.48739,2.025 -3.91642,4.5 -2.42903,2.475 -4.64142,4.5 -4.91642,4.5 -0.275,0 1.48739,-2.025 3.91642,-4.5 z m 51,-22 c 2.42903,-2.475 4.64142,-4.5 4.91642,-4.5 0.275,0 -1.48739,2.025 -3.91642,4.5 -2.42903,2.475 -4.64142,4.5 -4.91642,4.5 -0.275,0 1.48739,-2.025 3.91642,-4.5 z m -16,-12 c 2.42903,-2.475 4.64142,-4.5 4.91642,-4.5 0.275,0 -1.48739,2.025 -3.91642,4.5 -2.42903,2.475 -4.64142,4.5 -4.91642,4.5 -0.275,0 1.48739,-2.025 3.91642,-4.5 z M 251.5,281 c 2.14824,-2.2 4.1309,-4 4.4059,-4 0.275,0 -1.25766,1.8 -3.4059,4 -2.14824,2.2 -4.1309,4 -4.4059,4 -0.275,0 1.25766,-1.8 3.4059,-4 z m -16,-12 c 2.14824,-2.2 4.1309,-4 4.4059,-4 0.275,0 -1.25766,1.8 -3.4059,4 -2.14824,2.2 -4.1309,4 -4.4059,4 -0.275,0 1.25766,-1.8 3.4059,-4 z m 0.45821,-25.75 -4.45821,-4.75 4.75,4.45821 c 4.41519,4.14396 5.20909,5.04179 4.45821,5.04179 -0.16049,0 -2.29799,-2.1375 -4.75,-4.75 z m 16.49474,-11.5 -3.95295,-4.25 4.25,3.95295 c 3.95246,3.6762 4.70953,4.54705 3.95295,4.54705 -0.16338,0 -2.07588,-1.9125 -4.25,-4.25 z m -51.49474,-22.5 -4.45821,-4.75 4.75,4.45821 c 4.41519,4.14396 5.20909,5.04179 4.45821,5.04179 -0.16049,0 -2.29799,-2.1375 -4.75,-4.75 z m 16.49474,-11.5 -3.95295,-4.25 4.25,3.95295 c 2.3375,2.17412 4.25,4.08662 4.25,4.25 0,0.75658 -0.87085,-4.9e-4 -4.54705,-3.95295 z m -51,-22 -3.95295,-4.25 4.25,3.95295 c 2.3375,2.17412 4.25,4.08662 4.25,4.25 0,0.75658 -0.87085,-4.9e-4 -4.54705,-3.95295 z m 16,-12 -3.95295,-4.25 4.25,3.95295 c 2.3375,2.17412 4.25,4.08662 4.25,4.25 0,0.75658 -0.87085,-4.9e-4 -4.54705,-3.95295 z m -51,-22 -3.95295,-4.25 4.25,3.95295 c 2.3375,2.17412 4.25,4.08662 4.25,4.25 0,0.75658 -0.87085,-4.9e-4 -4.54705,-3.95295 z m 16.50526,-11.5 -4.45821,-4.75 4.75,4.45821 c 4.41519,4.14396 5.20909,5.04179 4.45821,5.04179 -0.16049,0 -2.29799,-2.1375 -4.75,-4.75 z M 96.452948,107.75 92.5,103.5 l 4.25,3.95295 c 3.95246,3.6762 4.70953,4.54705 3.95295,4.54705 -0.16338,0 -2.075881,-1.9125 -4.250002,-4.25 z M 112.95821,96.25 108.5,91.5 l 4.75,4.458208 c 2.6125,2.452014 4.75,4.589512 4.75,4.750002 0,0.75088 -0.89783,-0.043 -5.04179,-4.45821 z M 61.452948,73.75 57.5,69.5 l 4.25,3.952948 c 2.3375,2.174121 4.25,4.086621 4.25,4.25 0,0.756577 -0.87085,-4.9e-4 -4.547052,-3.952948 z M 77.958208,62.25 73.5,57.5 l 4.75,4.458208 c 2.6125,2.452014 4.75,4.589514 4.75,4.75 C 83,67.459094 82.102173,66.66519 77.958208,62.25 Z M 26.452948,39.75 22.5,35.5 l 4.25,3.952948 c 2.3375,2.174121 4.25,4.086621 4.25,4.25 0,0.756577 -0.87085,-4.9e-4 -4.547052,-3.952948 z M 42.958208,28.25 38.5,23.5 43.25,27.958208 C 47.66519,32.102173 48.459094,33 47.708208,33 c -0.160486,0 -2.297986,-2.1375 -4.75,-4.75 z M 10,3.5 C 11.865783,1.575 13.617334,0 13.892334,0 14.167334,0 12.865783,1.575 11,3.5 9.1342165,5.425 7.3826664,7 7.1076664,7 6.8326664,7 8.1342165,5.425 10,3.5 Z"
       id="path6486"
       inkscape:connector-curvature="0" />
    <path
       style="fill:#5f5f5f"
       d="m 17,508.5 c 1.865783,-1.925 3.617334,-3.5 3.892334,-3.5 0.275,0 -1.026551,1.575 -2.892334,3.5 -1.865783,1.925 -3.617334,3.5 -3.892334,3.5 -0.275,0 1.026551,-1.575 2.892334,-3.5 z m 2,-29 c 2.429029,-2.475 4.641416,-4.5 4.916416,-4.5 0.275,0 -1.487387,2.025 -3.916416,4.5 -2.429029,2.475 -4.641416,4.5 -4.916416,4.5 -0.275,0 1.487387,-2.025 3.916416,-4.5 z M 51.5,475 c 2.148243,-2.2 4.130896,-4 4.405896,-4 0.275,0 -1.257653,1.8 -3.405896,4 -2.148243,2.2 -4.130896,4 -4.405896,4 -0.275,0 1.257653,-1.8 3.405896,-4 z m 2,-29 c 2.148243,-2.2 4.130896,-4 4.405896,-4 0.275,0 -1.257653,1.8 -3.405896,4 -2.148243,2.2 -4.130896,4 -4.405896,4 -0.275,0 1.257653,-1.8 3.405896,-4 z m 33,-5 c 2.148243,-2.2 4.130896,-4 4.405896,-4 0.275,0 -1.257653,1.8 -3.405896,4 -2.148243,2.2 -4.130896,4 -4.405896,4 -0.275,0 1.257653,-1.8 3.405896,-4 z m 2,-29 c 2.148243,-2.2 4.130896,-4 4.405896,-4 0.275,0 -1.257653,1.8 -3.405896,4 -2.148243,2.2 -4.130896,4 -4.405896,4 -0.275,0 1.257653,-1.8 3.405896,-4 z m 32.5,-4.5 c 2.42903,-2.475 4.64142,-4.5 4.91642,-4.5 0.275,0 -1.48739,2.025 -3.91642,4.5 -2.42903,2.475 -4.64142,4.5 -4.91642,4.5 -0.275,0 1.48739,-2.025 3.91642,-4.5 z m 2,-29 c 2.42903,-2.475 4.64142,-4.5 4.91642,-4.5 0.275,0 -1.48739,2.025 -3.91642,4.5 -2.42903,2.475 -4.64142,4.5 -4.91642,4.5 -0.275,0 1.48739,-2.025 3.91642,-4.5 z m 33,-5 c 2.42903,-2.475 4.64142,-4.5 4.91642,-4.5 0.275,0 -1.48739,2.025 -3.91642,4.5 -2.42903,2.475 -4.64142,4.5 -4.91642,4.5 -0.275,0 1.48739,-2.025 3.91642,-4.5 z m 1.5,-28.5 c 2.14824,-2.2 4.1309,-4 4.4059,-4 0.275,0 -1.25766,1.8 -3.4059,4 -2.14824,2.2 -4.1309,4 -4.4059,4 -0.275,0 1.25766,-1.8 3.4059,-4 z m 33,-5 c 2.14824,-2.2 4.1309,-4 4.4059,-4 0.275,0 -1.25766,1.8 -3.4059,4 -2.14824,2.2 -4.1309,4 -4.4059,4 -0.275,0 1.25766,-1.8 3.4059,-4 z m 2,-29 c 2.14824,-2.2 4.1309,-4 4.4059,-4 0.275,0 -1.25766,1.8 -3.4059,4 -2.14824,2.2 -4.1309,4 -4.4059,4 -0.275,0 1.25766,-1.8 3.4059,-4 z m 33,-5 c 2.14824,-2.2 4.1309,-4 4.4059,-4 0.275,0 -1.25766,1.8 -3.4059,4 -2.14824,2.2 -4.1309,4 -4.4059,4 -0.275,0 1.25766,-1.8 3.4059,-4 z m 1.5,-28.5 c 2.42903,-2.475 4.64142,-4.5 4.91642,-4.5 0.275,0 -1.48739,2.025 -3.91642,4.5 -2.42903,2.475 -4.64142,4.5 -4.91642,4.5 -0.275,0 1.48739,-2.025 3.91642,-4.5 z m 33,-5 c 2.42903,-2.475 4.64142,-4.5 4.91642,-4.5 0.275,0 -1.48739,2.025 -3.91642,4.5 -2.42903,2.475 -4.64142,4.5 -4.91642,4.5 -0.275,0 1.48739,-2.025 3.91642,-4.5 z m 0.95821,-32.25 -4.45821,-4.75 4.75,4.45821 c 2.6125,2.45201 4.75,4.58951 4.75,4.75 0,0.75088 -0.89783,-0.043 -5.04179,-4.45821 z m -33.50526,-5.5 -3.95295,-4.25 4.25,3.95295 c 2.3375,2.17412 4.25,4.08662 4.25,4.25 0,0.75658 -0.87085,-4.9e-4 -4.54705,-3.95295 z m -1.49474,-28.5 -4.45821,-4.75 4.75,4.45821 c 4.41519,4.14396 5.20909,5.04179 4.45821,5.04179 -0.16049,0 -2.29799,-2.1375 -4.75,-4.75 z m -33.50526,-5.5 -3.95295,-4.25 4.25,3.95295 c 2.3375,2.17412 4.25,4.08662 4.25,4.25 0,0.75658 -0.87085,-4.9e-4 -4.54705,-3.95295 z m -1.49474,-28.5 -4.45821,-4.75 4.75,4.45821 c 2.6125,2.45201 4.75,4.58951 4.75,4.75 0,0.75088 -0.89783,-0.043 -5.04179,-4.45821 z m -33,-5 -4.45821,-4.75 4.75,4.45821 c 2.6125,2.45201 4.75,4.58951 4.75,4.75 0,0.75088 -0.89783,-0.043 -5.04179,-4.45821 z m -1.50526,-28.5 -3.95295,-4.25 4.25,3.95295 c 3.95246,3.6762 4.70953,4.54705 3.95295,4.54705 -0.16338,0 -2.07588,-1.9125 -4.25,-4.25 z m -33.49474,-5.5 -4.45821,-4.75 4.75,4.45821 c 2.6125,2.45201 4.75,4.58951 4.75,4.75 0,0.75088 -0.89783,-0.043 -5.04179,-4.45821 z m -1.50526,-28.5 -3.95295,-4.25 4.25,3.95295 c 3.95246,3.6762 4.70953,4.54705 3.95295,4.54705 -0.16338,0 -2.07588,-1.9125 -4.25,-4.25 z M 87.958208,99.25 83.5,94.5 88.25,98.958208 C 92.66519,103.10217 93.459094,104 92.708208,104 c -0.160486,0 -2.297986,-2.1375 -4.75,-4.75 z M 86.452948,70.75 82.5,66.5 l 4.25,3.952948 c 2.3375,2.174121 4.25,4.086621 4.25,4.25 0,0.756577 -0.87085,-4.9e-4 -4.547052,-3.952948 z M 52.958208,65.25 48.5,60.5 53.25,64.958208 C 57.66519,69.102173 58.459094,70 57.708208,70 c -0.160486,0 -2.297986,-2.1375 -4.75,-4.75 z M 51.452948,36.75 47.5,32.5 51.75,36.452948 C 55.702458,40.12915 56.459525,41 55.702948,41 c -0.163379,0 -2.075879,-1.9125 -4.25,-4.25 z m -33,-5 L 14.5,27.5 18.75,31.452948 C 22.702458,35.12915 23.459525,36 22.702948,36 c -0.163379,0 -2.075879,-1.9125 -4.25,-4.25 z m -1,-28 L 13.5,-0.5 17.75,3.4529478 C 21.702458,7.1291499 22.459525,8 21.702948,8 c -0.163379,0 -2.075879,-1.9125 -4.25,-4.25 z"
       id="path6484"
       inkscape:connector-curvature="0" />
    <path
       style="fill:#2a2a2a"
       d="m 25,500.5 c 2.429029,-2.475 4.641416,-4.5 4.916416,-4.5 0.275,0 -1.487387,2.025 -3.916416,4.5 -2.429029,2.475 -4.641416,4.5 -4.916416,4.5 -0.275,0 1.487387,-2.025 3.916416,-4.5 z M 10.5,488 c 2.148243,-2.2 4.130896,-4 4.405896,-4 0.275,0 -1.257653,1.8 -3.405896,4 -2.1482425,2.2 -4.1308955,4 -4.4058955,4 -0.275,0 1.257653,-1.8 3.4058955,-4 z M 60,466.5 c 2.429029,-2.475 4.641416,-4.5 4.916416,-4.5 0.275,0 -1.487387,2.025 -3.916416,4.5 -2.429029,2.475 -4.641416,4.5 -4.916416,4.5 -0.275,0 1.487387,-2.025 3.916416,-4.5 z m -15,-12 c 2.429029,-2.475 4.641416,-4.5 4.916416,-4.5 0.275,0 -1.487387,2.025 -3.916416,4.5 -2.429029,2.475 -4.641416,4.5 -4.916416,4.5 -0.275,0 1.487387,-2.025 3.916416,-4.5 z m 50,-22 c 2.429029,-2.475 4.641416,-4.5 4.916416,-4.5 0.275004,0 -1.487387,2.025 -3.916416,4.5 -2.429029,2.475 -4.641416,4.5 -4.916416,4.5 -0.275,0 1.487387,-2.025 3.916416,-4.5 z m -15,-12 c 2.429029,-2.475 4.641416,-4.5 4.916416,-4.5 0.275,0 -1.487387,2.025 -3.916416,4.5 -2.429029,2.475 -4.641416,4.5 -4.916416,4.5 -0.275,0 1.487387,-2.025 3.916416,-4.5 z M 129.5,399 c 2.14824,-2.2 4.1309,-4 4.4059,-4 0.275,0 -1.25766,1.8 -3.4059,4 -2.14824,2.2 -4.1309,4 -4.4059,4 -0.275,0 1.25766,-1.8 3.4059,-4 z m -15,-12 c 2.14824,-2.2 4.1309,-4 4.4059,-4 0.275,0 -1.25766,1.8 -3.4059,4 -2.14824,2.2 -4.1309,4 -4.4059,4 -0.275,0 1.25766,-1.8 3.4059,-4 z m 50,-22 c 2.14824,-2.2 4.1309,-4 4.4059,-4 0.275,0 -1.25766,1.8 -3.4059,4 -2.14824,2.2 -4.1309,4 -4.4059,4 -0.275,0 1.25766,-1.8 3.4059,-4 z M 149,353.5 c 2.42903,-2.475 4.64142,-4.5 4.91642,-4.5 0.275,0 -1.48739,2.025 -3.91642,4.5 -2.42903,2.475 -4.64142,4.5 -4.91642,4.5 -0.275,0 1.48739,-2.025 3.91642,-4.5 z m 50,-22 c 2.42903,-2.475 4.64142,-4.5 4.91642,-4.5 0.275,0 -1.48739,2.025 -3.91642,4.5 -2.42903,2.475 -4.64142,4.5 -4.91642,4.5 -0.275,0 1.48739,-2.025 3.91642,-4.5 z m -15,-12 c 2.42903,-2.475 4.64142,-4.5 4.91642,-4.5 0.275,0 -1.48739,2.025 -3.91642,4.5 -2.42903,2.475 -4.64142,4.5 -4.91642,4.5 -0.275,0 1.48739,-2.025 3.91642,-4.5 z m 50,-22 c 2.42903,-2.475 4.64142,-4.5 4.91642,-4.5 0.275,0 -1.48739,2.025 -3.91642,4.5 -2.42903,2.475 -4.64142,4.5 -4.91642,4.5 -0.275,0 1.48739,-2.025 3.91642,-4.5 z M 218.5,286 c 2.14824,-2.2 4.1309,-4 4.4059,-4 0.275,0 -1.25766,1.8 -3.4059,4 -2.14824,2.2 -4.1309,4 -4.4059,4 -0.275,0 1.25766,-1.8 3.4059,-4 z M 269,263.5 c 2.42903,-2.475 4.64142,-4.5 4.91642,-4.5 0.275,0 -1.48739,2.025 -3.91642,4.5 -2.42903,2.475 -4.64142,4.5 -4.91642,4.5 -0.275,0 1.48739,-2.025 3.91642,-4.5 z m 0.45295,-14.75 -3.95295,-4.25 4.25,3.95295 c 3.95246,3.6762 4.70953,4.54705 3.95295,4.54705 -0.16338,0 -2.07588,-1.9125 -4.25,-4.25 z m -50.49474,-22.5 -4.45821,-4.75 4.75,4.45821 c 4.41519,4.14396 5.20909,5.04179 4.45821,5.04179 -0.16049,0 -2.29799,-2.1375 -4.75,-4.75 z m 15.49474,-11.5 -3.95295,-4.25 4.25,3.95295 c 2.3375,2.17412 4.25,4.08662 4.25,4.25 0,0.75658 -0.87085,-4.9e-4 -4.54705,-3.95295 z m -50.49474,-22.5 -4.45821,-4.75 4.75,4.45821 c 4.41519,4.14396 5.20909,5.04179 4.45821,5.04179 -0.16049,0 -2.29799,-2.1375 -4.75,-4.75 z m 16,-11 -4.45821,-4.75 4.75,4.45821 c 4.41519,4.14396 5.20909,5.04179 4.45821,5.04179 -0.16049,0 -2.29799,-2.1375 -4.75,-4.75 z m -51,-23 -4.45821,-4.75 4.75,4.45821 c 2.6125,2.45201 4.75,4.58951 4.75,4.75 0,0.75088 -0.89783,-0.043 -5.04179,-4.45821 z m 16,-11 -4.45821,-4.75 4.75,4.45821 c 4.41519,4.14396 5.20909,5.04179 4.45821,5.04179 -0.16049,0 -2.29799,-2.1375 -4.75,-4.75 z m -51,-23 -4.45821,-4.75 4.75,4.45821 c 2.6125,2.45201 4.75,4.58951 4.75,4.75 0,0.75088 -0.89783,-0.043 -5.04179,-4.45821 z m 16,-11 -4.45821,-4.75 4.75,4.45821 c 4.41519,4.14396 5.20909,5.04179 4.45821,5.04179 -0.16049,0 -2.29799,-2.1375 -4.75,-4.75 z M 79.452948,90.75 75.5,86.5 79.75,90.452948 C 83.702458,94.12915 84.459525,95 83.702948,95 c -0.163379,0 -2.075879,-1.9125 -4.25,-4.25 z M 94.958208,79.25 90.5,74.5 l 4.75,4.458208 c 2.6125,2.452014 4.75,4.589514 4.75,4.75 0,0.750886 -0.897827,-0.04302 -5.041792,-4.458208 z M 44.452948,56.75 40.5,52.5 44.75,56.452948 C 48.702458,60.12915 49.459525,61 48.702948,61 c -0.163379,0 -2.075879,-1.9125 -4.25,-4.25 z M 59.958208,45.25 55.5,40.5 l 4.75,4.458208 c 2.6125,2.452014 4.75,4.589514 4.75,4.75 0,0.750886 -0.897827,-0.04302 -5.041792,-4.458208 z m -50,-22 L 5.5,18.5 10.25,22.958208 C 14.66519,27.102173 15.459094,28 14.708208,28 c -0.160486,0 -2.297986,-2.1375 -4.75,-4.75 z M 25.452948,11.75 21.5,7.5 25.75,11.452948 C 29.702458,15.12915 30.459525,16 29.702948,16 c -0.163379,0 -2.075879,-1.9125 -4.25,-4.25 z"
       id="path6482"
       inkscape:connector-curvature="0" />
    <path
       style="fill:#000000"
       d="m 6.9969332,504.49691 -6.44529011,-6.5031 2.47417841,-2.35274 C 4.3866197,494.34707 60.502836,439.89916 127.72853,374.64573 L 249.95705,256.00312 125.72853,135.32994 C 57.402836,68.959695 1.3842428,14.386722 1.2427618,14.056668 1.1012808,13.726615 3.9150112,10.553123 7.4954961,7.0044639 L 14.005468,0.55235679 21.752734,8.1290443 C 26.01373,12.296222 85.075,69.657266 153,135.59803 220.925,201.5388 276.5,255.73133 276.5,256.02588 276.5,256.72788 14.719004,511 13.996276,511 c -0.304729,0 -3.454433,-2.92639 -6.9993428,-6.50309 z"
       id="path6480"
       inkscape:connector-curvature="0" />
  </g>
</svg>
