<?xml version="1.0" encoding="UTF-8" standalone="no"?>
<svg
   xmlns:dc="http://purl.org/dc/elements/1.1/"
   xmlns:cc="http://creativecommons.org/ns#"
   xmlns:rdf="http://www.w3.org/1999/02/22-rdf-syntax-ns#"
   xmlns:svg="http://www.w3.org/2000/svg"
   xmlns="http://www.w3.org/2000/svg"
   viewBox="0 0 250 135"
   height="135"
   width="250"
   id="svg4485"
   version="1.1">
  <metadata
     id="metadata4491">
    <rdf:RDF>
      <cc:Work
         rdf:about="">
        <dc:format>image/svg+xml</dc:format>
        <dc:type
           rdf:resource="http://purl.org/dc/dcmitype/StillImage" />
        <dc:title></dc:title>
      </cc:Work>
    </rdf:RDF>
  </metadata>
  <defs
     id="defs4489" />
  <g
     id="g6798">
    <path
       id="path6814"
       d="M 0,19.5 V 0 H 125 250 V 19.5 39 H 125 0 Z"
       style="fill:#fcfcfc" />
    <path
       id="path6812"
       d="M 0.41666443,43.083333 C 0.18749899,42.854167 0,41.841667 0,40.833333 0,39.065333 4.4545455,39 125,39 c 124.33333,0 125,0.01067 125,2 0,1.1 -0.3375,2.044891 -0.75,2.099758 -2.53976,0.337815 -248.49533216,0.321581 -248.83333557,-0.01642 z"
       style="fill:#91a0de" />
    <path
       id="path6810"
       d="m 0,44.200474 c 0,-0.439739 56.25,-0.800818 125,-0.802397 68.75,-0.0016 125,0.358208 125,0.799526 C 250,44.638921 193.75,45 125,45 56.25,45 0,44.640213 0,44.200474 Z"
       style="fill:#204bc1" />
    <path
       id="path6808"
       d="M 0,110 V 85 h 125 125 v 25 25 H 125 0 Z"
       style="fill:#fb0000" />
    <path
       id="path6806"
       d="m 0,84.165775 c 0,-1.090841 248.92828,-1.090841 249.60245,0 C 249.88602,84.624599 193.84148,85 125.05902,85 56.276558,85 0,84.624599 0,84.165775 Z"
       style="fill:#a0013d" />
    <path
       id="path6804"
       d="m 0,74 v -3 h 125 125 v 3 3 H 125 0 Z M 62.25,45.250136 c 34.5125,-0.145839 90.9875,-0.145839 125.5,0 34.5125,0.14584 6.275,0.265163 -62.75,0.265163 -69.025,0 -97.2625,-0.119323 -62.75,-0.265163 z"
       style="fill:#000fc0" />
    <path
       id="path6802"
       d="M 1.0000173,83.166667 C 0.45000779,82.983333 0,82.195833 0,81.416667 0,80.202 17.823529,80 125,80 c 118.38095,0 125,0.09267 125,1.75 0,1.657258 -6.57142,1.75 -123.99998,1.75 C 57.800028,83.5 1.5500268,83.35 1.0000173,83.166667 Z"
       style="fill:#540273" />
    <path
       id="path6800"
       d="M 0,78.5 C 0,77.174667 14.555556,77 125,77 235.44444,77 250,77.174667 250,78.5 250,79.825333 235.44444,80 125,80 14.555556,80 0,79.825333 0,78.5 Z m 0,-20 V 46 H 125 250 V 58.5 71 H 125 0 Z"
       style="fill:#0007ae" />
  </g>
</svg>
