<?xml version="1.0" encoding="UTF-8" standalone="no"?>
<svg
   xmlns:dc="http://purl.org/dc/elements/1.1/"
   xmlns:cc="http://creativecommons.org/ns#"
   xmlns:rdf="http://www.w3.org/1999/02/22-rdf-syntax-ns#"
   xmlns:svg="http://www.w3.org/2000/svg"
   xmlns="http://www.w3.org/2000/svg"
   viewBox="0 0 150 150"
   height="150"
   width="150"
   id="svg4485"
   version="1.1">
  <metadata
     id="metadata4491">
    <rdf:RDF>
      <cc:Work
         rdf:about="">
        <dc:format>image/svg+xml</dc:format>
        <dc:type
           rdf:resource="http://purl.org/dc/dcmitype/StillImage" />
        <dc:title></dc:title>
      </cc:Work>
    </rdf:RDF>
  </metadata>
  <defs
     id="defs4489" />
  <g
     id="g6939">
    <path
       id="path6953"
       d="M 0.07124248,109.25 C 0.14171746,68.939 0.1610914,68.564638 1.8696224,74.5 8.0281909,95.894597 25.87932,112.31942 47.622884,116.59759 c 13.069402,2.57147 28.349462,0.17704 39.368571,-6.16918 l 4.491455,-2.58675 1.454893,2.32917 c 2.130275,3.4104 31.895017,33.57032 36.462237,36.94633 L 133.30008,150 H 66.650038 0 Z M 144.22904,148.43901 c 1.50098,-0.81451 3.39546,-2.70899 4.20997,-4.20997 l 1.48091,-2.72904 0.04,4.25 0.04,4.25 -4.25,-0.04 -4.25,-0.04 2.72904,-1.48091 z M 147.78569,130.25 c -1.89153,-3.16113 -34.11654,-35.131202 -37.6042,-37.306711 l -2.31851,-1.446225 2.4923,-4.498532 C 128.98324,53.375671 109.72649,9.9019334 72.304722,1.0961937 69.842253,0.51674868 82.876037,0.16546444 109.25,0.1004511 L 150,0 v 66.5 c 0,36.575 -0.12798,66.5 -0.28439,66.5 -0.15642,0 -1.02488,-1.2375 -1.92992,-2.75 z M 47.886936,100.54913 C 30.848931,95.850942 18.815923,82.416173 16.062145,65.016969 11.574266,36.661181 36.661181,11.574266 65.016969,16.062145 99.612119,21.537531 114.03739,62.733175 90.260508,88.152582 79.602125,99.547256 62.450567,104.56501 47.886936,100.54913 Z M 0.08941747,24.25 0,0 24.25,0.07124248 48.5,0.14248496 42.40784,1.8867047 C 35.676985,3.8137864 26.615278,8.6077713 20.664274,13.389871 12.779815,19.725654 4.4809571,32.9015 1.4476728,43.899488 0.32580207,47.967131 0.16847789,45.691168 0.08941747,24.25 Z"
       style="fill:#fefefe" />
    <path
       id="path6951"
       d="M 111.48897,129.75 94.5,112.5 111.75,129.48897 C 127.77623,145.27269 129.45205,147 128.73897,147 c -0.14357,0 -7.90607,-7.7625 -17.25,-17.25 z m 18,-18 L 112.5,94.5 l 17.25,16.98897 c 9.4875,9.34393 17.25,17.10643 17.25,17.25 0,0.71308 -1.72731,-0.96274 -17.51103,-16.98897 z M 53.75,117.33772 c 0.6875,-0.27741 1.8125,-0.27741 2.5,0 0.6875,0.27741 0.125,0.50439 -1.25,0.50439 -1.375,0 -1.9375,-0.22698 -1.25,-0.50439 z m 7,0 c 0.6875,-0.27741 1.8125,-0.27741 2.5,0 0.6875,0.27741 0.125,0.50439 -1.25,0.50439 -1.375,0 -1.9375,-0.22698 -1.25,-0.50439 z M 15.078947,62.416667 c 0.04798,-1.164943 0.284941,-1.4019 0.604167,-0.604167 0.288871,0.721875 0.253344,1.584375 -0.07895,1.916667 -0.332292,0.332291 -0.568641,-0.258334 -0.52522,-1.3125 z M 117.15789,62 c 0,-1.375 0.22698,-1.9375 0.50439,-1.25 0.27741,0.6875 0.27741,1.8125 0,2.5 -0.27741,0.6875 -0.50439,0.125 -0.50439,-1.25 z m 0,-7 c 0,-1.375 0.22698,-1.9375 0.50439,-1.25 0.27741,0.6875 0.27741,1.8125 0,2.5 -0.27741,0.6875 -0.50439,0.125 -0.50439,-1.25 z M 15.078947,54.416667 c 0.04798,-1.164943 0.284941,-1.4019 0.604167,-0.604167 0.288871,0.721875 0.253344,1.584375 -0.07895,1.916667 -0.332292,0.332291 -0.568641,-0.258334 -0.52522,-1.3125 z M 28,27.622445 c 0,-0.207656 0.7875,-0.995156 1.75,-1.75 C 31.336056,24.628574 31.371426,24.663944 30.127555,26.25 28.821186,27.915748 28,28.445479 28,27.622445 Z M 17,16.5 C 18.291745,15.125 19.573628,14 19.848628,14 20.123628,14 19.291745,15.125 18,16.5 16.708255,17.875 15.426372,19 15.151372,19 14.876372,19 15.708255,17.875 17,16.5 Z m 36.8125,-1.183114 c 0.721875,-0.288871 1.584375,-0.253344 1.916667,0.07895 0.332291,0.332292 -0.258334,0.568641 -1.3125,0.52522 -1.164943,-0.04798 -1.4019,-0.284941 -0.604167,-0.604167 z m 8,0 c 0.721875,-0.288871 1.584375,-0.253344 1.916667,0.07895 0.332291,0.332292 -0.258334,0.568641 -1.3125,0.52522 -1.164943,-0.04798 -1.4019,-0.284941 -0.604167,-0.604167 z"
       style="fill:#d3d3d3" />
    <path
       id="path6949"
       d="m 57.8125,117.31689 c 0.721875,-0.28887 1.584375,-0.25335 1.916667,0.0789 0.332291,0.3323 -0.258334,0.56864 -1.3125,0.52522 -1.164943,-0.048 -1.4019,-0.28494 -0.604167,-0.60416 z M 88,90.622445 c 0,-0.207656 0.7875,-0.995156 1.75,-1.75 C 91.336056,87.628574 91.371426,87.663944 90.127555,89.25 88.821186,90.915748 88,91.445479 88,90.622445 Z m 29.07895,-32.205778 c 0.048,-1.164943 0.28494,-1.4019 0.60416,-0.604167 0.28887,0.721875 0.25335,1.584375 -0.0789,1.916667 -0.3323,0.332291 -0.56864,-0.258334 -0.52522,-1.3125 z"
       style="fill:#afafaf" />
    <path
       id="path6947"
       d="M 17,100.5 C 16.315311,99.675 15.980111,99 16.255111,99 c 0.275,0 1.0602,0.675 1.744889,1.5 0.684689,0.825 1.019889,1.5 0.744889,1.5 -0.275,0 -1.0602,-0.675 -1.744889,-1.5 z m 83,-83 C 99.315311,16.675 98.980111,16 99.255111,16 c 0.275,0 1.060199,0.675 1.744889,1.5 0.68469,0.825 1.01989,1.5 0.74489,1.5 -0.275,0 -1.0602,-0.675 -1.74489,-1.5 z"
       style="fill:#8e8e8e" />
    <path
       id="path6945"
       d="m 56.730968,102.34406 c 0.677033,-0.27392 2.027033,-0.29059 3,-0.037 0.972968,0.25354 0.419032,0.47766 -1.230968,0.49804 -1.65,0.0204 -2.446064,-0.18706 -1.769032,-0.46099 z M 27,89.5 C 26.315311,88.675 25.980111,88 26.255111,88 c 0.275,0 1.0602,0.675 1.744889,1.5 0.684689,0.825 1.019889,1.5 0.744889,1.5 -0.275,0 -1.0602,-0.675 -1.744889,-1.5 z m 75.19495,-31 c 0.0204,-1.65 0.2445,-2.203936 0.49804,-1.230968 0.25354,0.972967 0.23687,2.322967 -0.037,3 C 102.38201,60.946064 102.17457,60.15 102.19495,58.5 Z M 89,27.5 C 88.315311,26.675 87.980111,26 88.255111,26 c 0.275,0 1.0602,0.675 1.744889,1.5 0.684689,0.825 1.019889,1.5 0.744889,1.5 -0.275,0 -1.0602,-0.675 -1.744889,-1.5 z"
       style="fill:#6e6e6e" />
    <path
       id="path6943"
       d="m 0.07894737,61.416667 c 0.04798392,-1.164943 0.2849403,-1.4019 0.60416667,-0.604167 0.28887061,0.721875 0.25334429,1.584375 -0.0789474,1.916667 -0.33229167,0.332291 -0.56864035,-0.258334 -0.52521927,-1.3125 z m 13.99999963,-3 c 0.04798,-1.164943 0.284941,-1.4019 0.604167,-0.604167 0.288871,0.721875 0.253344,1.584375 -0.07895,1.916667 -0.332292,0.332291 -0.568641,-0.258334 -0.52522,-1.3125 z m -13.99999963,-3 c 0.04798392,-1.164943 0.2849403,-1.4019 0.60416667,-0.604167 0.28887061,0.721875 0.25334429,1.584375 -0.0789474,1.916667 -0.33229167,0.332291 -0.56864035,-0.258334 -0.52521927,-1.3125 z M 26,28.622445 c 0,-0.207656 0.7875,-0.995156 1.75,-1.75 C 29.336056,25.628574 29.371426,25.663944 28.127555,27.25 26.821186,28.915748 26,29.445479 26,28.622445 Z M 57.8125,14.316886 c 0.721875,-0.288871 1.584375,-0.253344 1.916667,0.07895 0.332291,0.332292 -0.258334,0.568641 -1.3125,0.52522 -1.164943,-0.04798 -1.4019,-0.284941 -0.604167,-0.604167 z m -3,-14.00000004 c 0.721875,-0.28887061 1.584375,-0.25334429 1.916667,0.0789474 0.332291,0.33229167 -0.258334,0.56864035 -1.3125,0.5252193 -1.164943,-0.0479839 -1.4019,-0.2849403 -0.604167,-0.6041667 z m 6,0 c 0.721875,-0.28887061 1.584375,-0.25334429 1.916667,0.0789474 0.332291,0.33229167 -0.258334,0.56864035 -1.3125,0.5252193 -1.164943,-0.0479839 -1.4019,-0.2849403 -0.604167,-0.6041667 z"
       style="fill:#2f2f2f" />
    <path
       id="path6941"
       d="m 133.96119,148.71014 c -2.51878,-0.65268 -7.86107,-5.28923 -20.21972,-17.5486 C 104.5034,121.99769 95.979221,112.925 94.798838,111 c -1.180383,-1.925 -2.259263,-3.65376 -2.397512,-3.84168 -0.138248,-0.18793 -3.547603,1.28083 -7.576343,3.26391 -22.075276,10.86619 -47.459824,7.39972 -65.663434,-8.96689 C 12.356647,95.337145 7.1729034,87.192868 3.7346694,77.217873 -1.4343538,62.221518 -0.01867186,45.440013 7.6458808,30.854343 20.239199,6.8892157 50.577103,-5.15159 76.628659,3.4757797 110.79164,14.78937 126.39042,52.385338 110.39977,84.870436 c -2.91223,5.916218 -3.35891,7.540955 -2.26392,8.234687 0.75028,0.475338 1.69706,0.871142 2.10395,0.879564 0.40689,0.0084 9.04833,8.308723 19.20321,18.445113 19.01035,18.97573 20.68535,21.33558 19.73579,27.80529 -0.53773,3.66384 -5.27987,8.40598 -8.94371,8.94371 -1.56786,0.23012 -4.39111,0.0192 -6.2739,-0.46866 z M 67.11351,101.98601 C 75.325385,100.44016 82.868873,96.268827 89.56885,89.56885 103.42624,75.711459 106.52828,57.41081 98.079939,39.35713 88.067788,17.961655 61.272923,8.6086355 39.609926,18.947579 20.540876,28.048528 10.422485,50.74208 16.347006,71.121717 22.592819,92.606558 44.898818,106.16784 67.11351,101.98601 Z"
       style="fill:#000000" />
  </g>
</svg>
