<?xml version="1.0" encoding="UTF-8" standalone="no"?>
<svg
   xmlns:dc="http://purl.org/dc/elements/1.1/"
   xmlns:cc="http://creativecommons.org/ns#"
   xmlns:rdf="http://www.w3.org/1999/02/22-rdf-syntax-ns#"
   xmlns:svg="http://www.w3.org/2000/svg"
   xmlns="http://www.w3.org/2000/svg"
   viewBox="0 0 150.5 150.5"
   height="150.5"
   width="150.5"
   id="svg4485"
   version="1.1">
  <metadata
     id="metadata4491">
    <rdf:RDF>
      <cc:Work
         rdf:about="">
        <dc:format>image/svg+xml</dc:format>
        <dc:type
           rdf:resource="http://purl.org/dc/dcmitype/StillImage" />
        <dc:title></dc:title>
      </cc:Work>
    </rdf:RDF>
  </metadata>
  <defs
     id="defs4489" />
  <g
     id="g6845">
    <path
       id="path6861"
       d="M 0,105 C 0,60.312534 0.03537555,59.5 1.980948,59.5 c 1.3079306,0 2.1572933,0.849363 2.5,2.5 0.2854786,1.375 0.7298725,3.534345 0.987542,4.798545 0.6871969,3.371583 6.932212,11.498246 15.03151,19.560566 4.292696,4.273097 6.745904,6.754497 7.322727,7.406877 0.773025,0.874281 40.963865,40.982672 43.034886,42.946602 0.746688,0.70807 2.996688,2.92297 5,4.922 2.003313,1.99902 4.654887,4.15235 5.892387,4.78518 1.2375,0.63283 2.25,1.80976 2.25,2.61541 C 84,150.29835 78.218308,150.5 42,150.5 H 0 Z m 98,44.21561 c 0,-0.70642 1.4625,-2.14098 3.25,-3.18791 1.7875,-1.04693 12.80943,-11.49395 24.49319,-23.21561 C 137.42694,111.09044 147.66444,101.5 148.49319,101.5 149.7946,101.5 150,104.83965 150,126 v 24.5 h -26 c -20.50464,0 -26,-0.27147 -26,-1.28439 z M 114.27746,39.977628 C 84.391621,10.133758 80.230173,6.3349516 76.353973,5.3589132 73.146758,4.5513271 72,3.7670733 72,2.381285 72,0.57173038 73.487007,0.5 111,0.5 h 39 V 37 c 0,25.396245 -0.32749,36.5 -1.07652,36.5 -0.59208,0 -16.18279,-15.085067 -34.64602,-33.522372 z M 30.975423,33.970386 c -1.811637,-2.182888 0.240126,-6.235397 3.581548,-7.074041 3.64237,-0.914177 6.965545,2.385649 6.055219,6.012675 C 40.053011,35.136971 39.42127,35.5 36.103393,35.5 c -2.243031,0 -4.390002,-0.640417 -5.12797,-1.529614 z M 0,5.5 v -5 h 5 c 6.212874,0 6.557745,1.6651616 1.360121,6.5671522 C 1.2467402,11.889691 0,11.582491 0,5.5 Z"
       style="fill:#fdfdfd" />
    <path
       id="path6859"
       d="m 84,149.03518 c 0,-0.80565 -1.0125,-1.98258 -2.25,-2.61541 -1.2375,-0.63283 -3.889074,-2.78616 -5.892387,-4.78518 -2.003312,-1.99903 -4.253312,-4.21393 -5,-4.922 -2.071021,-1.96393 -42.261861,-42.072321 -43.034886,-42.946602 -0.597501,-0.675767 -2.406002,-2.506009 -7,-7.08415 C 12.582129,78.469684 6.1602646,70.224422 5.531236,67.048545 4.1347366,59.997814 3.900601,59.5 1.980948,59.5 0.66666667,59.5 0,58.826922 0,57.5 0,56.204938 0.66666667,55.5 1.8914203,55.5 3.7586507,55.5 7,61.575321 7,65.075106 c 0,3.833126 10.178878,15.264591 40.691527,45.698924 18.072103,18.02572 34.309642,33.6566 36.08342,34.7353 3.335371,2.02836 4.35931,4.99067 1.725053,4.99067 -0.825,0 -1.5,-0.65917 -1.5,-1.46482 z m 10,-0.0183 c 0,-0.81574 2.1375,-2.57337 4.75,-3.90585 3.21828,-1.64146 11.80037,-9.54734 26.61382,-24.51685 C 137.38893,108.44237 147.85143,98.5 148.61382,98.5 149.37622,98.5 150,99.175 150,100 c 0,0.825 -0.67807,1.5 -1.50681,1.5 -0.82875,0 -11.06625,9.59044 -22.75,21.31209 -11.68376,11.72166 -22.70569,22.16868 -24.49319,23.21561 -1.7875,1.04693 -3.25,2.48149 -3.25,3.18791 0,0.70641 -0.9,1.28439 -2,1.28439 -1.101015,0 -2,-0.66667 -2,-1.48315 z M 113.74141,42.75 C 95.133367,24.1875 79.721433,8.8297651 79.492669,8.6217003 79.263905,8.4136355 76.696969,7.4700032 73.788367,6.5247396 69.821234,5.2354652 68.420164,4.2681681 68.180449,2.6530394 67.940986,1.0396105 68.379584,0.5 69.930449,0.5 71.289802,0.5 72,1.145592 72,2.381285 c 0,1.3857883 1.146758,2.1700421 4.353973,2.9776282 3.8762,0.9760384 8.037648,4.7748448 37.923487,34.6187148 C 132.74069,58.414933 148.3314,73.5 148.92348,73.5 149.51557,73.5 150,74.175 150,75 c 0,0.825 -0.5458,1.5 -1.21289,1.5 -0.66709,0 -16.43765,-15.1875 -35.0457,-33.75 z M 29.500367,35.140905 C 27.767252,32.495837 28.281357,30.129463 31.323326,26.75 33.964345,23.815972 37.484968,23.894059 40.545455,26.954545 45.468328,31.877419 42.615228,37.5 35.194312,37.5 c -3.255199,0 -4.480966,-0.507855 -5.693945,-2.359095 z M 40.61219,32.90902 c 1.5063,-6.001573 -7.205222,-8.591083 -9.793221,-2.911046 -1.571917,3.449982 0.39897,5.502026 5.284424,5.502026 3.317877,0 3.949618,-0.363029 4.508797,-2.59098 z M 0,12.5 c 0,-1.1 0.61205443,-2 1.360121,-2 C 3.2867936,10.5 10,3.9476573 10,2.0671522 10,1.2052185 10.45,0.5 11,0.5 13.072427,0.5 11.963473,5.2939138 9.5208101,6.8944078 8.1572556,7.787843 6.3456995,9.8645974 5.4951299,11.509418 3.6889323,15.002219 0,15.667206 0,12.5 Z"
       style="fill:#ccd0d4" />
    <path
       id="path6857"
       d="m 87,148.9853 c 0,-0.83308 -1.413436,-2.37426 -3.140969,-3.42483 -3.095404,-1.88243 -25.528238,-23.88104 -55.85573,-54.774548 -8.523185,-8.682257 0.02681,-0.415167 19,18.371308 22.795342,22.57103 35.985351,34.898 38.885385,36.34108 l 4.388686,2.18384 6.291531,-2.67393 c 5.650757,-2.40161 8.548987,-4.96266 28.456677,-25.14604 15.11056,-15.31981 22.69178,-22.332388 23.81979,-22.03314 1.5112,0.400908 1.5128,0.449012 0.0185,0.554959 -0.89989,0.0638 -11.47489,10.058371 -23.5,22.210151 -14.8135,14.96951 -23.39559,22.87539 -26.61387,24.51685 -2.6125,1.33248 -4.75,3.09011 -4.75,3.90585 0,1.02836 -1.073224,1.48315 -3.5,1.48315 -2.459539,0 -3.5,-0.45028 -3.5,-1.5147 z M 113.9944,43.897389 C 92.094682,21.926918 79.115329,9.6455656 76.5,8.419351 74.3,7.3878661 73.084847,6.5340411 73.79966,6.521962 77.073994,6.466631 82.546799,11.417223 112.5,41.529526 c 17.6,17.693486 33.35,33.023405 35,34.066486 1.65,1.043082 2.32248,1.898194 1.4944,1.90025 -0.82808,0.0021 -16.57808,-15.117437 -35,-33.598873 z M 9.6328863,70.52144 c -1.4480875,-2.188208 -2.6262525,-4.550708 -2.6181445,-5.25 0.014282,-1.231814 0.4879682,-0.553906 4.2609382,6.097973 2.503451,4.413672 1.494577,3.892914 -1.6427937,-0.847973 z M 4.5892662,57.75 C 4.1685436,56.442581 3.0556054,55.5 1.9326123,55.5 0.86967555,55.5 0,55.05 0,54.5 c 0,-0.55 0.88416731,-1 1.9648162,-1 2.091077,0 4.4373488,3.313554 3.7566914,5.305439 C 5.4969977,59.462447 4.9874891,58.9875 4.5892662,57.75 Z M 33.090148,38.615745 c -1.325418,-0.364844 -3.273317,-1.819872 -4.328665,-3.233395 -1.772949,-2.374673 -1.805242,-2.841857 -0.424806,-6.145705 2.643801,-6.327507 8.035581,-7.518233 12.740246,-2.813568 3.498348,3.498348 3.737943,6.982465 0.673077,9.787674 -2.754916,2.521518 -5.483583,3.279317 -8.659852,2.404994 z m 8.081111,-2.770733 c 2.541639,-2.300151 2.282458,-5.982205 -0.625804,-8.890467 -3.060487,-3.060486 -6.58111,-3.138573 -9.222129,-0.204545 -3.041969,3.379463 -3.556074,5.745837 -1.822959,8.390905 1.212979,1.85124 2.438746,2.359095 5.693945,2.359095 2.456625,0 4.893942,-0.674881 5.976947,-1.654988 z M 0,16 c 0,-0.82683 0.88603554,-1.5 1.9743199,-1.5 1.1808936,0 2.5958127,-1.201835 3.52081,-2.990582 C 6.3456995,9.8645974 8.1306793,7.8052564 9.4617516,6.9331043 10.792824,6.0609523 12.066035,4.1442143 12.291109,2.6736866 L 12.700336,0 12.850168,2.6819058 C 12.956472,4.5846872 12.180315,5.9474788 10.178476,7.3729139 8.6266378,8.4779202 6.5332943,11.208563 5.5266016,13.441008 3.7027739,17.485536 0,19.200037 0,16 Z M 68.25,5.8377193 C 67.5625,5.560307 67.044856,4.1333333 67.09968,2.6666667 c 0.09921,-2.65401585 0.102875,-2.655246 0.773216,-0.2593039 0.370445,1.3240495 1.563089,2.7549211 2.65032,3.1797147 C 71.726688,6.0572877 71.913205,6.3560409 71,6.3507674 70.175,6.3460032 68.9375,6.1151316 68.25,5.8377193 Z"
       style="fill:#b7bbc2" />
    <path
       id="path6855"
       d="M 85,145.02722 C 79.783824,142.26883 13.859951,76.231825 10.245067,70.143995 9.0048543,68.055351 7.4775182,64.243507 6.8509871,61.67323 5.2781694,55.220914 4.249362,53.5 1.9648162,53.5 0.08449889,53.5 0,52.725892 0,35.5 0,18.659732 0.11907388,17.5 1.8481257,17.5 3.0414575,17.5 4.3447473,16.061893 5.5266016,13.441008 6.5332943,11.208563 8.6266378,8.4779202 10.178476,7.3729139 11.949605,6.1117587 13,4.4584635 13,2.9319058 13,1.5943576 13.45,0.5 14,0.5 16.325362,0.5 14.714392,4.6836431 11.10204,8.0259161 5.9220789,12.818596 5,16.96434 5,35.461203 c 0,16.90167 1.9248273,26.783207 6.813114,34.976667 1.477787,2.476981 17.757457,19.704 36.177044,38.28227 38.375466,38.70606 38.174448,38.56094 48.213336,34.80491 4.841976,-1.81161 8.085786,-4.68935 28.220806,-25.03597 C 144.96001,97.737565 150,93.404356 150,96.5 c 0,0.55 -0.65838,1 -1.46306,1 -0.80468,0 -11.26718,9.96676 -23.25,22.14834 -18.89225,19.20564 -22.61442,22.52723 -28.014983,25 -3.425423,1.56842 -6.575423,2.83071 -7,2.8051 C 89.847381,147.42783 87.475,146.33603 85,145.02722 Z M 112.61864,44.484558 C 82.280304,14.061986 77.200855,9.3712415 73.618638,8.4690278 66.479833,6.6710554 65,5.7356966 65,3.0214388 65,1.6346475 65.45,0.5 66,0.5 c 0.55,0 1,1.0930687 1,2.4290415 0,2.099378 0.780376,2.652677 5.75,4.0768424 5.592015,1.6025266 6.698427,2.5935998 40.26883,36.0709581 18.98535,18.932737 35.07285,34.423158 35.75,34.423158 0.67714,0 1.23117,0.45 1.23117,1 0,0.55 -0.5625,0.991624 -1.25,0.981386 -0.6875,-0.01024 -16.94661,-15.758811 -36.13136,-34.996828 z M 30.276837,38.578832 C 24.98185,35.265659 24.989454,30.5797 30.299277,24.75 c 3.675068,-4.034888 10.413295,-2.640291 13.190373,2.729984 2.146154,4.150205 1.873958,7.329796 -0.846254,9.885303 -3.398028,3.192281 -8.417081,3.684807 -12.366559,1.213545 z M 41.75,36.210751 c 3.064866,-2.805209 2.825271,-6.289326 -0.673077,-9.787674 -4.704665,-4.704665 -10.096445,-3.513939 -12.740246,2.813568 -1.380436,3.303848 -1.348143,3.771032 0.424806,6.145705 3.323212,4.451081 8.658718,4.791377 12.988517,0.828401 z"
       style="fill:#a8afb7" />
    <path
       id="path6853"
       d="m 85.486146,143.91643 c -3.136762,-1.11413 -11.331114,-8.80597 -37.5,-35.20031 C 29.568766,90.140062 13.290901,72.914851 11.813114,70.43787 6.9248273,62.24441 5,52.362873 5,35.461203 5,17.27437 5.9912121,12.592912 10.721267,8.4398686 12.63715,6.7577014 14.569956,4.1705717 15.016392,2.6906914 L 15.828095,0 15.914047,2.7105734 C 15.961321,4.2013888 15.4375,5.8777113 14.75,6.4357344 14.0625,6.9937576 12.15,8.5477824 10.5,9.8891227 l -3,2.4388003 V 35.163962 C 7.5,58.888754 8.1495576,63.619849 12.008237,68 c 0.969041,1.1 2.068028,3.009634 2.442194,4.243631 0.374166,1.233996 15.937801,17.493439 34.585857,36.132099 31.895532,31.87945 34.159709,33.92657 38.192672,34.53135 9.239159,1.3855 11.563914,-0.17394 33.56644,-22.51629 C 131.83975,109.17586 142.21538,98.5375 143.85234,96.75 146.71626,93.62271 150,92.420886 150,94.5 c 0,0.55 -0.63578,1 -1.41285,1 -0.77707,0 -11.65035,10.34509 -24.16285,22.98908 -19.97833,20.18829 -23.4048,23.23407 -28.124661,25 -6.177451,2.31128 -5.576342,2.28752 -10.813493,0.42735 z M 146.33794,80.501369 c -1.18913,-0.479522 -2.42581,-1.70286 -2.74817,-2.718529 C 143.26741,76.767171 128.04034,61.036285 109.75183,42.825315 78.045966,11.253873 76.290783,9.6817609 72,9.011133 66.014815,8.0756786 63,6.0543504 63,2.976947 63,1.6146262 63.45,0.5 64,0.5 c 0.55,0 1,1.1346475 1,2.5214388 0,2.7142578 1.479833,3.6496166 8.618638,5.447589 3.582217,0.9022137 8.661666,5.5929582 39.000002,36.0155302 C 131.80339,63.722575 148.0625,79.471148 148.75,79.481386 149.4375,79.491624 150,79.95 150,80.5 c 0,1.179811 -0.73904,1.180087 -3.66206,0.0014 z M 32.5,41.335745 C 28.322332,39.030846 25,35.100395 25,32.462947 c 0,-3.494966 5.183524,-10.573713 8.159326,-11.142574 5.991063,-1.145264 11.198915,2.787931 13.045162,9.85227 0.813581,3.113028 -2.620675,8.185478 -6.694266,9.887533 -4.06916,1.700203 -4.404178,1.713373 -7.010222,0.275569 z m 10.143396,-3.970458 c 2.720212,-2.555507 2.992408,-5.735098 0.846254,-9.885303 -3.884354,-7.511511 -12.088508,-6.582278 -16.449718,1.863157 -4.144961,8.02667 8.615392,14.587099 15.603464,8.022146 z"
       style="fill:#868f9a" />
    <path
       id="path6851"
       d="m 88.730968,142.84406 c 0.677033,-0.27392 2.027033,-0.29059 3,-0.0371 0.972968,0.25354 0.419032,0.47766 -1.230968,0.49804 -1.65,0.0204 -2.446064,-0.18706 -1.769032,-0.46099 z M 83.75,141.83772 c 0.6875,-0.27741 1.8125,-0.27741 2.5,0 0.6875,0.27741 0.125,0.50439 -1.25,0.50439 -1.375,0 -1.9375,-0.22698 -1.25,-0.50439 z m 11.0625,-0.0208 c 0.721875,-0.28887 1.584375,-0.25335 1.916667,0.0789 0.332291,0.33229 -0.258334,0.56864 -1.3125,0.52522 -1.164943,-0.048 -1.4019,-0.28494 -0.604167,-0.60416 z m 3.270833,-0.61955 C 98.3125,141.03088 99.85,140.10417 101.5,139.13799 l 3,-1.75669 -2.36078,2.05935 c -1.29844,1.13264 -2.835935,2.05935 -3.416671,2.05935 -0.580735,0 -0.868382,-0.1362 -0.639216,-0.30266 z M 76,135.37794 c -3.485055,-3.05516 -3.486252,-3.05912 -0.280241,-0.92654 1.770868,1.17795 3.484925,2.57077 3.809017,3.09516 0.964655,1.56085 0.16463,1.06919 -3.528776,-2.16862 z m 28.35909,0.35005 C 105.15031,134.44777 111,130.11856 111,130.81322 c 0,0.24717 -1.65202,1.70946 -3.67115,3.24952 -2.01913,1.54007 -3.35552,2.28943 -2.96976,1.66525 z M 70.404988,129.25 68.5,127 l 2.25,1.90499 c 2.114445,1.79022 2.705241,2.59501 1.904988,2.59501 -0.189757,0 -1.202257,-1.0125 -2.25,-2.25 z m 40.954102,-0.52201 C 112.15031,127.44777 118,123.11856 118,123.81322 c 0,0.24717 -1.65202,1.70946 -3.67115,3.24952 -2.01913,1.54007 -3.35552,2.28943 -2.96976,1.66525 z m -46.921834,-4.89914 c -1.540067,-2.01913 -2.289429,-3.35552 -1.665249,-2.96976 1.28022,0.79122 5.609434,6.64091 4.914776,6.64091 -0.247173,0 -1.70946,-1.65202 -3.249527,-3.67115 z m 57.821334,-5.59143 c 2.61723,-2.59613 6.8827,-6.8616 9.47883,-9.47883 2.59613,-2.61722 3.82977,-3.63877 2.74141,-2.27011 -2.552,3.20927 -11.28108,11.93835 -14.49035,14.49035 -1.36866,1.08836 -0.34711,-0.14528 2.27011,-2.74141 z M 56.404988,115.25 54.5,113 l 2.25,1.90499 c 2.114445,1.79022 2.705241,2.59501 1.904988,2.59501 -0.189757,0 -1.202257,-1.0125 -2.25,-2.25 z M 52,112 c -0.684689,-0.825 -1.019889,-1.5 -0.744889,-1.5 0.275,0 1.0602,0.675 1.744889,1.5 0.684689,0.825 1.019889,1.5 0.744889,1.5 -0.275,0 -1.0602,-0.675 -1.744889,-1.5 z m -3,-4 c -0.684689,-0.825 -1.019889,-1.5 -0.744889,-1.5 0.275,0 1.0602,0.675 1.744889,1.5 0.684689,0.825 1.019889,1.5 0.744889,1.5 -0.275,0 -1.0602,-0.675 -1.744889,-1.5 z m 89.51128,-5.87688 c 0.94531,-1.44271 1.90782,-2.62312 2.13891,-2.62312 0.72338,0 -1.6049,3.85397 -2.75929,4.56743 -0.6041,0.37335 -0.32492,-0.50159 0.62038,-1.94431 z M 40,99.377937 c -3.485055,-3.055159 -3.486252,-3.059115 -0.280241,-0.926538 1.770868,1.177948 3.484925,2.570771 3.809017,3.095161 0.964655,1.56085 0.16463,1.06919 -3.528776,-2.168623 z m 103.43709,-3.631571 c 1.6154,-1.785501 3.8654,-3.217842 5,-3.18298 1.82108,0.05596 1.7699,0.180225 -0.43658,1.060067 -1.37472,0.548175 -3.62472,1.980516 -5,3.18298 -1.86314,1.629024 -1.75186,1.358819 0.43658,-1.060067 z M 34.404988,93.25 32.5,91 34.75,92.904988 C 36.864445,94.695206 37.455241,95.5 36.654988,95.5 c -0.189757,0 -1.202257,-1.0125 -2.25,-2.25 z M 26,85.377937 c -3.485055,-3.055159 -3.486252,-3.059115 -0.280241,-0.926538 1.770868,1.177948 3.484925,2.57077 3.809017,3.095162 C 30.493431,89.107406 29.693406,88.615747 26,85.377937 Z M 145.01833,80.25 C 143.96771,79.0125 128.45879,63.190528 110.55406,45.090063 92.649327,26.989598 78,11.917194 78,11.595833 c 0,-1.171002 65.03621,64.456541 65.58613,66.18246 0.31163,0.978062 1.99474,2.403853 3.74024,3.168426 2.02444,0.886757 2.527,1.419671 1.3879,1.471707 -0.98216,0.04487 -2.64533,-0.930926 -3.69594,-2.168426 z M 19.5,78.875209 c -1.798106,-1.530107 -2.165788,-2.138519 -0.917756,-1.518633 1.833045,0.910456 5.271224,4.202188 4.290201,4.107461 C 22.6676,81.444257 21.15,80.279285 19.5,78.875209 Z M 14.429115,72.073596 C 14.094172,70.739074 12.960598,68.869329 11.910063,67.918609 10.859529,66.967888 10,65.775243 10,65.268287 c 0,-1.477828 4.656575,4.508828 5.430555,6.981713 0.387321,1.2375 0.457469,2.25 0.155885,2.25 -0.301585,0 -0.822381,-1.091882 -1.157325,-2.426404 z M 8.2320027,57.5 c 0,-1.925 0.2057953,-2.7125 0.4573228,-1.75 0.2515276,0.9625 0.2515276,2.5375 0,3.5 C 8.437798,60.2125 8.2320027,59.425 8.2320027,57.5 Z M 7.416832,35 c -9.612e-4,-10.45 0.1464358,-14.860874 0.3275487,-9.801941 0.1811129,5.058932 0.1818993,13.608932 0.00175,19 C 7.5659765,49.589126 7.4177932,45.45 7.416832,35 Z m 23.278102,6.6373 c -1.542786,-1.017237 -3.548079,-2.926772 -4.456207,-4.243411 -1.332987,-1.932616 -0.949661,-1.784657 1.98936,0.767869 2.002276,1.738967 4.537037,3.446308 5.632803,3.79409 3.073004,0.975334 8.873199,-1.971179 11.113475,-5.645672 1.109988,-1.820597 2.019841,-2.808362 2.021897,-2.195035 0.0062,1.84493 -3.981716,6.325977 -7.034898,7.904839 -3.762453,1.945639 -5.867014,1.858726 -9.26643,-0.38268 z M 24.157895,32.5 c 0,-1.375 0.226973,-1.9375 0.504386,-1.25 0.277412,0.6875 0.277412,1.8125 0,2.5 -0.277413,0.6875 -0.504386,0.125 -0.504386,-1.25 z m 21.921052,-1.583333 c 0.04798,-1.164943 0.284941,-1.4019 0.604167,-0.604167 0.288871,0.721875 0.253344,1.584375 -0.07895,1.916667 -0.332292,0.332291 -0.568641,-0.258334 -0.52522,-1.3125 z M 43.5131,25.525332 C 42.549403,23.661747 40.765614,22.201374 38.73742,21.61552 36.956839,21.101191 36.317084,20.639792 37.315741,20.590188 40.15611,20.449107 42.840434,22.290754 44.51533,25.529644 45.360147,27.16334 45.82636,28.5 45.55136,28.5 c -0.275,0 -1.192217,-1.338601 -2.03826,-2.974668 z M 27.641926,24.708835 c 1.720764,-3.08137 5.676788,-5.223454 7.071311,-3.828931 C 35.05429,21.220957 34.390948,21.5 33.239145,21.5 c -1.151804,0 -3.295903,1.4625 -4.764665,3.25 L 25.804004,28 Z M 8.0304087,12.82258 C 8.0136839,12.174999 9.2375,10.717397 10.75,9.5834634 12.2625,8.4495301 14.0625,7.0491271 14.75,6.4714567 15.570588,5.7819591 16,5.7693985 16,6.4348933 16,6.9924538 14.672366,8.1351859 13.049702,8.9742979 11.427039,9.8134099 9.6407226,11.287466 9.0801111,12.249978 8.5194995,13.21249 8.0471335,13.470161 8.0304087,12.82258 Z M 65.5,8.3452676 C 64.4,7.7436144 62.9375,6.54629 62.25,5.6845467 60.754096,3.809514 60.594511,0.5 62,0.5 c 0.55,0 1,1.0698999 1,2.3775553 0,2.8786576 1.929536,4.6205127 6.256163,5.6476431 C 71.992503,9.1747985 72.108876,9.306534 70,9.3672298 68.625,9.4068039 66.6,8.9469209 65.5,8.3452676 Z M 16.157895,2.5 c 0,-1.375 0.226973,-1.9375 0.504386,-1.25 0.277412,0.6875 0.277412,1.8125 0,2.5 -0.277413,0.6875 -0.504386,0.125 -0.504386,-1.25 z"
       style="fill:#7a8491" />
    <path
       id="path6849"
       d="M 85.182747,141.78545 C 82.333556,141.24177 16.500864,75.666845 15.456721,72.332443 15.055009,71.049599 13.662909,68.727974 12.363167,67.173275 9.0413397,63.199839 9.4144593,61.564834 12.884399,64.889247 c 1.808389,1.732547 3.120311,4.238746 3.516796,6.718228 0.472738,2.956336 1.247237,4.18856 3.067705,4.880701 1.33942,0.509246 3.143417,2.295235 4.008884,3.968863 0.865467,1.673629 2.252197,3.042961 3.081621,3.042961 0.829425,0 2.437318,1.575 3.573096,3.5 1.135778,1.925 2.710778,3.5 3.5,3.5 0.789222,0 2.335716,1.526685 3.436652,3.392633 1.100937,1.865949 2.881938,3.62282 3.95778,3.904159 1.075842,0.281339 2.7474,1.917231 3.714572,3.635318 0.967172,1.71808 2.702744,3.36786 3.856826,3.66618 1.154082,0.29832 2.834302,2.08574 3.733822,3.97205 0.983279,2.06196 2.365654,3.42966 3.466456,3.42966 1.107955,0 2.490034,1.38208 3.5,3.5 0.917969,1.925 2.366491,3.5 3.218938,3.5 0.852447,0 2.479176,1.575 3.614954,3.5 1.135778,1.925 2.710778,3.5 3.5,3.5 0.789222,0 2.364222,1.575 3.5,3.5 1.135778,1.925 2.710778,3.5 3.5,3.5 0.789222,0 2.364222,1.575 3.5,3.5 l 2.065051,3.5 h 7.898792 7.898792 l 21.032134,-21.09805 c 11.56767,-11.60393 21.89842,-22.796123 22.95722,-24.871546 1.08924,-2.135095 2.92164,-4.040434 4.2203,-4.388296 C 149.5628,89.242625 150,89.341451 150,91 c 0,0.825 -0.87459,1.5 -1.94354,1.5 -1.0701,0 -3.42947,1.840503 -5.25,4.095437 -1.81855,2.252491 -12.18009,13.027513 -23.02564,23.944483 -22.187769,22.3339 -23.777783,23.31028 -34.598073,21.24553 z M 143.25,82.837719 C 142.5625,82.560307 142,81.44125 142,80.350925 142,77.494648 140.17334,74.5 138.43109,74.5 c -0.8242,0 -2.41604,-1.555047 -3.53743,-3.455659 -1.12139,-1.900613 -2.91115,-3.732504 -3.97724,-4.070869 C 129.85032,66.635107 128.31294,65.072045 127.5,63.5 c -0.81294,-1.572045 -2.35032,-3.135107 -3.41642,-3.473472 -1.06609,-0.338365 -2.85585,-2.170256 -3.97724,-4.070869 C 118.98495,54.055047 117.42172,52.5 116.6325,52.5 c -0.78922,0 -2.36422,-1.575 -3.5,-3.5 -1.13578,-1.925 -2.71078,-3.5 -3.5,-3.5 -0.78922,0 -2.36422,-1.575 -3.5,-3.5 -1.13578,-1.925 -2.71078,-3.5 -3.5,-3.5 -0.78922,0 -2.36422,-1.575 -3.499999,-3.5 C 97.996723,33.075 96.413976,31.5 95.615285,31.5 94.816594,31.5 93.189715,29.925 92,28 c -1.189715,-1.925 -2.816594,-3.5 -3.615285,-3.5 -0.798691,0 -2.381438,-1.575 -3.517216,-3.5 -1.135778,-1.925 -2.642192,-3.5 -3.347586,-3.5 -0.705394,0 -2.434335,-1.510087 -3.84209,-3.355749 -2.301315,-3.017179 -3.191848,-3.413084 -8.826547,-3.92402 C 61.825531,9.5831584 59.94319,8.0445233 60.090188,3.0588704 L 60.180377,0 61.11552,3.2374195 C 62.222812,7.0708056 66.271554,9.5 71.553373,9.5 c 3.458554,0 5.403814,1.740642 36.599877,32.75 18.12096,18.0125 33.62871,34.021468 34.46169,35.575484 0.83297,1.554017 2.94787,3.448903 4.69977,4.210859 l 3.18529,1.385373 -3,-0.03981 c -1.65,-0.02189 -3.5625,-0.266779 -4.25,-0.544192 z M 8.647983,56.25 C 7.6122213,47.626849 7.9003677,14.554682 9.0296444,12.444609 9.5959488,11.38646 11.375768,9.839923 12.984798,9.0078611 15.084118,7.9222605 16.098077,6.4941255 16.575192,3.9508824 16.940879,2.001606 17.465077,0.63174349 17.740077,0.90674349 18.015077,1.1817435 17.93426,3.0368856 17.560485,5.0292816 17.01646,7.9291821 16.194579,8.9385796 13.440446,10.08933 11.548201,10.87996 9.9454328,12.083301 9.8787395,12.76342 9.8120462,13.443539 9.8559967,24.6875 9.9764073,37.75 10.096818,50.8125 9.9890661,61.5 9.7369588,61.5 9.4848515,61.5 8.9948124,59.1375 8.647983,56.25 Z m 18.202234,-16 c -2.660857,-2.8875 -4.840688,-6.125812 -4.844069,-7.196249 -0.0034,-1.070438 1.017538,-3.545438 2.26871,-5.5 C 25.526029,25.599188 27.034877,23.1 27.627852,22 c 0.831433,-1.542352 2.300869,-2.070724 6.421696,-2.309076 7.750701,-0.448307 9.619065,0.274935 10.923904,4.228634 0.620869,1.881252 1.780834,3.961554 2.5777,4.622895 2.091464,1.735761 1.780136,6.267119 -0.622095,9.054537 C 40.174021,45.435167 40.083021,45.5 35.836355,45.5 c -3.723191,0 -4.643908,-0.537913 -8.986138,-5.25 z m 13.111147,1.76998 C 43.746277,40.062725 47,35.812337 47,32.825303 47,29.572356 43.442802,22.807348 41.062475,21.533436 40.000429,20.965046 37.319429,20.5 35.104697,20.5 c -4.613912,0 -6.842378,1.87427 -9.661442,8.125838 -1.757609,3.897681 -1.756675,4.136704 0.02915,7.452774 1.978872,3.674542 6.892845,7.377072 9.827258,7.404541 0.989813,0.0093 3.08758,-0.649162 4.661704,-1.463173 z"
       style="fill:#6c7885" />
    <path
       id="path6847"
       d="m 80.132501,137 c -1.135778,-1.925 -2.710778,-3.5 -3.5,-3.5 -0.789222,0 -2.364222,-1.575 -3.5,-3.5 -1.135778,-1.925 -2.710778,-3.5 -3.5,-3.5 -0.789222,0 -2.364222,-1.575 -3.5,-3.5 -1.135778,-1.925 -2.762507,-3.5 -3.614954,-3.5 -0.852447,0 -2.300969,-1.575 -3.218938,-3.5 -1.009966,-2.11792 -2.392045,-3.5 -3.5,-3.5 -1.100802,0 -2.483177,-1.3677 -3.466456,-3.42966 -0.89952,-1.88631 -2.57974,-3.67373 -3.733822,-3.97205 -1.154082,-0.29832 -2.889654,-1.9481 -3.856826,-3.66618 -0.967172,-1.718087 -2.63873,-3.353979 -3.714572,-3.635318 -1.075842,-0.281339 -2.856843,-2.03821 -3.95778,-3.904159 C 35.968217,92.026685 34.421723,90.5 33.632501,90.5 c -0.789222,0 -2.364222,-1.575 -3.5,-3.5 -1.135778,-1.925 -2.743671,-3.5 -3.573096,-3.5 -0.829424,0 -2.216154,-1.369332 -3.081621,-3.042961 C 22.612317,78.783411 20.824968,77.003752 19.505897,76.502242 17.773273,75.8435 16.920788,74.536991 16.434596,71.795203 16.064451,69.707841 14.502369,66.65 12.963302,65 L 10.164998,62 9.9612387,38 C 9.8491708,24.8 9.8120462,13.443539 9.8787395,12.76342 9.9454325,12.083301 11.565367,10.872788 13.478593,10.073391 16.420233,8.8442954 17.057398,7.9932491 17.606401,4.5599712 L 18.255616,0.5 H 39.127808 60 v 2.8088704 c 0,4.7689315 1.941336,6.2847889 8.851276,6.9113606 5.634699,0.510936 6.525232,0.906841 8.826547,3.92402 1.407755,1.845662 3.136696,3.355749 3.84209,3.355749 0.705394,0 2.211808,1.575 3.347586,3.5 1.135778,1.925 2.718525,3.5 3.517216,3.5 0.798691,0 2.42557,1.575 3.615285,3.5 1.189715,1.925 2.816594,3.5 3.615285,3.5 0.798691,0 2.381438,1.575 3.517216,3.5 1.135779,1.925 2.710779,3.5 3.499999,3.5 0.78922,0 2.36422,1.575 3.5,3.5 1.13578,1.925 2.71078,3.5 3.5,3.5 0.78922,0 2.36422,1.575 3.5,3.5 1.13578,1.925 2.71078,3.5 3.5,3.5 0.78922,0 2.35245,1.555047 3.47384,3.455659 1.12139,1.900613 2.91115,3.732504 3.97724,4.070869 1.0661,0.338365 2.60348,1.901427 3.41642,3.473472 0.81294,1.572045 2.35032,3.135107 3.41642,3.473472 1.06609,0.338365 2.85585,2.170256 3.97724,4.070869 1.12139,1.900612 2.71323,3.455659 3.53743,3.455659 1.7365,0 3.56891,2.991943 3.56891,5.82727 0,2.136659 1.82276,3.17273 5.58179,3.17273 2.00561,0 2.41821,0.498304 2.41821,2.920545 0,2.436845 -0.50063,3.030501 -3.02276,3.584454 -2.17147,0.476934 -3.57125,1.739026 -4.9703,4.481406 -1.07115,2.099622 -11.412,13.311615 -22.97967,24.915545 L 97.995136,140.5 H 90.096344 82.197552 Z M 42.421343,42.75 C 48.35151,36.057555 49,35.044149 49,32.469435 49,30.970935 48.348019,29.203793 47.551152,28.542453 46.754286,27.881112 45.594321,25.80081 44.973452,23.919558 43.668613,19.965859 41.800249,19.242617 34.049548,19.690924 29.928721,19.929276 28.459285,20.457648 27.627852,22 c -0.592975,1.1 -2.101823,3.599188 -3.352994,5.553751 -1.251172,1.954562 -2.272092,4.429562 -2.26871,5.5 0.0034,1.070437 2.183212,4.308749 4.844069,7.196249 4.34223,4.712087 5.262947,5.25 8.986138,5.25 3.267928,0 4.665321,-0.583575 6.584988,-2.75 z"
       style="fill:#556372" />
  </g>
</svg>
