<?xml version="1.0" encoding="UTF-8" standalone="no"?>
<svg
   xmlns:dc="http://purl.org/dc/elements/1.1/"
   xmlns:cc="http://creativecommons.org/ns#"
   xmlns:rdf="http://www.w3.org/1999/02/22-rdf-syntax-ns#"
   xmlns:svg="http://www.w3.org/2000/svg"
   xmlns="http://www.w3.org/2000/svg"
   viewBox="0 0 250 136"
   height="136"
   width="250"
   id="svg4485"
   version="1.1">
  <metadata
     id="metadata4491">
    <rdf:RDF>
      <cc:Work
         rdf:about="">
        <dc:format>image/svg+xml</dc:format>
        <dc:type
           rdf:resource="http://purl.org/dc/dcmitype/StillImage" />
        <dc:title></dc:title>
      </cc:Work>
    </rdf:RDF>
  </metadata>
  <defs
     id="defs4489" />
  <g
     transform="translate(434,64)"
     id="g6769">
    <path
       id="path6785"
       d="M -434,18.5 V 15 h 125 125 v 3.5 3.5 h -125 -125 z"
       style="fill:#e5ce00" />
    <path
       id="path6783"
       d="M -434,47 V 22 h 125 125 v 25 25 h -125 -125 z m 0,-33 c 0,-0.661333 42.33333,-1 125,-1 82.66667,0 125,0.338667 125,1 0,0.661333 -42.33333,1 -125,1 -82.66667,0 -125,-0.338667 -125,-1 z"
       style="fill:#d4c600" />
    <path
       id="path6781"
       d="m -434,10.247996 c 0,-0.98133 248.60299,-0.978344 249.58433,0.003 C -184.00372,10.662947 -239.99167,11 -308.83333,11 -377.675,11 -434,10.661598 -434,10.247996 Z"
       style="fill:#82a63c" />
    <path
       id="path6779"
       d="m -434,12 c 0,-0.661333 42.33333,-1 125,-1 82.66667,0 125,0.338667 125,1 0,0.661333 -42.33333,1 -125,1 -82.66667,0 -125,-0.338667 -125,-1 z"
       style="fill:#acb500" />
    <path
       id="path6777"
       d="m -433.65389,8.751004 c -0.25528,-0.413052 -0.32509,-0.807029 -0.15513,-0.875503 C -433.63906,7.807027 -377.3625,7.693625 -308.75,7.623497 -225.91583,7.538833 -184,7.833001 -184,8.499 c 0,1.186678 -248.92094,1.437942 -249.65389,0.252004 z"
       style="fill:#4d956e" />
    <path
       id="path6775"
       d="M -434,-29.5 V -64 h 125 125 V -29.5 5 h -125 -125 z"
       style="fill:#006ec1" />
    <path
       id="path6773"
       d="m -371.75,5.250136 c 34.5125,-0.145839 90.9875,-0.145839 125.5,0 34.5125,0.14584 6.275,0.265163 -62.75,0.265163 -69.025,0 -97.2625,-0.119323 -62.75,-0.265163 z"
       style="fill:#0076b2" />
    <path
       id="path6771"
       d="M -434,6.752004 C -434,6.338402 -377.675,6 -308.83333,6 -239.99167,6 -184.00372,6.337053 -184.41567,6.749006 -185.39701,7.730348 -434,7.733334 -434,6.752004 Z"
       style="fill:#008494" />
  </g>
</svg>
